<ttFont>
    <TTGlyph name="A" xMin="-2" yMin="0" xMax="566" yMax="691">
      <contour>
        <pt x="364" y="0" on="1"/>
        <pt x="364" y="44" on="1"/>
        <pt x="445" y="65" on="1"/>
        <pt x="392" y="241" on="1"/>
        <pt x="169" y="241" on="1"/>
        <pt x="117" y="62" on="1"/>
        <pt x="205" y="45" on="1"/>
        <pt x="205" y="0" on="1"/>
        <pt x="11" y="0" on="1"/>
        <pt x="-2" y="47" on="1"/>
        <pt x="52" y="65" on="1"/>
        <pt x="243" y="691" on="1"/>
        <pt x="327" y="691" on="1"/>
        <pt x="519" y="65" on="1"/>
        <pt x="566" y="47" on="1"/>
        <pt x="555" y="0" on="1"/>
      </contour>
      <contour>
        <pt x="279" y="616" on="1"/>
        <pt x="188" y="304" on="1"/>
        <pt x="373" y="304" on="1"/>
      </contour>
    </TTGlyph>
    <TTGlyph name="AE" xMin="-12" yMin="0" xMax="680" yMax="691">
      <contour>
        <pt x="1" y="0" on="1"/>
        <pt x="-12" y="47" on="1"/>
        <pt x="41" y="65" on="1"/>
        <pt x="278" y="691" on="1"/>
        <pt x="650" y="691" on="1"/>
        <pt x="670" y="520" on="1"/>
        <pt x="622" y="520" on="1"/>
        <pt x="588" y="623" on="1"/>
        <pt x="399" y="623" on="1"/>
        <pt x="399" y="364" on="1"/>
        <pt x="541" y="364" on="1"/>
        <pt x="541" y="301" on="1"/>
        <pt x="399" y="301" on="1"/>
        <pt x="399" y="68" on="1"/>
        <pt x="598" y="68" on="1"/>
        <pt x="633" y="171" on="1"/>
        <pt x="680" y="171" on="1"/>
        <pt x="661" y="0" on="1"/>
        <pt x="291" y="0" on="1"/>
        <pt x="283" y="56" on="1"/>
        <pt x="331" y="68" on="1"/>
        <pt x="331" y="298" on="1"/>
        <pt x="196" y="298" on="1"/>
        <pt x="107" y="62" on="1"/>
        <pt x="193" y="45" on="1"/>
        <pt x="193" y="0" on="1"/>
      </contour>
      <contour>
        <pt x="331" y="627" on="1"/>
        <pt x="320" y="628" on="1"/>
        <pt x="219" y="361" on="1"/>
        <pt x="331" y="361" on="1"/>
      </contour>
    </TTGlyph>
    <TTGlyph name="Aacute" xMin="-2" yMin="0" xMax="566" yMax="897">
      <contour>
        <pt x="176" y="764" on="1"/>
        <pt x="334" y="897" on="1"/>
        <pt x="364" y="890" on="1"/>
        <pt x="401" y="818" on="1"/>
        <pt x="208" y="717" on="1"/>
      </contour>
      <contour>
        <pt x="364" y="0" on="1"/>
        <pt x="364" y="44" on="1"/>
        <pt x="445" y="65" on="1"/>
        <pt x="392" y="241" on="1"/>
        <pt x="169" y="241" on="1"/>
        <pt x="117" y="62" on="1"/>
        <pt x="205" y="45" on="1"/>
        <pt x="205" y="0" on="1"/>
        <pt x="11" y="0" on="1"/>
        <pt x="-2" y="47" on="1"/>
        <pt x="52" y="65" on="1"/>
        <pt x="243" y="691" on="1"/>
        <pt x="327" y="691" on="1"/>
        <pt x="519" y="65" on="1"/>
        <pt x="566" y="47" on="1"/>
        <pt x="555" y="0" on="1"/>
      </contour>
      <contour>
        <pt x="279" y="616" on="1"/>
        <pt x="188" y="304" on="1"/>
        <pt x="373" y="304" on="1"/>
      </contour>
    </TTGlyph>
    <TTGlyph name="Acircumflex" xMin="-2" yMin="0" xMax="566" yMax="884">
      <contour>
        <pt x="273" y="884" on="1"/>
        <pt x="289" y="884" on="1"/>
        <pt x="429" y="727" on="1"/>
        <pt x="356" y="727" on="1"/>
        <pt x="280" y="790" on="1"/>
        <pt x="205" y="727" on="1"/>
        <pt x="131" y="727" on="1"/>
      </contour>
      <contour>
        <pt x="364" y="0" on="1"/>
        <pt x="364" y="44" on="1"/>
        <pt x="445" y="65" on="1"/>
        <pt x="392" y="241" on="1"/>
        <pt x="169" y="241" on="1"/>
        <pt x="117" y="62" on="1"/>
        <pt x="205" y="45" on="1"/>
        <pt x="205" y="0" on="1"/>
        <pt x="11" y="0" on="1"/>
        <pt x="-2" y="47" on="1"/>
        <pt x="52" y="65" on="1"/>
        <pt x="243" y="691" on="1"/>
        <pt x="327" y="691" on="1"/>
        <pt x="519" y="65" on="1"/>
        <pt x="566" y="47" on="1"/>
        <pt x="555" y="0" on="1"/>
      </contour>
      <contour>
        <pt x="279" y="616" on="1"/>
        <pt x="188" y="304" on="1"/>
        <pt x="373" y="304" on="1"/>
      </contour>
    </TTGlyph>
    <TTGlyph name="Adieresis" xMin="-2" yMin="0" xMax="566" yMax="829">
      <contour>
        <pt x="364" y="0" on="1"/>
        <pt x="364" y="44" on="1"/>
        <pt x="445" y="65" on="1"/>
        <pt x="392" y="241" on="1"/>
        <pt x="169" y="241" on="1"/>
        <pt x="117" y="62" on="1"/>
        <pt x="205" y="45" on="1"/>
        <pt x="205" y="0" on="1"/>
        <pt x="11" y="0" on="1"/>
        <pt x="-2" y="47" on="1"/>
        <pt x="52" y="65" on="1"/>
        <pt x="243" y="691" on="1"/>
        <pt x="327" y="691" on="1"/>
        <pt x="519" y="65" on="1"/>
        <pt x="566" y="47" on="1"/>
        <pt x="555" y="0" on="1"/>
      </contour>
      <contour>
        <pt x="279" y="616" on="1"/>
        <pt x="188" y="304" on="1"/>
        <pt x="373" y="304" on="1"/>
      </contour>
      <contour>
        <pt x="127" y="772" on="1"/>
        <pt x="127" y="796" on="0"/>
        <pt x="160" y="829" on="0"/>
        <pt x="207" y="829" on="0"/>
        <pt x="242" y="796" on="0"/>
        <pt x="242" y="772" on="1"/>
        <pt x="242" y="748" on="0"/>
        <pt x="207" y="714" on="0"/>
        <pt x="160" y="714" on="0"/>
        <pt x="127" y="748" on="0"/>
      </contour>
      <contour>
        <pt x="303" y="772" on="1"/>
        <pt x="303" y="796" on="0"/>
        <pt x="338" y="829" on="0"/>
        <pt x="386" y="829" on="0"/>
        <pt x="418" y="796" on="0"/>
        <pt x="418" y="772" on="1"/>
        <pt x="418" y="748" on="0"/>
        <pt x="386" y="714" on="0"/>
        <pt x="338" y="714" on="0"/>
        <pt x="303" y="748" on="0"/>
      </contour>
    </TTGlyph>
    <TTGlyph name="Agrave" xMin="-2" yMin="0" xMax="566" yMax="897">
      <contour>
        <pt x="372" y="717" on="1"/>
        <pt x="168" y="818" on="1"/>
        <pt x="205" y="890" on="1"/>
        <pt x="235" y="897" on="1"/>
        <pt x="403" y="764" on="1"/>
      </contour>
      <contour>
        <pt x="364" y="0" on="1"/>
        <pt x="364" y="44" on="1"/>
        <pt x="445" y="65" on="1"/>
        <pt x="392" y="241" on="1"/>
        <pt x="169" y="241" on="1"/>
        <pt x="117" y="62" on="1"/>
        <pt x="205" y="45" on="1"/>
        <pt x="205" y="0" on="1"/>
        <pt x="11" y="0" on="1"/>
        <pt x="-2" y="47" on="1"/>
        <pt x="52" y="65" on="1"/>
        <pt x="243" y="691" on="1"/>
        <pt x="327" y="691" on="1"/>
        <pt x="519" y="65" on="1"/>
        <pt x="566" y="47" on="1"/>
        <pt x="555" y="0" on="1"/>
      </contour>
      <contour>
        <pt x="279" y="616" on="1"/>
        <pt x="188" y="304" on="1"/>
        <pt x="373" y="304" on="1"/>
      </contour>
    </TTGlyph>
    <TTGlyph name="Aring" xMin="-3" yMin="0" xMax="565" yMax="845">
      <contour>
        <pt x="380" y="751" on="1"/>
        <pt x="380" y="697" on="0"/>
        <pt x="333" y="668" on="1"/>
        <pt x="518" y="65" on="1"/>
        <pt x="565" y="47" on="1"/>
        <pt x="554" y="0" on="1"/>
        <pt x="363" y="0" on="1"/>
        <pt x="363" y="44" on="1"/>
        <pt x="444" y="65" on="1"/>
        <pt x="391" y="241" on="1"/>
        <pt x="168" y="241" on="1"/>
        <pt x="116" y="62" on="1"/>
        <pt x="204" y="45" on="1"/>
        <pt x="204" y="0" on="1"/>
        <pt x="10" y="0" on="1"/>
        <pt x="-3" y="47" on="1"/>
        <pt x="51" y="65" on="1"/>
        <pt x="235" y="670" on="1"/>
        <pt x="215" y="682" on="0"/>
        <pt x="191" y="725" on="0"/>
        <pt x="191" y="770" on="0"/>
        <pt x="206" y="805" on="0"/>
        <pt x="218" y="818" on="1"/>
        <pt x="246" y="845" on="0"/>
        <pt x="286" y="845" on="1"/>
        <pt x="325" y="845" on="0"/>
        <pt x="380" y="790" on="0"/>
      </contour>
      <contour>
        <pt x="278" y="616" on="1"/>
        <pt x="187" y="304" on="1"/>
        <pt x="372" y="304" on="1"/>
      </contour>
      <contour>
        <pt x="248" y="751" on="1"/>
        <pt x="248" y="734" on="0"/>
        <pt x="269" y="713" on="0"/>
        <pt x="286" y="713" on="1"/>
        <pt x="303" y="713" on="0"/>
        <pt x="323" y="734" on="0"/>
        <pt x="323" y="751" on="1"/>
        <pt x="323" y="768" on="0"/>
        <pt x="303" y="789" on="0"/>
        <pt x="286" y="789" on="1"/>
        <pt x="269" y="789" on="0"/>
        <pt x="248" y="768" on="0"/>
      </contour>
    </TTGlyph>
    <TTGlyph name="Atilde" xMin="-2" yMin="0" xMax="566" yMax="842">
      <contour>
        <pt x="466" y="770" on="1"/>
        <pt x="417" y="727" on="0"/>
        <pt x="382" y="727" on="1"/>
        <pt x="359" y="727" on="0"/>
        <pt x="327" y="743" on="0"/>
        <pt x="297" y="762" on="0"/>
        <pt x="265" y="778" on="0"/>
        <pt x="211" y="778" on="0"/>
        <pt x="179" y="747" on="0"/>
        <pt x="168" y="729" on="1"/>
        <pt x="131" y="760" on="1"/>
        <pt x="131" y="776" on="1"/>
        <pt x="151" y="816" on="0"/>
        <pt x="196" y="834" on="1"/>
        <pt x="216" y="842" on="0"/>
        <pt x="282" y="842" on="0"/>
        <pt x="335" y="808" on="0"/>
        <pt x="367" y="786" on="1"/>
        <pt x="429" y="836" on="1"/>
      </contour>
      <contour>
        <pt x="364" y="0" on="1"/>
        <pt x="364" y="44" on="1"/>
        <pt x="445" y="65" on="1"/>
        <pt x="392" y="241" on="1"/>
        <pt x="169" y="241" on="1"/>
        <pt x="117" y="62" on="1"/>
        <pt x="205" y="45" on="1"/>
        <pt x="205" y="0" on="1"/>
        <pt x="11" y="0" on="1"/>
        <pt x="-2" y="47" on="1"/>
        <pt x="52" y="65" on="1"/>
        <pt x="243" y="691" on="1"/>
        <pt x="327" y="691" on="1"/>
        <pt x="519" y="65" on="1"/>
        <pt x="566" y="47" on="1"/>
        <pt x="555" y="0" on="1"/>
      </contour>
      <contour>
        <pt x="279" y="616" on="1"/>
        <pt x="188" y="304" on="1"/>
        <pt x="373" y="304" on="1"/>
      </contour>
    </TTGlyph>
    <TTGlyph name="B" xMin="55" yMin="0" xMax="510" yMax="691">
      <contour>
        <pt x="181" y="314" on="1"/>
        <pt x="181" y="68" on="1"/>
        <pt x="309" y="68" on="1"/>
        <pt x="378" y="68" on="0"/>
        <pt x="411" y="108" on="1"/>
        <pt x="439" y="142" on="0"/>
        <pt x="439" y="195" on="1"/>
        <pt x="439" y="246" on="0"/>
        <pt x="356" y="314" on="0"/>
        <pt x="293" y="314" on="1"/>
      </contour>
      <contour>
        <pt x="409" y="505" on="1"/>
        <pt x="409" y="587" on="0"/>
        <pt x="330" y="614" on="1"/>
        <pt x="301" y="623" on="0"/>
        <pt x="261" y="623" on="1"/>
        <pt x="181" y="623" on="1"/>
        <pt x="181" y="377" on="1"/>
        <pt x="276" y="377" on="1"/>
        <pt x="341" y="377" on="0"/>
        <pt x="378" y="417" on="1"/>
        <pt x="409" y="451" on="0"/>
      </contour>
      <contour>
        <pt x="480" y="510" on="1"/>
        <pt x="480" y="401" on="0"/>
        <pt x="392" y="354" on="1"/>
        <pt x="445" y="330" on="0"/>
        <pt x="466" y="306" on="1"/>
        <pt x="510" y="257" on="0"/>
        <pt x="510" y="187" on="1"/>
        <pt x="510" y="94" on="0"/>
        <pt x="449" y="46" on="1"/>
        <pt x="391" y="0" on="0"/>
        <pt x="289" y="0" on="1"/>
        <pt x="62" y="0" on="1"/>
        <pt x="55" y="56" on="1"/>
        <pt x="112" y="68" on="1"/>
        <pt x="112" y="627" on="1"/>
        <pt x="55" y="632" on="1"/>
        <pt x="55" y="691" on="1"/>
        <pt x="263" y="691" on="1"/>
        <pt x="366" y="691" on="0"/>
        <pt x="424" y="638" on="1"/>
        <pt x="480" y="589" on="0"/>
      </contour>
    </TTGlyph>
    <TTGlyph name="C" xMin="40" yMin="-4" xMax="525" yMax="691">
      <contour>
        <pt x="378" y="64" on="1"/>
        <pt x="445" y="64" on="0"/>
        <pt x="500" y="99" on="1"/>
        <pt x="525" y="38" on="1"/>
        <pt x="499" y="20" on="0"/>
        <pt x="415" y="-4" on="0"/>
        <pt x="373" y="-4" on="1"/>
        <pt x="224" y="-4" on="0"/>
        <pt x="130" y="96" on="1"/>
        <pt x="40" y="192" on="0"/>
        <pt x="40" y="346" on="1"/>
        <pt x="40" y="416" on="0"/>
        <pt x="89" y="542" on="0"/>
        <pt x="133" y="589" on="1"/>
        <pt x="228" y="691" on="0"/>
        <pt x="375" y="691" on="1"/>
        <pt x="429" y="691" on="0"/>
        <pt x="492" y="678" on="1"/>
        <pt x="510" y="520" on="1"/>
        <pt x="453" y="520" on="1"/>
        <pt x="429" y="618" on="1"/>
        <pt x="421" y="619" on="0"/>
        <pt x="402" y="623" on="0"/>
        <pt x="377" y="623" on="1"/>
        <pt x="258" y="623" on="0"/>
        <pt x="183" y="539" on="1"/>
        <pt x="113" y="461" on="0"/>
        <pt x="111" y="348" on="1"/>
        <pt x="113" y="225" on="0"/>
        <pt x="180" y="148" on="1"/>
        <pt x="253" y="64" on="0"/>
      </contour>
    </TTGlyph>
    <TTGlyph name="Ccedilla" xMin="42" yMin="-236" xMax="527" yMax="691">
      <contour>
        <pt x="375" y="-4" on="1"/>
        <pt x="363" y="-3" on="1"/>
        <pt x="351" y="-41" on="1"/>
        <pt x="413" y="-49" on="0"/>
        <pt x="435" y="-96" on="1"/>
        <pt x="443" y="-113" on="0"/>
        <pt x="443" y="-136" on="1"/>
        <pt x="443" y="-180" on="0"/>
        <pt x="383" y="-236" on="0"/>
        <pt x="321" y="-236" on="1"/>
        <pt x="280" y="-236" on="0"/>
        <pt x="233" y="-216" on="1"/>
        <pt x="221" y="-212" on="1"/>
        <pt x="258" y="-141" on="1"/>
        <pt x="323" y="-181" on="1"/>
        <pt x="347" y="-181" on="0"/>
        <pt x="378" y="-157" on="0"/>
        <pt x="378" y="-121" on="0"/>
        <pt x="344" y="-90" on="0"/>
        <pt x="301" y="-90" on="1"/>
        <pt x="293" y="-90" on="1"/>
        <pt x="278" y="-74" on="1"/>
        <pt x="306" y="2" on="1"/>
        <pt x="186" y="24" on="0"/>
        <pt x="114" y="118" on="1"/>
        <pt x="42" y="211" on="0"/>
        <pt x="42" y="346" on="1"/>
        <pt x="42" y="416" on="0"/>
        <pt x="91" y="542" on="0"/>
        <pt x="135" y="589" on="1"/>
        <pt x="230" y="691" on="0"/>
        <pt x="377" y="691" on="1"/>
        <pt x="431" y="691" on="0"/>
        <pt x="494" y="678" on="1"/>
        <pt x="512" y="520" on="1"/>
        <pt x="455" y="520" on="1"/>
        <pt x="431" y="618" on="1"/>
        <pt x="423" y="619" on="0"/>
        <pt x="404" y="623" on="0"/>
        <pt x="379" y="623" on="1"/>
        <pt x="260" y="623" on="0"/>
        <pt x="184" y="539" on="1"/>
        <pt x="113" y="461" on="0"/>
        <pt x="113" y="348" on="1"/>
        <pt x="113" y="226" on="0"/>
        <pt x="182" y="148" on="1"/>
        <pt x="256" y="64" on="0"/>
        <pt x="374" y="64" on="1"/>
        <pt x="447" y="64" on="0"/>
        <pt x="502" y="99" on="1"/>
        <pt x="527" y="38" on="1"/>
        <pt x="501" y="20" on="0"/>
        <pt x="417" y="-4" on="0"/>
      </contour>
    </TTGlyph>
    <TTGlyph name="D" xMin="55" yMin="0" xMax="561" yMax="691">
      <contour>
        <pt x="55" y="56" on="1"/>
        <pt x="112" y="69" on="1"/>
        <pt x="112" y="627" on="1"/>
        <pt x="55" y="632" on="1"/>
        <pt x="55" y="691" on="1"/>
        <pt x="198" y="691" on="1"/>
        <pt x="361" y="691" on="0"/>
        <pt x="456" y="608" on="1"/>
        <pt x="561" y="516" on="0"/>
        <pt x="561" y="349" on="1"/>
        <pt x="561" y="175" on="0"/>
        <pt x="466" y="86" on="1"/>
        <pt x="376" y="0" on="0"/>
        <pt x="211" y="0" on="1"/>
        <pt x="62" y="0" on="1"/>
      </contour>
      <contour>
        <pt x="490" y="353" on="1"/>
        <pt x="490" y="409" on="0"/>
        <pt x="452" y="510" on="0"/>
        <pt x="416" y="546" on="1"/>
        <pt x="341" y="623" on="0"/>
        <pt x="208" y="623" on="1"/>
        <pt x="181" y="623" on="1"/>
        <pt x="181" y="68" on="1"/>
        <pt x="225" y="68" on="1"/>
        <pt x="369" y="68" on="0"/>
        <pt x="436" y="156" on="1"/>
        <pt x="490" y="228" on="0"/>
      </contour>
    </TTGlyph>
    <TTGlyph name="E" xMin="55" yMin="0" xMax="483" yMax="691">
      <contour>
        <pt x="55" y="632" on="1"/>
        <pt x="55" y="691" on="1"/>
        <pt x="453" y="691" on="1"/>
        <pt x="473" y="520" on="1"/>
        <pt x="425" y="520" on="1"/>
        <pt x="391" y="623" on="1"/>
        <pt x="181" y="623" on="1"/>
        <pt x="181" y="377" on="1"/>
        <pt x="343" y="377" on="1"/>
        <pt x="343" y="314" on="1"/>
        <pt x="181" y="314" on="1"/>
        <pt x="181" y="68" on="1"/>
        <pt x="401" y="68" on="1"/>
        <pt x="436" y="171" on="1"/>
        <pt x="483" y="171" on="1"/>
        <pt x="464" y="0" on="1"/>
        <pt x="62" y="0" on="1"/>
        <pt x="55" y="56" on="1"/>
        <pt x="112" y="68" on="1"/>
        <pt x="112" y="627" on="1"/>
      </contour>
    </TTGlyph>
    <TTGlyph name="Eacute" xMin="55" yMin="0" xMax="483" yMax="897">
      <contour>
        <pt x="173" y="764" on="1"/>
        <pt x="331" y="897" on="1"/>
        <pt x="361" y="890" on="1"/>
        <pt x="398" y="818" on="1"/>
        <pt x="205" y="717" on="1"/>
      </contour>
      <contour>
        <pt x="55" y="632" on="1"/>
        <pt x="55" y="691" on="1"/>
        <pt x="453" y="691" on="1"/>
        <pt x="473" y="520" on="1"/>
        <pt x="425" y="520" on="1"/>
        <pt x="391" y="623" on="1"/>
        <pt x="181" y="623" on="1"/>
        <pt x="181" y="377" on="1"/>
        <pt x="343" y="377" on="1"/>
        <pt x="343" y="314" on="1"/>
        <pt x="181" y="314" on="1"/>
        <pt x="181" y="68" on="1"/>
        <pt x="401" y="68" on="1"/>
        <pt x="436" y="171" on="1"/>
        <pt x="483" y="171" on="1"/>
        <pt x="464" y="0" on="1"/>
        <pt x="62" y="0" on="1"/>
        <pt x="55" y="56" on="1"/>
        <pt x="112" y="68" on="1"/>
        <pt x="112" y="627" on="1"/>
      </contour>
    </TTGlyph>
    <TTGlyph name="Ecircumflex" xMin="55" yMin="0" xMax="483" yMax="884">
      <contour>
        <pt x="251" y="884" on="1"/>
        <pt x="267" y="884" on="1"/>
        <pt x="408" y="727" on="1"/>
        <pt x="334" y="727" on="1"/>
        <pt x="258" y="790" on="1"/>
        <pt x="183" y="727" on="1"/>
        <pt x="109" y="727" on="1"/>
      </contour>
      <contour>
        <pt x="55" y="632" on="1"/>
        <pt x="55" y="691" on="1"/>
        <pt x="453" y="691" on="1"/>
        <pt x="473" y="520" on="1"/>
        <pt x="425" y="520" on="1"/>
        <pt x="391" y="623" on="1"/>
        <pt x="181" y="623" on="1"/>
        <pt x="181" y="377" on="1"/>
        <pt x="343" y="377" on="1"/>
        <pt x="343" y="314" on="1"/>
        <pt x="181" y="314" on="1"/>
        <pt x="181" y="68" on="1"/>
        <pt x="401" y="68" on="1"/>
        <pt x="436" y="171" on="1"/>
        <pt x="483" y="171" on="1"/>
        <pt x="464" y="0" on="1"/>
        <pt x="62" y="0" on="1"/>
        <pt x="55" y="56" on="1"/>
        <pt x="112" y="68" on="1"/>
        <pt x="112" y="627" on="1"/>
      </contour>
    </TTGlyph>
    <TTGlyph name="Edieresis" xMin="55" yMin="0" xMax="483" yMax="850">
      <contour>
        <pt x="55" y="632" on="1"/>
        <pt x="55" y="691" on="1"/>
        <pt x="453" y="691" on="1"/>
        <pt x="473" y="520" on="1"/>
        <pt x="425" y="520" on="1"/>
        <pt x="391" y="623" on="1"/>
        <pt x="181" y="623" on="1"/>
        <pt x="181" y="377" on="1"/>
        <pt x="343" y="377" on="1"/>
        <pt x="343" y="314" on="1"/>
        <pt x="181" y="314" on="1"/>
        <pt x="181" y="68" on="1"/>
        <pt x="401" y="68" on="1"/>
        <pt x="436" y="171" on="1"/>
        <pt x="483" y="171" on="1"/>
        <pt x="464" y="0" on="1"/>
        <pt x="62" y="0" on="1"/>
        <pt x="55" y="56" on="1"/>
        <pt x="112" y="68" on="1"/>
        <pt x="112" y="627" on="1"/>
      </contour>
      <contour>
        <pt x="119" y="793" on="1"/>
        <pt x="119" y="817" on="0"/>
        <pt x="152" y="850" on="0"/>
        <pt x="199" y="850" on="0"/>
        <pt x="234" y="817" on="0"/>
        <pt x="234" y="793" on="1"/>
        <pt x="234" y="769" on="0"/>
        <pt x="199" y="735" on="0"/>
        <pt x="152" y="735" on="0"/>
        <pt x="119" y="769" on="0"/>
      </contour>
      <contour>
        <pt x="295" y="793" on="1"/>
        <pt x="295" y="817" on="0"/>
        <pt x="330" y="850" on="0"/>
        <pt x="378" y="850" on="0"/>
        <pt x="410" y="817" on="0"/>
        <pt x="410" y="793" on="1"/>
        <pt x="410" y="769" on="0"/>
        <pt x="378" y="735" on="0"/>
        <pt x="330" y="735" on="0"/>
        <pt x="295" y="769" on="0"/>
      </contour>
    </TTGlyph>
    <TTGlyph name="Egrave" xMin="55" yMin="0" xMax="483" yMax="897">
      <contour>
        <pt x="328" y="717" on="1"/>
        <pt x="124" y="818" on="1"/>
        <pt x="161" y="890" on="1"/>
        <pt x="191" y="897" on="1"/>
        <pt x="359" y="764" on="1"/>
      </contour>
      <contour>
        <pt x="55" y="632" on="1"/>
        <pt x="55" y="691" on="1"/>
        <pt x="453" y="691" on="1"/>
        <pt x="473" y="520" on="1"/>
        <pt x="425" y="520" on="1"/>
        <pt x="391" y="623" on="1"/>
        <pt x="181" y="623" on="1"/>
        <pt x="181" y="377" on="1"/>
        <pt x="343" y="377" on="1"/>
        <pt x="343" y="314" on="1"/>
        <pt x="181" y="314" on="1"/>
        <pt x="181" y="68" on="1"/>
        <pt x="401" y="68" on="1"/>
        <pt x="436" y="171" on="1"/>
        <pt x="483" y="171" on="1"/>
        <pt x="464" y="0" on="1"/>
        <pt x="62" y="0" on="1"/>
        <pt x="55" y="56" on="1"/>
        <pt x="112" y="68" on="1"/>
        <pt x="112" y="627" on="1"/>
      </contour>
    </TTGlyph>
    <TTGlyph name="Eth" xMin="23" yMin="0" xMax="562" yMax="691">
      <contour>
        <pt x="56" y="56" on="1"/>
        <pt x="113" y="69" on="1"/>
        <pt x="113" y="314" on="1"/>
        <pt x="23" y="314" on="1"/>
        <pt x="23" y="369" on="1"/>
        <pt x="30" y="377" on="1"/>
        <pt x="113" y="377" on="1"/>
        <pt x="113" y="627" on="1"/>
        <pt x="56" y="632" on="1"/>
        <pt x="56" y="691" on="1"/>
        <pt x="199" y="691" on="1"/>
        <pt x="362" y="691" on="0"/>
        <pt x="458" y="608" on="1"/>
        <pt x="562" y="516" on="0"/>
        <pt x="562" y="349" on="1"/>
        <pt x="562" y="175" on="0"/>
        <pt x="467" y="86" on="1"/>
        <pt x="377" y="0" on="0"/>
        <pt x="212" y="0" on="1"/>
        <pt x="63" y="0" on="1"/>
      </contour>
      <contour>
        <pt x="491" y="353" on="1"/>
        <pt x="491" y="409" on="0"/>
        <pt x="453" y="510" on="0"/>
        <pt x="417" y="546" on="1"/>
        <pt x="342" y="623" on="0"/>
        <pt x="209" y="623" on="1"/>
        <pt x="182" y="623" on="1"/>
        <pt x="182" y="377" on="1"/>
        <pt x="350" y="377" on="1"/>
        <pt x="357" y="377" on="0"/>
        <pt x="357" y="370" on="1"/>
        <pt x="357" y="314" on="1"/>
        <pt x="182" y="314" on="1"/>
        <pt x="182" y="68" on="1"/>
        <pt x="226" y="68" on="1"/>
        <pt x="370" y="68" on="0"/>
        <pt x="437" y="156" on="1"/>
        <pt x="491" y="228" on="0"/>
      </contour>
    </TTGlyph>
    <TTGlyph name="Euro" xMin="34" yMin="-4" xMax="529" yMax="691">
      <contour>
        <pt x="504" y="99" on="1"/>
        <pt x="529" y="38" on="1"/>
        <pt x="503" y="20" on="0"/>
        <pt x="419" y="-4" on="0"/>
        <pt x="312" y="-4" on="0"/>
        <pt x="218" y="33" on="0"/>
        <pt x="186" y="66" on="1"/>
        <pt x="124" y="129" on="0"/>
        <pt x="109" y="247" on="1"/>
        <pt x="34" y="247" on="1"/>
        <pt x="34" y="310" on="1"/>
        <pt x="104" y="310" on="1"/>
        <pt x="104" y="350" on="1"/>
        <pt x="104" y="360" on="0"/>
        <pt x="105" y="371" on="1"/>
        <pt x="34" y="371" on="1"/>
        <pt x="34" y="434" on="1"/>
        <pt x="111" y="434" on="1"/>
        <pt x="140" y="619" on="0"/>
        <pt x="266" y="672" on="1"/>
        <pt x="310" y="691" on="0"/>
        <pt x="359" y="691" on="1"/>
        <pt x="441" y="691" on="0"/>
        <pt x="504" y="678" on="1"/>
        <pt x="526" y="520" on="1"/>
        <pt x="469" y="520" on="1"/>
        <pt x="441" y="618" on="1"/>
        <pt x="433" y="619" on="0"/>
        <pt x="404" y="623" on="0"/>
        <pt x="329" y="623" on="0"/>
        <pt x="263" y="594" on="0"/>
        <pt x="240" y="569" on="1"/>
        <pt x="198" y="523" on="0"/>
        <pt x="182" y="434" on="1"/>
        <pt x="457" y="434" on="1"/>
        <pt x="457" y="371" on="1"/>
        <pt x="176" y="371" on="1"/>
        <pt x="175" y="363" on="0"/>
        <pt x="175" y="354" on="1"/>
        <pt x="175" y="310" on="1"/>
        <pt x="456" y="310" on="1"/>
        <pt x="456" y="247" on="1"/>
        <pt x="181" y="247" on="1"/>
        <pt x="194" y="161" on="0"/>
        <pt x="236" y="116" on="1"/>
        <pt x="285" y="64" on="0"/>
        <pt x="449" y="64" on="0"/>
      </contour>
    </TTGlyph>
    <TTGlyph name="F" xMin="55" yMin="0" xMax="474" yMax="691">
      <contour>
        <pt x="328" y="0" on="1"/>
        <pt x="61" y="0" on="1"/>
        <pt x="55" y="56" on="1"/>
        <pt x="112" y="68" on="1"/>
        <pt x="112" y="627" on="1"/>
        <pt x="55" y="632" on="1"/>
        <pt x="55" y="691" on="1"/>
        <pt x="453" y="691" on="1"/>
        <pt x="474" y="520" on="1"/>
        <pt x="426" y="520" on="1"/>
        <pt x="391" y="624" on="1"/>
        <pt x="181" y="624" on="1"/>
        <pt x="181" y="377" on="1"/>
        <pt x="343" y="377" on="1"/>
        <pt x="343" y="314" on="1"/>
        <pt x="181" y="314" on="1"/>
        <pt x="181" y="72" on="1"/>
        <pt x="333" y="51" on="1"/>
      </contour>
    </TTGlyph>
    <TTGlyph name="G" xMin="40" yMin="-4" xMax="544" yMax="691">
      <contour>
        <pt x="226" y="104" on="0"/>
        <pt x="329" y="64" on="0"/>
        <pt x="443" y="64" on="0"/>
        <pt x="475" y="71" on="1"/>
        <pt x="475" y="238" on="1"/>
        <pt x="352" y="252" on="1"/>
        <pt x="370" y="313" on="1"/>
        <pt x="544" y="313" on="1"/>
        <pt x="544" y="17" on="1"/>
        <pt x="473" y="-4" on="0"/>
        <pt x="311" y="-4" on="0"/>
        <pt x="184" y="47" on="0"/>
        <pt x="138" y="92" on="1"/>
        <pt x="40" y="189" on="0"/>
        <pt x="40" y="340" on="1"/>
        <pt x="40" y="496" on="0"/>
        <pt x="134" y="592" on="1"/>
        <pt x="231" y="691" on="0"/>
        <pt x="386" y="691" on="1"/>
        <pt x="453" y="691" on="0"/>
        <pt x="525" y="673" on="1"/>
        <pt x="536" y="519" on="1"/>
        <pt x="473" y="519" on="1"/>
        <pt x="450" y="618" on="1"/>
        <pt x="412" y="623" on="0"/>
        <pt x="381" y="623" on="1"/>
        <pt x="255" y="623" on="0"/>
        <pt x="180" y="541" on="1"/>
        <pt x="111" y="464" on="0"/>
        <pt x="111" y="343" on="1"/>
        <pt x="111" y="219" on="0"/>
        <pt x="189" y="141" on="1"/>
      </contour>
    </TTGlyph>
    <TTGlyph name="H" xMin="54" yMin="0" xMax="602" yMax="691">
      <contour>
        <pt x="476" y="64" on="1"/>
        <pt x="476" y="324" on="1"/>
        <pt x="180" y="324" on="1"/>
        <pt x="180" y="64" on="1"/>
        <pt x="238" y="60" on="1"/>
        <pt x="238" y="0" on="1"/>
        <pt x="62" y="0" on="1"/>
        <pt x="57" y="56" on="1"/>
        <pt x="112" y="64" on="1"/>
        <pt x="112" y="627" on="1"/>
        <pt x="54" y="631" on="1"/>
        <pt x="54" y="691" on="1"/>
        <pt x="231" y="691" on="1"/>
        <pt x="235" y="635" on="1"/>
        <pt x="180" y="627" on="1"/>
        <pt x="180" y="387" on="1"/>
        <pt x="476" y="387" on="1"/>
        <pt x="476" y="627" on="1"/>
        <pt x="418" y="631" on="1"/>
        <pt x="418" y="691" on="1"/>
        <pt x="594" y="691" on="1"/>
        <pt x="599" y="635" on="1"/>
        <pt x="544" y="627" on="1"/>
        <pt x="544" y="64" on="1"/>
        <pt x="602" y="60" on="1"/>
        <pt x="602" y="0" on="1"/>
        <pt x="425" y="0" on="1"/>
        <pt x="421" y="56" on="1"/>
      </contour>
    </TTGlyph>
    <TTGlyph name="I" xMin="55" yMin="0" xMax="238" yMax="691">
      <contour>
        <pt x="112" y="64" on="1"/>
        <pt x="112" y="627" on="1"/>
        <pt x="55" y="631" on="1"/>
        <pt x="55" y="691" on="1"/>
        <pt x="231" y="691" on="1"/>
        <pt x="235" y="635" on="1"/>
        <pt x="181" y="627" on="1"/>
        <pt x="181" y="64" on="1"/>
        <pt x="238" y="60" on="1"/>
        <pt x="238" y="0" on="1"/>
        <pt x="62" y="0" on="1"/>
        <pt x="58" y="56" on="1"/>
      </contour>
    </TTGlyph>
    <TTGlyph name="Iacute" xMin="37" yMin="0" xMax="261" yMax="897">
      <contour>
        <pt x="37" y="764" on="1"/>
        <pt x="194" y="897" on="1"/>
        <pt x="225" y="890" on="1"/>
        <pt x="261" y="818" on="1"/>
        <pt x="68" y="717" on="1"/>
      </contour>
      <contour>
        <pt x="112" y="64" on="1"/>
        <pt x="112" y="627" on="1"/>
        <pt x="55" y="631" on="1"/>
        <pt x="55" y="691" on="1"/>
        <pt x="231" y="691" on="1"/>
        <pt x="235" y="635" on="1"/>
        <pt x="181" y="627" on="1"/>
        <pt x="181" y="64" on="1"/>
        <pt x="238" y="60" on="1"/>
        <pt x="238" y="0" on="1"/>
        <pt x="62" y="0" on="1"/>
        <pt x="58" y="56" on="1"/>
      </contour>
    </TTGlyph>
    <TTGlyph name="Icircumflex" xMin="-1" yMin="0" xMax="297" yMax="884">
      <contour>
        <pt x="141" y="884" on="1"/>
        <pt x="157" y="884" on="1"/>
        <pt x="297" y="727" on="1"/>
        <pt x="224" y="727" on="1"/>
        <pt x="148" y="790" on="1"/>
        <pt x="73" y="727" on="1"/>
        <pt x="-1" y="727" on="1"/>
      </contour>
      <contour>
        <pt x="112" y="64" on="1"/>
        <pt x="112" y="627" on="1"/>
        <pt x="55" y="631" on="1"/>
        <pt x="55" y="691" on="1"/>
        <pt x="231" y="691" on="1"/>
        <pt x="235" y="635" on="1"/>
        <pt x="181" y="627" on="1"/>
        <pt x="181" y="64" on="1"/>
        <pt x="238" y="60" on="1"/>
        <pt x="238" y="0" on="1"/>
        <pt x="62" y="0" on="1"/>
        <pt x="58" y="56" on="1"/>
      </contour>
    </TTGlyph>
    <TTGlyph name="Idieresis" xMin="20" yMin="0" xMax="279" yMax="850">
      <contour>
        <pt x="52" y="735" on="0"/>
        <pt x="20" y="769" on="0"/>
        <pt x="20" y="816" on="0"/>
        <pt x="52" y="850" on="0"/>
        <pt x="76" y="850" on="1"/>
        <pt x="100" y="850" on="0"/>
        <pt x="134" y="816" on="0"/>
        <pt x="134" y="769" on="0"/>
        <pt x="100" y="735" on="0"/>
        <pt x="76" y="735" on="1"/>
      </contour>
      <contour>
        <pt x="199" y="735" on="0"/>
        <pt x="165" y="769" on="0"/>
        <pt x="165" y="816" on="0"/>
        <pt x="199" y="850" on="0"/>
        <pt x="223" y="850" on="1"/>
        <pt x="247" y="850" on="0"/>
        <pt x="279" y="816" on="0"/>
        <pt x="279" y="769" on="0"/>
        <pt x="247" y="735" on="0"/>
        <pt x="223" y="735" on="1"/>
      </contour>
      <contour>
        <pt x="112" y="64" on="1"/>
        <pt x="112" y="627" on="1"/>
        <pt x="55" y="631" on="1"/>
        <pt x="55" y="691" on="1"/>
        <pt x="231" y="691" on="1"/>
        <pt x="235" y="635" on="1"/>
        <pt x="181" y="627" on="1"/>
        <pt x="181" y="64" on="1"/>
        <pt x="238" y="60" on="1"/>
        <pt x="238" y="0" on="1"/>
        <pt x="62" y="0" on="1"/>
        <pt x="58" y="56" on="1"/>
      </contour>
    </TTGlyph>
    <TTGlyph name="Igrave" xMin="40" yMin="0" xMax="275" yMax="897">
      <contour>
        <pt x="243" y="717" on="1"/>
        <pt x="40" y="818" on="1"/>
        <pt x="76" y="890" on="1"/>
        <pt x="107" y="897" on="1"/>
        <pt x="275" y="764" on="1"/>
      </contour>
      <contour>
        <pt x="112" y="64" on="1"/>
        <pt x="112" y="627" on="1"/>
        <pt x="55" y="631" on="1"/>
        <pt x="55" y="691" on="1"/>
        <pt x="231" y="691" on="1"/>
        <pt x="235" y="635" on="1"/>
        <pt x="181" y="627" on="1"/>
        <pt x="181" y="64" on="1"/>
        <pt x="238" y="60" on="1"/>
        <pt x="238" y="0" on="1"/>
        <pt x="62" y="0" on="1"/>
        <pt x="58" y="56" on="1"/>
      </contour>
    </TTGlyph>
    <TTGlyph name="J" xMin="11" yMin="-4" xMax="315" yMax="691">
      <contour>
        <pt x="50" y="102" on="1"/>
        <pt x="90" y="62" on="0"/>
        <pt x="138" y="62" on="1"/>
        <pt x="159" y="62" on="0"/>
        <pt x="189" y="89" on="0"/>
        <pt x="189" y="123" on="1"/>
        <pt x="189" y="627" on="1"/>
        <pt x="116" y="635" on="1"/>
        <pt x="122" y="691" on="1"/>
        <pt x="315" y="691" on="1"/>
        <pt x="315" y="631" on="1"/>
        <pt x="257" y="627" on="1"/>
        <pt x="257" y="144" on="1"/>
        <pt x="257" y="51" on="0"/>
        <pt x="207" y="16" on="1"/>
        <pt x="178" y="-4" on="0"/>
        <pt x="139" y="-4" on="1"/>
        <pt x="66" y="-4" on="0"/>
        <pt x="11" y="44" on="1"/>
      </contour>
    </TTGlyph>
    <TTGlyph name="K" xMin="55" yMin="0" xMax="577" yMax="691">
      <contour>
        <pt x="112" y="64" on="1"/>
        <pt x="112" y="627" on="1"/>
        <pt x="55" y="631" on="1"/>
        <pt x="55" y="691" on="1"/>
        <pt x="231" y="691" on="1"/>
        <pt x="235" y="635" on="1"/>
        <pt x="181" y="627" on="1"/>
        <pt x="181" y="286" on="1"/>
        <pt x="461" y="631" on="1"/>
        <pt x="382" y="637" on="1"/>
        <pt x="382" y="691" on="1"/>
        <pt x="572" y="691" on="1"/>
        <pt x="572" y="635" on="1"/>
        <pt x="538" y="628" on="1"/>
        <pt x="338" y="381" on="1"/>
        <pt x="517" y="66" on="1"/>
        <pt x="577" y="57" on="1"/>
        <pt x="577" y="0" on="1"/>
        <pt x="471" y="0" on="1"/>
        <pt x="291" y="323" on="1"/>
        <pt x="181" y="187" on="1"/>
        <pt x="181" y="64" on="1"/>
        <pt x="238" y="60" on="1"/>
        <pt x="238" y="0" on="1"/>
        <pt x="62" y="0" on="1"/>
        <pt x="58" y="56" on="1"/>
      </contour>
    </TTGlyph>
    <TTGlyph name="L" xMin="54" yMin="0" xMax="482" yMax="691">
      <contour>
        <pt x="54" y="631" on="1"/>
        <pt x="54" y="691" on="1"/>
        <pt x="240" y="691" on="1"/>
        <pt x="244" y="635" on="1"/>
        <pt x="180" y="627" on="1"/>
        <pt x="180" y="68" on="1"/>
        <pt x="400" y="68" on="1"/>
        <pt x="435" y="171" on="1"/>
        <pt x="482" y="171" on="1"/>
        <pt x="463" y="0" on="1"/>
        <pt x="61" y="0" on="1"/>
        <pt x="54" y="56" on="1"/>
        <pt x="111" y="64" on="1"/>
        <pt x="111" y="627" on="1"/>
      </contour>
    </TTGlyph>
    <TTGlyph name="M" xMin="54" yMin="0" xMax="780" yMax="691">
      <contour>
        <pt x="226" y="691" on="1"/>
        <pt x="421" y="87" on="1"/>
        <pt x="608" y="691" on="1"/>
        <pt x="766" y="691" on="1"/>
        <pt x="772" y="631" on="1"/>
        <pt x="720" y="626" on="1"/>
        <pt x="720" y="67" on="1"/>
        <pt x="780" y="55" on="1"/>
        <pt x="780" y="0" on="1"/>
        <pt x="600" y="0" on="1"/>
        <pt x="595" y="55" on="1"/>
        <pt x="651" y="68" on="1"/>
        <pt x="651" y="636" on="1"/>
        <pt x="458" y="15" on="1"/>
        <pt x="371" y="15" on="1"/>
        <pt x="175" y="623" on="1"/>
        <pt x="175" y="66" on="1"/>
        <pt x="238" y="56" on="1"/>
        <pt x="238" y="0" on="1"/>
        <pt x="62" y="0" on="1"/>
        <pt x="54" y="56" on="1"/>
        <pt x="112" y="68" on="1"/>
        <pt x="112" y="627" on="1"/>
        <pt x="55" y="632" on="1"/>
        <pt x="55" y="691" on="1"/>
      </contour>
    </TTGlyph>
    <TTGlyph name="N" xMin="54" yMin="0" xMax="615" yMax="691">
      <contour>
        <pt x="174" y="629" on="1"/>
        <pt x="174" y="66" on="1"/>
        <pt x="241" y="56" on="1"/>
        <pt x="241" y="0" on="1"/>
        <pt x="62" y="0" on="1"/>
        <pt x="54" y="56" on="1"/>
        <pt x="112" y="68" on="1"/>
        <pt x="112" y="627" on="1"/>
        <pt x="54" y="632" on="1"/>
        <pt x="54" y="691" on="1"/>
        <pt x="221" y="691" on="1"/>
        <pt x="491" y="75" on="1"/>
        <pt x="491" y="625" on="1"/>
        <pt x="427" y="635" on="1"/>
        <pt x="427" y="691" on="1"/>
        <pt x="605" y="691" on="1"/>
        <pt x="615" y="635" on="1"/>
        <pt x="554" y="623" on="1"/>
        <pt x="554" y="0" on="1"/>
        <pt x="449" y="0" on="1"/>
      </contour>
    </TTGlyph>
    <TTGlyph name="Ntilde" xMin="54" yMin="0" xMax="615" yMax="842">
      <contour>
        <pt x="504" y="770" on="1"/>
        <pt x="455" y="727" on="0"/>
        <pt x="420" y="727" on="1"/>
        <pt x="397" y="727" on="0"/>
        <pt x="365" y="743" on="0"/>
        <pt x="335" y="762" on="0"/>
        <pt x="303" y="778" on="0"/>
        <pt x="249" y="778" on="0"/>
        <pt x="217" y="747" on="0"/>
        <pt x="206" y="729" on="1"/>
        <pt x="169" y="760" on="1"/>
        <pt x="169" y="776" on="1"/>
        <pt x="189" y="816" on="0"/>
        <pt x="234" y="834" on="1"/>
        <pt x="254" y="842" on="0"/>
        <pt x="320" y="842" on="0"/>
        <pt x="373" y="808" on="0"/>
        <pt x="405" y="786" on="1"/>
        <pt x="467" y="836" on="1"/>
      </contour>
      <contour>
        <pt x="174" y="629" on="1"/>
        <pt x="174" y="66" on="1"/>
        <pt x="241" y="56" on="1"/>
        <pt x="241" y="0" on="1"/>
        <pt x="62" y="0" on="1"/>
        <pt x="54" y="56" on="1"/>
        <pt x="112" y="68" on="1"/>
        <pt x="112" y="627" on="1"/>
        <pt x="54" y="632" on="1"/>
        <pt x="54" y="691" on="1"/>
        <pt x="221" y="691" on="1"/>
        <pt x="491" y="75" on="1"/>
        <pt x="491" y="625" on="1"/>
        <pt x="427" y="635" on="1"/>
        <pt x="427" y="691" on="1"/>
        <pt x="605" y="691" on="1"/>
        <pt x="615" y="635" on="1"/>
        <pt x="554" y="623" on="1"/>
        <pt x="554" y="0" on="1"/>
        <pt x="449" y="0" on="1"/>
      </contour>
    </TTGlyph>
    <TTGlyph name="O" xMin="50" yMin="-4" xMax="595" yMax="691">
      <contour>
        <pt x="323" y="-4" on="1"/>
        <pt x="190" y="-4" on="0"/>
        <pt x="116" y="106" on="1"/>
        <pt x="50" y="203" on="0"/>
        <pt x="50" y="343" on="1"/>
        <pt x="50" y="483" on="0"/>
        <pt x="116" y="580" on="1"/>
        <pt x="149" y="629" on="0"/>
        <pt x="252" y="691" on="0"/>
        <pt x="323" y="691" on="1"/>
        <pt x="394" y="691" on="0"/>
        <pt x="497" y="629" on="0"/>
        <pt x="530" y="580" on="1"/>
        <pt x="595" y="482" on="0"/>
        <pt x="595" y="343" on="1"/>
        <pt x="595" y="204" on="0"/>
        <pt x="530" y="106" on="1"/>
        <pt x="497" y="57" on="0"/>
        <pt x="394" y="-4" on="0"/>
      </contour>
      <contour>
        <pt x="121" y="341" on="1"/>
        <pt x="121" y="227" on="0"/>
        <pt x="167" y="152" on="1"/>
        <pt x="220" y="64" on="0"/>
        <pt x="323" y="64" on="1"/>
        <pt x="425" y="64" on="0"/>
        <pt x="478" y="152" on="1"/>
        <pt x="524" y="227" on="0"/>
        <pt x="524" y="341" on="1"/>
        <pt x="524" y="456" on="0"/>
        <pt x="478" y="533" on="1"/>
        <pt x="424" y="623" on="0"/>
        <pt x="323" y="623" on="1"/>
        <pt x="221" y="623" on="0"/>
        <pt x="167" y="533" on="1"/>
        <pt x="121" y="456" on="0"/>
      </contour>
    </TTGlyph>
    <TTGlyph name="OE" xMin="48" yMin="-4" xMax="818" yMax="695">
      <contour>
        <pt x="387" y="0" on="1"/>
        <pt x="359" y="-4" on="0"/>
        <pt x="331" y="-4" on="1"/>
        <pt x="195" y="-4" on="0"/>
        <pt x="117" y="106" on="1"/>
        <pt x="48" y="204" on="0"/>
        <pt x="48" y="343" on="1"/>
        <pt x="48" y="404" on="0"/>
        <pt x="83" y="530" on="0"/>
        <pt x="152" y="631" on="0"/>
        <pt x="255" y="695" on="0"/>
        <pt x="323" y="695" on="1"/>
        <pt x="335" y="695" on="1"/>
        <pt x="369" y="695" on="0"/>
        <pt x="397" y="691" on="1"/>
        <pt x="788" y="691" on="1"/>
        <pt x="808" y="520" on="1"/>
        <pt x="760" y="520" on="1"/>
        <pt x="726" y="623" on="1"/>
        <pt x="516" y="623" on="1"/>
        <pt x="516" y="377" on="1"/>
        <pt x="688" y="377" on="1"/>
        <pt x="688" y="314" on="1"/>
        <pt x="516" y="314" on="1"/>
        <pt x="516" y="68" on="1"/>
        <pt x="736" y="68" on="1"/>
        <pt x="771" y="171" on="1"/>
        <pt x="818" y="171" on="1"/>
        <pt x="799" y="0" on="1"/>
      </contour>
      <contour>
        <pt x="196" y="112" on="0"/>
        <pt x="276" y="64" on="0"/>
        <pt x="405" y="64" on="0"/>
        <pt x="447" y="102" on="1"/>
        <pt x="447" y="591" on="1"/>
        <pt x="424" y="611" on="0"/>
        <pt x="372" y="624" on="0"/>
        <pt x="285" y="624" on="0"/>
        <pt x="204" y="574" on="0"/>
        <pt x="176" y="534" on="1"/>
        <pt x="119" y="449" on="0"/>
        <pt x="119" y="341" on="1"/>
        <pt x="119" y="229" on="0"/>
        <pt x="170" y="152" on="1"/>
      </contour>
    </TTGlyph>
    <TTGlyph name="Oacute" xMin="50" yMin="-4" xMax="595" yMax="897">
      <contour>
        <pt x="208" y="764" on="1"/>
        <pt x="366" y="897" on="1"/>
        <pt x="396" y="890" on="1"/>
        <pt x="433" y="818" on="1"/>
        <pt x="240" y="717" on="1"/>
      </contour>
      <contour>
        <pt x="323" y="-4" on="1"/>
        <pt x="190" y="-4" on="0"/>
        <pt x="116" y="106" on="1"/>
        <pt x="50" y="203" on="0"/>
        <pt x="50" y="343" on="1"/>
        <pt x="50" y="483" on="0"/>
        <pt x="116" y="580" on="1"/>
        <pt x="149" y="629" on="0"/>
        <pt x="252" y="691" on="0"/>
        <pt x="323" y="691" on="1"/>
        <pt x="394" y="691" on="0"/>
        <pt x="497" y="629" on="0"/>
        <pt x="530" y="580" on="1"/>
        <pt x="595" y="482" on="0"/>
        <pt x="595" y="343" on="1"/>
        <pt x="595" y="204" on="0"/>
        <pt x="530" y="106" on="1"/>
        <pt x="497" y="57" on="0"/>
        <pt x="394" y="-4" on="0"/>
      </contour>
      <contour>
        <pt x="121" y="341" on="1"/>
        <pt x="121" y="227" on="0"/>
        <pt x="167" y="152" on="1"/>
        <pt x="220" y="64" on="0"/>
        <pt x="323" y="64" on="1"/>
        <pt x="425" y="64" on="0"/>
        <pt x="478" y="152" on="1"/>
        <pt x="524" y="227" on="0"/>
        <pt x="524" y="341" on="1"/>
        <pt x="524" y="456" on="0"/>
        <pt x="478" y="533" on="1"/>
        <pt x="424" y="623" on="0"/>
        <pt x="323" y="623" on="1"/>
        <pt x="221" y="623" on="0"/>
        <pt x="167" y="533" on="1"/>
        <pt x="121" y="456" on="0"/>
      </contour>
    </TTGlyph>
    <TTGlyph name="Ocircumflex" xMin="50" yMin="-4" xMax="595" yMax="884">
      <contour>
        <pt x="307" y="884" on="1"/>
        <pt x="323" y="884" on="1"/>
        <pt x="464" y="727" on="1"/>
        <pt x="390" y="727" on="1"/>
        <pt x="314" y="790" on="1"/>
        <pt x="239" y="727" on="1"/>
        <pt x="165" y="727" on="1"/>
      </contour>
      <contour>
        <pt x="323" y="-4" on="1"/>
        <pt x="190" y="-4" on="0"/>
        <pt x="116" y="106" on="1"/>
        <pt x="50" y="203" on="0"/>
        <pt x="50" y="343" on="1"/>
        <pt x="50" y="483" on="0"/>
        <pt x="116" y="580" on="1"/>
        <pt x="149" y="629" on="0"/>
        <pt x="252" y="691" on="0"/>
        <pt x="323" y="691" on="1"/>
        <pt x="394" y="691" on="0"/>
        <pt x="497" y="629" on="0"/>
        <pt x="530" y="580" on="1"/>
        <pt x="595" y="482" on="0"/>
        <pt x="595" y="343" on="1"/>
        <pt x="595" y="204" on="0"/>
        <pt x="530" y="106" on="1"/>
        <pt x="497" y="57" on="0"/>
        <pt x="394" y="-4" on="0"/>
      </contour>
      <contour>
        <pt x="121" y="341" on="1"/>
        <pt x="121" y="227" on="0"/>
        <pt x="167" y="152" on="1"/>
        <pt x="220" y="64" on="0"/>
        <pt x="323" y="64" on="1"/>
        <pt x="425" y="64" on="0"/>
        <pt x="478" y="152" on="1"/>
        <pt x="524" y="227" on="0"/>
        <pt x="524" y="341" on="1"/>
        <pt x="524" y="456" on="0"/>
        <pt x="478" y="533" on="1"/>
        <pt x="424" y="623" on="0"/>
        <pt x="323" y="623" on="1"/>
        <pt x="221" y="623" on="0"/>
        <pt x="167" y="533" on="1"/>
        <pt x="121" y="456" on="0"/>
      </contour>
    </TTGlyph>
    <TTGlyph name="Odieresis" xMin="50" yMin="-4" xMax="595" yMax="850">
      <contour>
        <pt x="323" y="-4" on="1"/>
        <pt x="190" y="-4" on="0"/>
        <pt x="116" y="106" on="1"/>
        <pt x="50" y="203" on="0"/>
        <pt x="50" y="343" on="1"/>
        <pt x="50" y="483" on="0"/>
        <pt x="116" y="580" on="1"/>
        <pt x="149" y="629" on="0"/>
        <pt x="252" y="691" on="0"/>
        <pt x="323" y="691" on="1"/>
        <pt x="394" y="691" on="0"/>
        <pt x="497" y="629" on="0"/>
        <pt x="530" y="580" on="1"/>
        <pt x="595" y="482" on="0"/>
        <pt x="595" y="343" on="1"/>
        <pt x="595" y="204" on="0"/>
        <pt x="530" y="106" on="1"/>
        <pt x="497" y="57" on="0"/>
        <pt x="394" y="-4" on="0"/>
      </contour>
      <contour>
        <pt x="121" y="341" on="1"/>
        <pt x="121" y="227" on="0"/>
        <pt x="167" y="152" on="1"/>
        <pt x="220" y="64" on="0"/>
        <pt x="323" y="64" on="1"/>
        <pt x="425" y="64" on="0"/>
        <pt x="478" y="152" on="1"/>
        <pt x="524" y="227" on="0"/>
        <pt x="524" y="341" on="1"/>
        <pt x="524" y="456" on="0"/>
        <pt x="478" y="533" on="1"/>
        <pt x="424" y="623" on="0"/>
        <pt x="323" y="623" on="1"/>
        <pt x="221" y="623" on="0"/>
        <pt x="167" y="533" on="1"/>
        <pt x="121" y="456" on="0"/>
      </contour>
      <contour>
        <pt x="187" y="793" on="1"/>
        <pt x="187" y="817" on="0"/>
        <pt x="220" y="850" on="0"/>
        <pt x="267" y="850" on="0"/>
        <pt x="302" y="817" on="0"/>
        <pt x="302" y="793" on="1"/>
        <pt x="302" y="769" on="0"/>
        <pt x="267" y="735" on="0"/>
        <pt x="220" y="735" on="0"/>
        <pt x="187" y="769" on="0"/>
      </contour>
      <contour>
        <pt x="363" y="793" on="1"/>
        <pt x="363" y="817" on="0"/>
        <pt x="398" y="850" on="0"/>
        <pt x="446" y="850" on="0"/>
        <pt x="478" y="817" on="0"/>
        <pt x="478" y="793" on="1"/>
        <pt x="478" y="769" on="0"/>
        <pt x="446" y="735" on="0"/>
        <pt x="398" y="735" on="0"/>
        <pt x="363" y="769" on="0"/>
      </contour>
    </TTGlyph>
    <TTGlyph name="Ograve" xMin="50" yMin="-4" xMax="595" yMax="897">
      <contour>
        <pt x="415" y="717" on="1"/>
        <pt x="212" y="818" on="1"/>
        <pt x="248" y="890" on="1"/>
        <pt x="279" y="897" on="1"/>
        <pt x="447" y="764" on="1"/>
      </contour>
      <contour>
        <pt x="323" y="-4" on="1"/>
        <pt x="190" y="-4" on="0"/>
        <pt x="116" y="106" on="1"/>
        <pt x="50" y="203" on="0"/>
        <pt x="50" y="343" on="1"/>
        <pt x="50" y="483" on="0"/>
        <pt x="116" y="580" on="1"/>
        <pt x="149" y="629" on="0"/>
        <pt x="252" y="691" on="0"/>
        <pt x="323" y="691" on="1"/>
        <pt x="394" y="691" on="0"/>
        <pt x="497" y="629" on="0"/>
        <pt x="530" y="580" on="1"/>
        <pt x="595" y="482" on="0"/>
        <pt x="595" y="343" on="1"/>
        <pt x="595" y="204" on="0"/>
        <pt x="530" y="106" on="1"/>
        <pt x="497" y="57" on="0"/>
        <pt x="394" y="-4" on="0"/>
      </contour>
      <contour>
        <pt x="121" y="341" on="1"/>
        <pt x="121" y="227" on="0"/>
        <pt x="167" y="152" on="1"/>
        <pt x="220" y="64" on="0"/>
        <pt x="323" y="64" on="1"/>
        <pt x="425" y="64" on="0"/>
        <pt x="478" y="152" on="1"/>
        <pt x="524" y="227" on="0"/>
        <pt x="524" y="341" on="1"/>
        <pt x="524" y="456" on="0"/>
        <pt x="478" y="533" on="1"/>
        <pt x="424" y="623" on="0"/>
        <pt x="323" y="623" on="1"/>
        <pt x="221" y="623" on="0"/>
        <pt x="167" y="533" on="1"/>
        <pt x="121" y="456" on="0"/>
      </contour>
    </TTGlyph>
    <TTGlyph name="Oslash" xMin="50" yMin="-42" xMax="595" yMax="745">
      <contour>
        <pt x="149" y="629" on="0"/>
        <pt x="252" y="691" on="0"/>
        <pt x="383" y="691" on="0"/>
        <pt x="433" y="666" on="1"/>
        <pt x="472" y="745" on="1"/>
        <pt x="539" y="745" on="1"/>
        <pt x="538" y="731" on="1"/>
        <pt x="488" y="629" on="1"/>
        <pt x="543" y="578" on="0"/>
        <pt x="595" y="424" on="0"/>
        <pt x="595" y="280" on="0"/>
        <pt x="563" y="156" on="0"/>
        <pt x="497" y="57" on="0"/>
        <pt x="394" y="-4" on="0"/>
        <pt x="249" y="-4" on="0"/>
        <pt x="193" y="30" on="1"/>
        <pt x="158" y="-42" on="1"/>
        <pt x="94" y="-42" on="1"/>
        <pt x="91" y="-29" on="1"/>
        <pt x="141" y="73" on="1"/>
        <pt x="94" y="124" on="0"/>
        <pt x="50" y="269" on="0"/>
        <pt x="50" y="406" on="0"/>
        <pt x="82" y="530" on="0"/>
      </contour>
      <contour>
        <pt x="224" y="92" on="1"/>
        <pt x="264" y="64" on="0"/>
        <pt x="378" y="64" on="0"/>
        <pt x="454" y="112" on="0"/>
        <pt x="478" y="152" on="1"/>
        <pt x="524" y="227" on="0"/>
        <pt x="524" y="341" on="1"/>
        <pt x="524" y="485" on="0"/>
        <pt x="456" y="564" on="1"/>
      </contour>
      <contour>
        <pt x="403" y="605" on="1"/>
        <pt x="365" y="623" on="0"/>
        <pt x="268" y="623" on="0"/>
        <pt x="191" y="573" on="0"/>
        <pt x="167" y="533" on="1"/>
        <pt x="121" y="456" on="0"/>
        <pt x="121" y="341" on="1"/>
        <pt x="121" y="218" on="0"/>
        <pt x="174" y="140" on="1"/>
      </contour>
    </TTGlyph>
    <TTGlyph name="Otilde" xMin="50" yMin="-4" xMax="595" yMax="842">
      <contour>
        <pt x="499" y="770" on="1"/>
        <pt x="450" y="727" on="0"/>
        <pt x="415" y="727" on="1"/>
        <pt x="392" y="727" on="0"/>
        <pt x="360" y="743" on="0"/>
        <pt x="330" y="762" on="0"/>
        <pt x="298" y="778" on="0"/>
        <pt x="244" y="778" on="0"/>
        <pt x="212" y="747" on="0"/>
        <pt x="201" y="729" on="1"/>
        <pt x="164" y="760" on="1"/>
        <pt x="164" y="776" on="1"/>
        <pt x="184" y="816" on="0"/>
        <pt x="229" y="834" on="1"/>
        <pt x="249" y="842" on="0"/>
        <pt x="315" y="842" on="0"/>
        <pt x="368" y="808" on="0"/>
        <pt x="400" y="786" on="1"/>
        <pt x="462" y="836" on="1"/>
      </contour>
      <contour>
        <pt x="323" y="-4" on="1"/>
        <pt x="190" y="-4" on="0"/>
        <pt x="116" y="106" on="1"/>
        <pt x="50" y="203" on="0"/>
        <pt x="50" y="343" on="1"/>
        <pt x="50" y="483" on="0"/>
        <pt x="116" y="580" on="1"/>
        <pt x="149" y="629" on="0"/>
        <pt x="252" y="691" on="0"/>
        <pt x="323" y="691" on="1"/>
        <pt x="394" y="691" on="0"/>
        <pt x="497" y="629" on="0"/>
        <pt x="530" y="580" on="1"/>
        <pt x="595" y="482" on="0"/>
        <pt x="595" y="343" on="1"/>
        <pt x="595" y="204" on="0"/>
        <pt x="530" y="106" on="1"/>
        <pt x="497" y="57" on="0"/>
        <pt x="394" y="-4" on="0"/>
      </contour>
      <contour>
        <pt x="121" y="341" on="1"/>
        <pt x="121" y="227" on="0"/>
        <pt x="167" y="152" on="1"/>
        <pt x="220" y="64" on="0"/>
        <pt x="323" y="64" on="1"/>
        <pt x="425" y="64" on="0"/>
        <pt x="478" y="152" on="1"/>
        <pt x="524" y="227" on="0"/>
        <pt x="524" y="341" on="1"/>
        <pt x="524" y="456" on="0"/>
        <pt x="478" y="533" on="1"/>
        <pt x="424" y="623" on="0"/>
        <pt x="323" y="623" on="1"/>
        <pt x="221" y="623" on="0"/>
        <pt x="167" y="533" on="1"/>
        <pt x="121" y="456" on="0"/>
      </contour>
    </TTGlyph>
    <TTGlyph name="P" xMin="55" yMin="0" xMax="494" yMax="691">
      <contour>
        <pt x="235" y="332" on="1"/>
        <pt x="344" y="332" on="0"/>
        <pt x="388" y="378" on="1"/>
        <pt x="423" y="413" on="0"/>
        <pt x="423" y="480" on="1"/>
        <pt x="423" y="551" on="0"/>
        <pt x="372" y="588" on="1"/>
        <pt x="325" y="623" on="0"/>
        <pt x="245" y="623" on="1"/>
        <pt x="181" y="623" on="1"/>
        <pt x="181" y="332" on="1"/>
      </contour>
      <contour>
        <pt x="55" y="55" on="1"/>
        <pt x="112" y="68" on="1"/>
        <pt x="112" y="627" on="1"/>
        <pt x="55" y="632" on="1"/>
        <pt x="55" y="691" on="1"/>
        <pt x="219" y="691" on="1"/>
        <pt x="368" y="691" on="0"/>
        <pt x="438" y="623" on="1"/>
        <pt x="494" y="569" on="0"/>
        <pt x="494" y="481" on="1"/>
        <pt x="494" y="372" on="0"/>
        <pt x="416" y="315" on="1"/>
        <pt x="346" y="264" on="0"/>
        <pt x="238" y="264" on="1"/>
        <pt x="181" y="264" on="1"/>
        <pt x="181" y="70" on="1"/>
        <pt x="321" y="51" on="1"/>
        <pt x="321" y="0" on="1"/>
        <pt x="62" y="0" on="1"/>
      </contour>
    </TTGlyph>
    <TTGlyph name="Q" xMin="50" yMin="-191" xMax="600" yMax="691">
      <contour>
        <pt x="417" y="-191" on="1"/>
        <pt x="334" y="-124" on="0"/>
        <pt x="260" y="-56" on="1"/>
        <pt x="283" y="-29" on="1"/>
        <pt x="496" y="-102" on="1"/>
        <pt x="501" y="-130" on="1"/>
      </contour>
      <contour>
        <pt x="325" y="-4" on="1"/>
        <pt x="192" y="-4" on="0"/>
        <pt x="116" y="106" on="1"/>
        <pt x="50" y="203" on="0"/>
        <pt x="50" y="343" on="1"/>
        <pt x="50" y="483" on="0"/>
        <pt x="116" y="580" on="1"/>
        <pt x="150" y="629" on="0"/>
        <pt x="254" y="691" on="0"/>
        <pt x="325" y="691" on="1"/>
        <pt x="396" y="691" on="0"/>
        <pt x="500" y="629" on="0"/>
        <pt x="534" y="580" on="1"/>
        <pt x="600" y="481" on="0"/>
        <pt x="600" y="343" on="1"/>
        <pt x="600" y="205" on="0"/>
        <pt x="534" y="106" on="1"/>
        <pt x="500" y="57" on="0"/>
        <pt x="396" y="-4" on="0"/>
      </contour>
      <contour>
        <pt x="123" y="341" on="1"/>
        <pt x="123" y="227" on="0"/>
        <pt x="169" y="152" on="1"/>
        <pt x="222" y="64" on="0"/>
        <pt x="325" y="64" on="1"/>
        <pt x="427" y="64" on="0"/>
        <pt x="480" y="152" on="1"/>
        <pt x="526" y="227" on="0"/>
        <pt x="526" y="341" on="1"/>
        <pt x="526" y="456" on="0"/>
        <pt x="480" y="534" on="1"/>
        <pt x="426" y="624" on="0"/>
        <pt x="325" y="624" on="1"/>
        <pt x="223" y="624" on="0"/>
        <pt x="169" y="534" on="1"/>
        <pt x="123" y="456" on="0"/>
      </contour>
    </TTGlyph>
    <TTGlyph name="R" xMin="55" yMin="0" xMax="510" yMax="691">
      <contour>
        <pt x="272" y="266" on="1"/>
        <pt x="250" y="264" on="0"/>
        <pt x="228" y="264" on="1"/>
        <pt x="181" y="264" on="1"/>
        <pt x="181" y="70" on="1"/>
        <pt x="259" y="51" on="1"/>
        <pt x="259" y="0" on="1"/>
        <pt x="62" y="0" on="1"/>
        <pt x="55" y="55" on="1"/>
        <pt x="112" y="68" on="1"/>
        <pt x="112" y="627" on="1"/>
        <pt x="55" y="632" on="1"/>
        <pt x="55" y="691" on="1"/>
        <pt x="229" y="691" on="1"/>
        <pt x="416" y="691" on="0"/>
        <pt x="474" y="576" on="1"/>
        <pt x="494" y="536" on="0"/>
        <pt x="494" y="440" on="0"/>
        <pt x="471" y="376" on="0"/>
        <pt x="450" y="352" on="1"/>
        <pt x="410" y="303" on="0"/>
        <pt x="343" y="282" on="1"/>
        <pt x="445" y="65" on="1"/>
        <pt x="510" y="51" on="1"/>
        <pt x="510" y="0" on="1"/>
        <pt x="392" y="0" on="1"/>
      </contour>
      <contour>
        <pt x="235" y="332" on="1"/>
        <pt x="423" y="332" on="0"/>
        <pt x="423" y="480" on="1"/>
        <pt x="423" y="552" on="0"/>
        <pt x="374" y="590" on="1"/>
        <pt x="331" y="623" on="0"/>
        <pt x="255" y="623" on="1"/>
        <pt x="181" y="623" on="1"/>
        <pt x="181" y="332" on="1"/>
      </contour>
    </TTGlyph>
    <TTGlyph name="S" xMin="54" yMin="-4" xMax="446" yMax="691">
      <contour>
        <pt x="112" y="183" on="1"/>
        <pt x="139" y="84" on="1"/>
        <pt x="181" y="64" on="0"/>
        <pt x="259" y="64" on="0"/>
        <pt x="310" y="78" on="0"/>
        <pt x="330" y="92" on="1"/>
        <pt x="375" y="125" on="0"/>
        <pt x="375" y="181" on="1"/>
        <pt x="375" y="219" on="0"/>
        <pt x="340" y="278" on="0"/>
        <pt x="249" y="323" on="0"/>
        <pt x="166" y="359" on="0"/>
        <pt x="98" y="405" on="0"/>
        <pt x="54" y="470" on="0"/>
        <pt x="54" y="560" on="0"/>
        <pt x="87" y="623" on="0"/>
        <pt x="115" y="645" on="1"/>
        <pt x="174" y="691" on="0"/>
        <pt x="257" y="691" on="1"/>
        <pt x="326" y="691" on="0"/>
        <pt x="411" y="659" on="1"/>
        <pt x="424" y="505" on="1"/>
        <pt x="369" y="505" on="1"/>
        <pt x="327" y="611" on="1"/>
        <pt x="296" y="624" on="0"/>
        <pt x="226" y="624" on="0"/>
        <pt x="182" y="612" on="0"/>
        <pt x="164" y="600" on="1"/>
        <pt x="125" y="573" on="0"/>
        <pt x="125" y="495" on="0"/>
        <pt x="157" y="450" on="0"/>
        <pt x="206" y="418" on="0"/>
        <pt x="267" y="393" on="0"/>
        <pt x="341" y="359" on="0"/>
        <pt x="400" y="313" on="0"/>
        <pt x="416" y="289" on="1"/>
        <pt x="446" y="246" on="0"/>
        <pt x="446" y="143" on="0"/>
        <pt x="411" y="71" on="0"/>
        <pt x="382" y="46" on="1"/>
        <pt x="322" y="-4" on="0"/>
        <pt x="233" y="-4" on="1"/>
        <pt x="135" y="-4" on="0"/>
        <pt x="65" y="29" on="1"/>
        <pt x="54" y="183" on="1"/>
      </contour>
    </TTGlyph>
    <TTGlyph name="T" xMin="18" yMin="0" xMax="529" yMax="691">
      <contour>
        <pt x="127" y="0" on="1"/>
        <pt x="127" y="52" on="1"/>
        <pt x="240" y="70" on="1"/>
        <pt x="240" y="623" on="1"/>
        <pt x="103" y="623" on="1"/>
        <pt x="64" y="526" on="1"/>
        <pt x="18" y="526" on="1"/>
        <pt x="41" y="691" on="1"/>
        <pt x="506" y="691" on="1"/>
        <pt x="529" y="526" on="1"/>
        <pt x="483" y="526" on="1"/>
        <pt x="444" y="623" on="1"/>
        <pt x="308" y="623" on="1"/>
        <pt x="308" y="70" on="1"/>
        <pt x="423" y="52" on="1"/>
        <pt x="423" y="0" on="1"/>
      </contour>
    </TTGlyph>
    <TTGlyph name="Thorn" xMin="55" yMin="0" xMax="475" yMax="691">
      <contour>
        <pt x="112" y="64" on="1"/>
        <pt x="112" y="627" on="1"/>
        <pt x="55" y="631" on="1"/>
        <pt x="55" y="691" on="1"/>
        <pt x="232" y="691" on="1"/>
        <pt x="236" y="635" on="1"/>
        <pt x="181" y="627" on="1"/>
        <pt x="181" y="561" on="1"/>
        <pt x="224" y="561" on="1"/>
        <pt x="399" y="561" on="0"/>
        <pt x="454" y="462" on="1"/>
        <pt x="475" y="425" on="0"/>
        <pt x="475" y="371" on="1"/>
        <pt x="475" y="270" on="0"/>
        <pt x="398" y="218" on="1"/>
        <pt x="333" y="175" on="0"/>
        <pt x="221" y="175" on="1"/>
        <pt x="181" y="175" on="1"/>
        <pt x="181" y="64" on="1"/>
        <pt x="291" y="51" on="1"/>
        <pt x="291" y="0" on="1"/>
        <pt x="63" y="0" on="1"/>
        <pt x="58" y="56" on="1"/>
      </contour>
      <contour>
        <pt x="217" y="244" on="1"/>
        <pt x="349" y="244" on="0"/>
        <pt x="388" y="308" on="1"/>
        <pt x="402" y="332" on="0"/>
        <pt x="402" y="407" on="0"/>
        <pt x="374" y="455" on="0"/>
        <pt x="349" y="468" on="1"/>
        <pt x="305" y="492" on="0"/>
        <pt x="218" y="492" on="1"/>
        <pt x="181" y="492" on="1"/>
        <pt x="181" y="244" on="1"/>
      </contour>
    </TTGlyph>
    <TTGlyph name="U" xMin="38" yMin="-4" xMax="591" yMax="691">
      <contour>
        <pt x="417" y="631" on="1"/>
        <pt x="417" y="691" on="1"/>
        <pt x="587" y="691" on="1"/>
        <pt x="591" y="635" on="1"/>
        <pt x="536" y="627" on="1"/>
        <pt x="536" y="202" on="1"/>
        <pt x="536" y="106" on="0"/>
        <pt x="471" y="50" on="1"/>
        <pt x="409" y="-4" on="0"/>
        <pt x="217" y="-4" on="0"/>
        <pt x="157" y="52" on="1"/>
        <pt x="96" y="109" on="0"/>
        <pt x="96" y="202" on="1"/>
        <pt x="96" y="627" on="1"/>
        <pt x="38" y="631" on="1"/>
        <pt x="38" y="691" on="1"/>
        <pt x="215" y="691" on="1"/>
        <pt x="219" y="635" on="1"/>
        <pt x="164" y="627" on="1"/>
        <pt x="164" y="213" on="1"/>
        <pt x="164" y="141" on="0"/>
        <pt x="246" y="63" on="0"/>
        <pt x="319" y="63" on="1"/>
        <pt x="426" y="63" on="0"/>
        <pt x="462" y="144" on="1"/>
        <pt x="474" y="172" on="0"/>
        <pt x="474" y="213" on="1"/>
        <pt x="474" y="627" on="1"/>
      </contour>
    </TTGlyph>
    <TTGlyph name="Uacute" xMin="38" yMin="-4" xMax="591" yMax="897">
      <contour>
        <pt x="219" y="764" on="1"/>
        <pt x="377" y="897" on="1"/>
        <pt x="407" y="890" on="1"/>
        <pt x="444" y="818" on="1"/>
        <pt x="251" y="717" on="1"/>
      </contour>
      <contour>
        <pt x="417" y="631" on="1"/>
        <pt x="417" y="691" on="1"/>
        <pt x="587" y="691" on="1"/>
        <pt x="591" y="635" on="1"/>
        <pt x="536" y="627" on="1"/>
        <pt x="536" y="202" on="1"/>
        <pt x="536" y="106" on="0"/>
        <pt x="471" y="50" on="1"/>
        <pt x="409" y="-4" on="0"/>
        <pt x="217" y="-4" on="0"/>
        <pt x="157" y="52" on="1"/>
        <pt x="96" y="109" on="0"/>
        <pt x="96" y="202" on="1"/>
        <pt x="96" y="627" on="1"/>
        <pt x="38" y="631" on="1"/>
        <pt x="38" y="691" on="1"/>
        <pt x="215" y="691" on="1"/>
        <pt x="219" y="635" on="1"/>
        <pt x="164" y="627" on="1"/>
        <pt x="164" y="213" on="1"/>
        <pt x="164" y="141" on="0"/>
        <pt x="246" y="63" on="0"/>
        <pt x="319" y="63" on="1"/>
        <pt x="426" y="63" on="0"/>
        <pt x="462" y="144" on="1"/>
        <pt x="474" y="172" on="0"/>
        <pt x="474" y="213" on="1"/>
        <pt x="474" y="627" on="1"/>
      </contour>
    </TTGlyph>
    <TTGlyph name="Ucircumflex" xMin="38" yMin="-4" xMax="591" yMax="884">
      <contour>
        <pt x="303" y="884" on="1"/>
        <pt x="319" y="884" on="1"/>
        <pt x="460" y="727" on="1"/>
        <pt x="386" y="727" on="1"/>
        <pt x="310" y="790" on="1"/>
        <pt x="235" y="727" on="1"/>
        <pt x="161" y="727" on="1"/>
      </contour>
      <contour>
        <pt x="417" y="631" on="1"/>
        <pt x="417" y="691" on="1"/>
        <pt x="587" y="691" on="1"/>
        <pt x="591" y="635" on="1"/>
        <pt x="536" y="627" on="1"/>
        <pt x="536" y="202" on="1"/>
        <pt x="536" y="106" on="0"/>
        <pt x="471" y="50" on="1"/>
        <pt x="409" y="-4" on="0"/>
        <pt x="217" y="-4" on="0"/>
        <pt x="157" y="52" on="1"/>
        <pt x="96" y="109" on="0"/>
        <pt x="96" y="202" on="1"/>
        <pt x="96" y="627" on="1"/>
        <pt x="38" y="631" on="1"/>
        <pt x="38" y="691" on="1"/>
        <pt x="215" y="691" on="1"/>
        <pt x="219" y="635" on="1"/>
        <pt x="164" y="627" on="1"/>
        <pt x="164" y="213" on="1"/>
        <pt x="164" y="141" on="0"/>
        <pt x="246" y="63" on="0"/>
        <pt x="319" y="63" on="1"/>
        <pt x="426" y="63" on="0"/>
        <pt x="462" y="144" on="1"/>
        <pt x="474" y="172" on="0"/>
        <pt x="474" y="213" on="1"/>
        <pt x="474" y="627" on="1"/>
      </contour>
    </TTGlyph>
    <TTGlyph name="Udieresis" xMin="38" yMin="-4" xMax="591" yMax="850">
      <contour>
        <pt x="417" y="631" on="1"/>
        <pt x="417" y="691" on="1"/>
        <pt x="587" y="691" on="1"/>
        <pt x="591" y="635" on="1"/>
        <pt x="536" y="627" on="1"/>
        <pt x="536" y="202" on="1"/>
        <pt x="536" y="106" on="0"/>
        <pt x="471" y="50" on="1"/>
        <pt x="409" y="-4" on="0"/>
        <pt x="217" y="-4" on="0"/>
        <pt x="157" y="52" on="1"/>
        <pt x="96" y="109" on="0"/>
        <pt x="96" y="202" on="1"/>
        <pt x="96" y="627" on="1"/>
        <pt x="38" y="631" on="1"/>
        <pt x="38" y="691" on="1"/>
        <pt x="215" y="691" on="1"/>
        <pt x="219" y="635" on="1"/>
        <pt x="164" y="627" on="1"/>
        <pt x="164" y="213" on="1"/>
        <pt x="164" y="141" on="0"/>
        <pt x="246" y="63" on="0"/>
        <pt x="319" y="63" on="1"/>
        <pt x="426" y="63" on="0"/>
        <pt x="462" y="144" on="1"/>
        <pt x="474" y="172" on="0"/>
        <pt x="474" y="213" on="1"/>
        <pt x="474" y="627" on="1"/>
      </contour>
      <contour>
        <pt x="164" y="793" on="1"/>
        <pt x="164" y="817" on="0"/>
        <pt x="197" y="850" on="0"/>
        <pt x="244" y="850" on="0"/>
        <pt x="279" y="817" on="0"/>
        <pt x="279" y="793" on="1"/>
        <pt x="279" y="769" on="0"/>
        <pt x="244" y="735" on="0"/>
        <pt x="197" y="735" on="0"/>
        <pt x="164" y="769" on="0"/>
      </contour>
      <contour>
        <pt x="340" y="793" on="1"/>
        <pt x="340" y="817" on="0"/>
        <pt x="375" y="850" on="0"/>
        <pt x="423" y="850" on="0"/>
        <pt x="455" y="817" on="0"/>
        <pt x="455" y="793" on="1"/>
        <pt x="455" y="769" on="0"/>
        <pt x="423" y="735" on="0"/>
        <pt x="375" y="735" on="0"/>
        <pt x="340" y="769" on="0"/>
      </contour>
    </TTGlyph>
    <TTGlyph name="Ugrave" xMin="38" yMin="-4" xMax="591" yMax="897">
      <contour>
        <pt x="392" y="717" on="1"/>
        <pt x="189" y="818" on="1"/>
        <pt x="225" y="890" on="1"/>
        <pt x="256" y="897" on="1"/>
        <pt x="424" y="764" on="1"/>
      </contour>
      <contour>
        <pt x="417" y="631" on="1"/>
        <pt x="417" y="691" on="1"/>
        <pt x="587" y="691" on="1"/>
        <pt x="591" y="635" on="1"/>
        <pt x="536" y="627" on="1"/>
        <pt x="536" y="202" on="1"/>
        <pt x="536" y="106" on="0"/>
        <pt x="471" y="50" on="1"/>
        <pt x="409" y="-4" on="0"/>
        <pt x="217" y="-4" on="0"/>
        <pt x="157" y="52" on="1"/>
        <pt x="96" y="109" on="0"/>
        <pt x="96" y="202" on="1"/>
        <pt x="96" y="627" on="1"/>
        <pt x="38" y="631" on="1"/>
        <pt x="38" y="691" on="1"/>
        <pt x="215" y="691" on="1"/>
        <pt x="219" y="635" on="1"/>
        <pt x="164" y="627" on="1"/>
        <pt x="164" y="213" on="1"/>
        <pt x="164" y="141" on="0"/>
        <pt x="246" y="63" on="0"/>
        <pt x="319" y="63" on="1"/>
        <pt x="426" y="63" on="0"/>
        <pt x="462" y="144" on="1"/>
        <pt x="474" y="172" on="0"/>
        <pt x="474" y="213" on="1"/>
        <pt x="474" y="627" on="1"/>
      </contour>
    </TTGlyph>
    <TTGlyph name="V" xMin="8" yMin="0" xMax="560" yMax="691">
      <contour>
        <pt x="205" y="691" on="1"/>
        <pt x="205" y="647" on="1"/>
        <pt x="117" y="626" on="1"/>
        <pt x="284" y="111" on="1"/>
        <pt x="455" y="629" on="1"/>
        <pt x="364" y="646" on="1"/>
        <pt x="364" y="691" on="1"/>
        <pt x="560" y="691" on="1"/>
        <pt x="560" y="644" on="1"/>
        <pt x="520" y="626" on="1"/>
        <pt x="312" y="0" on="1"/>
        <pt x="247" y="0" on="1"/>
        <pt x="44" y="626" on="1"/>
        <pt x="8" y="644" on="1"/>
        <pt x="8" y="691" on="1"/>
      </contour>
    </TTGlyph>
    <TTGlyph name="W" xMin="13" yMin="0" xMax="846" yMax="691">
      <contour>
        <pt x="201" y="691" on="1"/>
        <pt x="201" y="647" on="1"/>
        <pt x="123" y="626" on="1"/>
        <pt x="236" y="88" on="1"/>
        <pt x="391" y="668" on="1"/>
        <pt x="476" y="668" on="1"/>
        <pt x="628" y="82" on="1"/>
        <pt x="742" y="629" on="1"/>
        <pt x="664" y="646" on="1"/>
        <pt x="664" y="691" on="1"/>
        <pt x="846" y="691" on="1"/>
        <pt x="846" y="644" on="1"/>
        <pt x="806" y="626" on="1"/>
        <pt x="673" y="0" on="1"/>
        <pt x="582" y="0" on="1"/>
        <pt x="431" y="576" on="1"/>
        <pt x="281" y="0" on="1"/>
        <pt x="181" y="0" on="1"/>
        <pt x="52" y="626" on="1"/>
        <pt x="13" y="644" on="1"/>
        <pt x="13" y="691" on="1"/>
      </contour>
    </TTGlyph>
    <TTGlyph name="X" xMin="20" yMin="0" xMax="554" yMax="691">
      <contour>
        <pt x="20" y="0" on="1"/>
        <pt x="20" y="54" on="1"/>
        <pt x="65" y="61" on="1"/>
        <pt x="240" y="347" on="1"/>
        <pt x="69" y="627" on="1"/>
        <pt x="22" y="638" on="1"/>
        <pt x="22" y="691" on="1"/>
        <pt x="217" y="691" on="1"/>
        <pt x="217" y="648" on="1"/>
        <pt x="146" y="633" on="1"/>
        <pt x="288" y="401" on="1"/>
        <pt x="417" y="633" on="1"/>
        <pt x="358" y="643" on="1"/>
        <pt x="358" y="691" on="1"/>
        <pt x="537" y="691" on="1"/>
        <pt x="537" y="637" on="1"/>
        <pt x="492" y="630" on="1"/>
        <pt x="325" y="341" on="1"/>
        <pt x="490" y="75" on="1"/>
        <pt x="554" y="52" on="1"/>
        <pt x="554" y="0" on="1"/>
        <pt x="356" y="0" on="1"/>
        <pt x="356" y="52" on="1"/>
        <pt x="418" y="58" on="1"/>
        <pt x="276" y="289" on="1"/>
        <pt x="139" y="58" on="1"/>
        <pt x="197" y="48" on="1"/>
        <pt x="197" y="0" on="1"/>
      </contour>
    </TTGlyph>
    <TTGlyph name="Y" xMin="7" yMin="0" xMax="529" yMax="691">
      <contour>
        <pt x="189" y="691" on="1"/>
        <pt x="189" y="638" on="1"/>
        <pt x="126" y="628" on="1"/>
        <pt x="278" y="330" on="1"/>
        <pt x="418" y="629" on="1"/>
        <pt x="357" y="637" on="1"/>
        <pt x="357" y="691" on="1"/>
        <pt x="529" y="691" on="1"/>
        <pt x="529" y="631" on="1"/>
        <pt x="486" y="621" on="1"/>
        <pt x="305" y="243" on="1"/>
        <pt x="305" y="70" on="1"/>
        <pt x="420" y="52" on="1"/>
        <pt x="411" y="0" on="1"/>
        <pt x="131" y="0" on="1"/>
        <pt x="121" y="52" on="1"/>
        <pt x="237" y="70" on="1"/>
        <pt x="237" y="257" on="1"/>
        <pt x="50" y="622" on="1"/>
        <pt x="7" y="631" on="1"/>
        <pt x="7" y="691" on="1"/>
      </contour>
    </TTGlyph>
    <TTGlyph name="Yacute" xMin="7" yMin="0" xMax="529" yMax="897">
      <contour>
        <pt x="168" y="764" on="1"/>
        <pt x="326" y="897" on="1"/>
        <pt x="356" y="890" on="1"/>
        <pt x="393" y="818" on="1"/>
        <pt x="200" y="717" on="1"/>
      </contour>
      <contour>
        <pt x="189" y="691" on="1"/>
        <pt x="189" y="638" on="1"/>
        <pt x="126" y="628" on="1"/>
        <pt x="278" y="330" on="1"/>
        <pt x="418" y="629" on="1"/>
        <pt x="357" y="637" on="1"/>
        <pt x="357" y="691" on="1"/>
        <pt x="529" y="691" on="1"/>
        <pt x="529" y="631" on="1"/>
        <pt x="486" y="621" on="1"/>
        <pt x="305" y="243" on="1"/>
        <pt x="305" y="70" on="1"/>
        <pt x="420" y="52" on="1"/>
        <pt x="411" y="0" on="1"/>
        <pt x="131" y="0" on="1"/>
        <pt x="121" y="52" on="1"/>
        <pt x="237" y="70" on="1"/>
        <pt x="237" y="257" on="1"/>
        <pt x="50" y="622" on="1"/>
        <pt x="7" y="631" on="1"/>
        <pt x="7" y="691" on="1"/>
      </contour>
    </TTGlyph>
    <TTGlyph name="Z" xMin="47" yMin="0" xMax="493" yMax="691">
      <contour>
        <pt x="487" y="604" on="1"/>
        <pt x="127" y="68" on="1"/>
        <pt x="426" y="68" on="1"/>
        <pt x="446" y="170" on="1"/>
        <pt x="493" y="170" on="1"/>
        <pt x="493" y="0" on="1"/>
        <pt x="56" y="0" on="1"/>
        <pt x="47" y="75" on="1"/>
        <pt x="415" y="623" on="1"/>
        <pt x="119" y="623" on="1"/>
        <pt x="99" y="521" on="1"/>
        <pt x="52" y="521" on="1"/>
        <pt x="52" y="691" on="1"/>
        <pt x="477" y="691" on="1"/>
      </contour>
    </TTGlyph>
    <TTGlyph name="a" xMin="41" yMin="-4" xMax="421" yMax="479">
      <contour>
        <pt x="308" y="40" on="1"/>
        <pt x="260" y="-4" on="0"/>
        <pt x="190" y="-4" on="1"/>
        <pt x="128" y="-4" on="0"/>
        <pt x="86" y="31" on="1"/>
        <pt x="41" y="68" on="0"/>
        <pt x="41" y="179" on="0"/>
        <pt x="96" y="241" on="0"/>
        <pt x="136" y="258" on="1"/>
        <pt x="200" y="285" on="0"/>
        <pt x="303" y="288" on="1"/>
        <pt x="303" y="352" on="1"/>
        <pt x="303" y="384" on="0"/>
        <pt x="255" y="422" on="0"/>
        <pt x="215" y="422" on="1"/>
        <pt x="167" y="422" on="0"/>
        <pt x="146" y="409" on="1"/>
        <pt x="130" y="356" on="1"/>
        <pt x="48" y="371" on="1"/>
        <pt x="65" y="423" on="0"/>
        <pt x="112" y="452" on="1"/>
        <pt x="154" y="479" on="0"/>
        <pt x="209" y="479" on="1"/>
        <pt x="292" y="479" on="0"/>
        <pt x="366" y="402" on="0"/>
        <pt x="366" y="337" on="1"/>
        <pt x="366" y="79" on="1"/>
        <pt x="366" y="50" on="0"/>
        <pt x="389" y="50" on="1"/>
        <pt x="398" y="50" on="0"/>
        <pt x="410" y="55" on="1"/>
        <pt x="421" y="17" on="1"/>
        <pt x="400" y="-4" on="0"/>
        <pt x="366" y="-4" on="1"/>
        <pt x="320" y="-4" on="0"/>
      </contour>
      <contour>
        <pt x="128" y="184" on="1"/>
        <pt x="107" y="164" on="0"/>
        <pt x="107" y="96" on="0"/>
        <pt x="155" y="53" on="0"/>
        <pt x="192" y="53" on="1"/>
        <pt x="267" y="53" on="0"/>
        <pt x="303" y="108" on="1"/>
        <pt x="303" y="232" on="1"/>
        <pt x="178" y="232" on="0"/>
      </contour>
    </TTGlyph>
    <TTGlyph name="aacute" xMin="41" yMin="-4" xMax="421" yMax="725">
      <contour>
        <pt x="308" y="40" on="1"/>
        <pt x="260" y="-4" on="0"/>
        <pt x="190" y="-4" on="1"/>
        <pt x="128" y="-4" on="0"/>
        <pt x="86" y="31" on="1"/>
        <pt x="41" y="68" on="0"/>
        <pt x="41" y="179" on="0"/>
        <pt x="96" y="241" on="0"/>
        <pt x="136" y="258" on="1"/>
        <pt x="200" y="285" on="0"/>
        <pt x="303" y="288" on="1"/>
        <pt x="303" y="352" on="1"/>
        <pt x="303" y="384" on="0"/>
        <pt x="255" y="422" on="0"/>
        <pt x="215" y="422" on="1"/>
        <pt x="167" y="422" on="0"/>
        <pt x="146" y="409" on="1"/>
        <pt x="130" y="356" on="1"/>
        <pt x="48" y="371" on="1"/>
        <pt x="65" y="423" on="0"/>
        <pt x="112" y="452" on="1"/>
        <pt x="154" y="479" on="0"/>
        <pt x="209" y="479" on="1"/>
        <pt x="292" y="479" on="0"/>
        <pt x="366" y="402" on="0"/>
        <pt x="366" y="337" on="1"/>
        <pt x="366" y="79" on="1"/>
        <pt x="366" y="50" on="0"/>
        <pt x="389" y="50" on="1"/>
        <pt x="398" y="50" on="0"/>
        <pt x="410" y="55" on="1"/>
        <pt x="421" y="17" on="1"/>
        <pt x="400" y="-4" on="0"/>
        <pt x="366" y="-4" on="1"/>
        <pt x="320" y="-4" on="0"/>
      </contour>
      <contour>
        <pt x="128" y="184" on="1"/>
        <pt x="107" y="164" on="0"/>
        <pt x="107" y="96" on="0"/>
        <pt x="155" y="53" on="0"/>
        <pt x="192" y="53" on="1"/>
        <pt x="267" y="53" on="0"/>
        <pt x="303" y="108" on="1"/>
        <pt x="303" y="232" on="1"/>
        <pt x="178" y="232" on="0"/>
      </contour>
      <contour>
        <pt x="149" y="586" on="1"/>
        <pt x="253" y="725" on="1"/>
        <pt x="280" y="725" on="1"/>
        <pt x="324" y="673" on="1"/>
        <pt x="184" y="553" on="1"/>
      </contour>
    </TTGlyph>
    <TTGlyph name="acircumflex" xMin="41" yMin="-4" xMax="421" yMax="691">
      <contour>
        <pt x="87" y="548" on="1"/>
        <pt x="203" y="691" on="1"/>
        <pt x="219" y="691" on="1"/>
        <pt x="335" y="550" on="1"/>
        <pt x="332" y="544" on="1"/>
        <pt x="277" y="544" on="1"/>
        <pt x="211" y="602" on="1"/>
        <pt x="145" y="544" on="1"/>
        <pt x="91" y="544" on="1"/>
      </contour>
      <contour>
        <pt x="308" y="40" on="1"/>
        <pt x="260" y="-4" on="0"/>
        <pt x="190" y="-4" on="1"/>
        <pt x="128" y="-4" on="0"/>
        <pt x="86" y="31" on="1"/>
        <pt x="41" y="68" on="0"/>
        <pt x="41" y="179" on="0"/>
        <pt x="96" y="241" on="0"/>
        <pt x="136" y="258" on="1"/>
        <pt x="200" y="285" on="0"/>
        <pt x="303" y="288" on="1"/>
        <pt x="303" y="352" on="1"/>
        <pt x="303" y="384" on="0"/>
        <pt x="255" y="422" on="0"/>
        <pt x="215" y="422" on="1"/>
        <pt x="167" y="422" on="0"/>
        <pt x="146" y="409" on="1"/>
        <pt x="130" y="356" on="1"/>
        <pt x="48" y="371" on="1"/>
        <pt x="65" y="423" on="0"/>
        <pt x="112" y="452" on="1"/>
        <pt x="154" y="479" on="0"/>
        <pt x="209" y="479" on="1"/>
        <pt x="292" y="479" on="0"/>
        <pt x="366" y="402" on="0"/>
        <pt x="366" y="337" on="1"/>
        <pt x="366" y="79" on="1"/>
        <pt x="366" y="50" on="0"/>
        <pt x="389" y="50" on="1"/>
        <pt x="398" y="50" on="0"/>
        <pt x="410" y="55" on="1"/>
        <pt x="421" y="17" on="1"/>
        <pt x="400" y="-4" on="0"/>
        <pt x="366" y="-4" on="1"/>
        <pt x="320" y="-4" on="0"/>
      </contour>
      <contour>
        <pt x="128" y="184" on="1"/>
        <pt x="107" y="164" on="0"/>
        <pt x="107" y="96" on="0"/>
        <pt x="155" y="53" on="0"/>
        <pt x="192" y="53" on="1"/>
        <pt x="267" y="53" on="0"/>
        <pt x="303" y="108" on="1"/>
        <pt x="303" y="232" on="1"/>
        <pt x="178" y="232" on="0"/>
      </contour>
    </TTGlyph>
    <TTGlyph name="acute" xMin="52" yMin="552" xMax="227" yMax="724">
      <contour>
        <pt x="52" y="585" on="1"/>
        <pt x="156" y="724" on="1"/>
        <pt x="183" y="724" on="1"/>
        <pt x="227" y="672" on="1"/>
        <pt x="87" y="552" on="1"/>
      </contour>
    </TTGlyph>
    <TTGlyph name="adieresis" xMin="41" yMin="-4" xMax="421" yMax="668">
      <contour>
        <pt x="117" y="570" on="0"/>
        <pt x="89" y="600" on="0"/>
        <pt x="89" y="639" on="0"/>
        <pt x="117" y="668" on="0"/>
        <pt x="157" y="668" on="0"/>
        <pt x="186" y="639" on="0"/>
        <pt x="186" y="600" on="0"/>
        <pt x="157" y="570" on="0"/>
      </contour>
      <contour>
        <pt x="256" y="570" on="0"/>
        <pt x="229" y="600" on="0"/>
        <pt x="229" y="639" on="0"/>
        <pt x="256" y="668" on="0"/>
        <pt x="296" y="668" on="0"/>
        <pt x="324" y="639" on="0"/>
        <pt x="324" y="600" on="0"/>
        <pt x="296" y="570" on="0"/>
      </contour>
      <contour>
        <pt x="308" y="40" on="1"/>
        <pt x="260" y="-4" on="0"/>
        <pt x="190" y="-4" on="1"/>
        <pt x="128" y="-4" on="0"/>
        <pt x="86" y="31" on="1"/>
        <pt x="41" y="68" on="0"/>
        <pt x="41" y="179" on="0"/>
        <pt x="96" y="241" on="0"/>
        <pt x="136" y="258" on="1"/>
        <pt x="200" y="285" on="0"/>
        <pt x="303" y="288" on="1"/>
        <pt x="303" y="352" on="1"/>
        <pt x="303" y="384" on="0"/>
        <pt x="255" y="422" on="0"/>
        <pt x="215" y="422" on="1"/>
        <pt x="167" y="422" on="0"/>
        <pt x="146" y="409" on="1"/>
        <pt x="130" y="356" on="1"/>
        <pt x="48" y="371" on="1"/>
        <pt x="65" y="423" on="0"/>
        <pt x="112" y="452" on="1"/>
        <pt x="154" y="479" on="0"/>
        <pt x="209" y="479" on="1"/>
        <pt x="292" y="479" on="0"/>
        <pt x="366" y="402" on="0"/>
        <pt x="366" y="337" on="1"/>
        <pt x="366" y="79" on="1"/>
        <pt x="366" y="50" on="0"/>
        <pt x="389" y="50" on="1"/>
        <pt x="398" y="50" on="0"/>
        <pt x="410" y="55" on="1"/>
        <pt x="421" y="17" on="1"/>
        <pt x="400" y="-4" on="0"/>
        <pt x="366" y="-4" on="1"/>
        <pt x="320" y="-4" on="0"/>
      </contour>
      <contour>
        <pt x="128" y="184" on="1"/>
        <pt x="107" y="164" on="0"/>
        <pt x="107" y="96" on="0"/>
        <pt x="155" y="53" on="0"/>
        <pt x="192" y="53" on="1"/>
        <pt x="267" y="53" on="0"/>
        <pt x="303" y="108" on="1"/>
        <pt x="303" y="232" on="1"/>
        <pt x="178" y="232" on="0"/>
      </contour>
    </TTGlyph>
    <TTGlyph name="ae" xMin="41" yMin="-4" xMax="664" yMax="481">
      <contour>
        <pt x="617" y="91" on="1"/>
        <pt x="635" y="36" on="1"/>
        <pt x="612" y="18" on="0"/>
        <pt x="554" y="-2" on="0"/>
        <pt x="507" y="-2" on="1"/>
        <pt x="402" y="-2" on="0"/>
        <pt x="346" y="79" on="1"/>
        <pt x="344" y="74" on="0"/>
        <pt x="338" y="67" on="0"/>
        <pt x="336" y="63" on="1"/>
        <pt x="311" y="34" on="0"/>
        <pt x="291" y="22" on="1"/>
        <pt x="248" y="-4" on="0"/>
        <pt x="158" y="-4" on="0"/>
        <pt x="100" y="18" on="0"/>
        <pt x="80" y="36" on="1"/>
        <pt x="41" y="72" on="0"/>
        <pt x="41" y="171" on="0"/>
        <pt x="83" y="228" on="0"/>
        <pt x="117" y="243" on="1"/>
        <pt x="171" y="267" on="0"/>
        <pt x="279" y="267" on="1"/>
        <pt x="303" y="267" on="1"/>
        <pt x="303" y="352" on="1"/>
        <pt x="303" y="373" on="0"/>
        <pt x="286" y="390" on="1"/>
        <pt x="252" y="422" on="0"/>
        <pt x="206" y="422" on="1"/>
        <pt x="161" y="422" on="0"/>
        <pt x="146" y="409" on="1"/>
        <pt x="130" y="356" on="1"/>
        <pt x="48" y="371" on="1"/>
        <pt x="55" y="421" on="0"/>
        <pt x="106" y="452" on="1"/>
        <pt x="152" y="479" on="0"/>
        <pt x="202" y="479" on="1"/>
        <pt x="318" y="479" on="0"/>
        <pt x="353" y="399" on="1"/>
        <pt x="382" y="438" on="0"/>
        <pt x="465" y="481" on="0"/>
        <pt x="511" y="481" on="1"/>
        <pt x="580" y="481" on="0"/>
        <pt x="664" y="415" on="0"/>
        <pt x="664" y="302" on="0"/>
        <pt x="615" y="244" on="0"/>
        <pt x="577" y="230" on="1"/>
        <pt x="520" y="209" on="0"/>
        <pt x="406" y="209" on="1"/>
        <pt x="369" y="209" on="1"/>
        <pt x="374" y="128" on="0"/>
        <pt x="426" y="86" on="1"/>
        <pt x="464" y="56" on="0"/>
        <pt x="580" y="56" on="0"/>
      </contour>
      <contour>
        <pt x="371" y="267" on="1"/>
        <pt x="427" y="266" on="1"/>
        <pt x="598" y="266" on="0"/>
        <pt x="598" y="346" on="1"/>
        <pt x="598" y="384" on="0"/>
        <pt x="543" y="423" on="0"/>
        <pt x="484" y="423" on="0"/>
        <pt x="439" y="404" on="0"/>
        <pt x="420" y="385" on="1"/>
        <pt x="379" y="344" on="0"/>
      </contour>
      <contour>
        <pt x="136" y="191" on="0"/>
        <pt x="107" y="160" on="0"/>
        <pt x="107" y="97" on="0"/>
        <pt x="159" y="54" on="0"/>
        <pt x="237" y="54" on="0"/>
        <pt x="292" y="89" on="0"/>
        <pt x="303" y="107" on="1"/>
        <pt x="303" y="211" on="1"/>
        <pt x="270" y="211" on="1"/>
        <pt x="193" y="211" on="0"/>
      </contour>
    </TTGlyph>
    <TTGlyph name="agrave" xMin="41" yMin="-4" xMax="421" yMax="727">
      <contour>
        <pt x="308" y="40" on="1"/>
        <pt x="260" y="-4" on="0"/>
        <pt x="190" y="-4" on="1"/>
        <pt x="128" y="-4" on="0"/>
        <pt x="86" y="31" on="1"/>
        <pt x="41" y="68" on="0"/>
        <pt x="41" y="179" on="0"/>
        <pt x="96" y="241" on="0"/>
        <pt x="136" y="258" on="1"/>
        <pt x="200" y="285" on="0"/>
        <pt x="303" y="288" on="1"/>
        <pt x="303" y="352" on="1"/>
        <pt x="303" y="384" on="0"/>
        <pt x="255" y="422" on="0"/>
        <pt x="215" y="422" on="1"/>
        <pt x="167" y="422" on="0"/>
        <pt x="146" y="409" on="1"/>
        <pt x="130" y="356" on="1"/>
        <pt x="48" y="371" on="1"/>
        <pt x="65" y="423" on="0"/>
        <pt x="112" y="452" on="1"/>
        <pt x="154" y="479" on="0"/>
        <pt x="209" y="479" on="1"/>
        <pt x="292" y="479" on="0"/>
        <pt x="366" y="402" on="0"/>
        <pt x="366" y="337" on="1"/>
        <pt x="366" y="79" on="1"/>
        <pt x="366" y="50" on="0"/>
        <pt x="389" y="50" on="1"/>
        <pt x="398" y="50" on="0"/>
        <pt x="410" y="55" on="1"/>
        <pt x="421" y="17" on="1"/>
        <pt x="400" y="-4" on="0"/>
        <pt x="366" y="-4" on="1"/>
        <pt x="320" y="-4" on="0"/>
      </contour>
      <contour>
        <pt x="128" y="184" on="1"/>
        <pt x="107" y="164" on="0"/>
        <pt x="107" y="96" on="0"/>
        <pt x="155" y="53" on="0"/>
        <pt x="192" y="53" on="1"/>
        <pt x="267" y="53" on="0"/>
        <pt x="303" y="108" on="1"/>
        <pt x="303" y="232" on="1"/>
        <pt x="178" y="232" on="0"/>
      </contour>
      <contour>
        <pt x="270" y="554" on="1"/>
        <pt x="130" y="674" on="1"/>
        <pt x="174" y="727" on="1"/>
        <pt x="200" y="727" on="1"/>
        <pt x="304" y="587" on="1"/>
      </contour>
    </TTGlyph>
    <TTGlyph name="ampersand" xMin="35" yMin="-4" xMax="588" yMax="690">
      <contour>
        <pt x="400" y="558" on="1"/>
        <pt x="400" y="458" on="0"/>
        <pt x="274" y="364" on="1"/>
        <pt x="313" y="312" on="1"/>
        <pt x="342" y="264" on="0"/>
        <pt x="410" y="183" on="1"/>
        <pt x="447" y="248" on="0"/>
        <pt x="465" y="341" on="1"/>
        <pt x="424" y="341" on="1"/>
        <pt x="411" y="398" on="1"/>
        <pt x="533" y="398" on="1"/>
        <pt x="540" y="386" on="1"/>
        <pt x="531" y="313" on="0"/>
        <pt x="496" y="217" on="1"/>
        <pt x="483" y="183" on="0"/>
        <pt x="468" y="155" on="1"/>
        <pt x="455" y="131" on="1"/>
        <pt x="514" y="65" on="0"/>
        <pt x="536" y="65" on="1"/>
        <pt x="547" y="65" on="0"/>
        <pt x="571" y="77" on="1"/>
        <pt x="576" y="42" on="0"/>
        <pt x="588" y="6" on="1"/>
        <pt x="568" y="-1" on="0"/>
        <pt x="548" y="-1" on="1"/>
        <pt x="495" y="-1" on="0"/>
        <pt x="419" y="77" on="1"/>
        <pt x="351" y="-4" on="0"/>
        <pt x="243" y="-4" on="1"/>
        <pt x="147" y="-4" on="0"/>
        <pt x="90" y="52" on="1"/>
        <pt x="35" y="104" on="0"/>
        <pt x="35" y="178" on="1"/>
        <pt x="35" y="242" on="0"/>
        <pt x="82" y="302" on="1"/>
        <pt x="119" y="351" on="0"/>
        <pt x="179" y="388" on="1"/>
        <pt x="172" y="401" on="1"/>
        <pt x="163" y="417" on="0"/>
        <pt x="142" y="449" on="0"/>
        <pt x="134" y="466" on="1"/>
        <pt x="115" y="506" on="0"/>
        <pt x="115" y="564" on="0"/>
        <pt x="132" y="614" on="0"/>
        <pt x="150" y="636" on="1"/>
        <pt x="193" y="690" on="0"/>
        <pt x="266" y="690" on="1"/>
        <pt x="319" y="690" on="0"/>
        <pt x="358" y="654" on="1"/>
        <pt x="400" y="616" on="0"/>
      </contour>
      <contour>
        <pt x="373" y="128" on="1"/>
        <pt x="323" y="189" on="0"/>
        <pt x="238" y="309" on="1"/>
        <pt x="222" y="328" on="0"/>
        <pt x="214" y="340" on="1"/>
        <pt x="165" y="304" on="0"/>
        <pt x="146" y="277" on="1"/>
        <pt x="108" y="227" on="0"/>
        <pt x="108" y="173" on="1"/>
        <pt x="108" y="121" on="0"/>
        <pt x="151" y="88" on="1"/>
        <pt x="190" y="59" on="0"/>
        <pt x="235" y="59" on="1"/>
        <pt x="317" y="59" on="0"/>
      </contour>
      <contour>
        <pt x="242" y="407" on="1"/>
        <pt x="336" y="482" on="0"/>
        <pt x="336" y="551" on="1"/>
        <pt x="336" y="581" on="0"/>
        <pt x="322" y="599" on="1"/>
        <pt x="298" y="632" on="0"/>
        <pt x="238" y="632" on="0"/>
        <pt x="207" y="617" on="0"/>
        <pt x="198" y="604" on="1"/>
        <pt x="180" y="581" on="0"/>
        <pt x="180" y="513" on="0"/>
        <pt x="216" y="444" on="0"/>
      </contour>
    </TTGlyph>
    <TTGlyph name="aring" xMin="41" yMin="-4" xMax="421" yMax="691">
      <contour>
        <pt x="176" y="510" on="0"/>
        <pt x="124" y="562" on="0"/>
        <pt x="124" y="639" on="0"/>
        <pt x="176" y="691" on="0"/>
        <pt x="214" y="691" on="1"/>
        <pt x="252" y="691" on="0"/>
        <pt x="304" y="639" on="0"/>
        <pt x="304" y="562" on="0"/>
        <pt x="252" y="510" on="0"/>
        <pt x="214" y="510" on="1"/>
      </contour>
      <contour>
        <pt x="197" y="638" on="0"/>
        <pt x="176" y="618" on="0"/>
        <pt x="176" y="583" on="0"/>
        <pt x="197" y="563" on="0"/>
        <pt x="214" y="563" on="1"/>
        <pt x="231" y="563" on="0"/>
        <pt x="252" y="583" on="0"/>
        <pt x="252" y="618" on="0"/>
        <pt x="231" y="638" on="0"/>
        <pt x="214" y="638" on="1"/>
      </contour>
      <contour>
        <pt x="308" y="40" on="1"/>
        <pt x="260" y="-4" on="0"/>
        <pt x="190" y="-4" on="1"/>
        <pt x="128" y="-4" on="0"/>
        <pt x="86" y="31" on="1"/>
        <pt x="41" y="68" on="0"/>
        <pt x="41" y="179" on="0"/>
        <pt x="96" y="241" on="0"/>
        <pt x="136" y="258" on="1"/>
        <pt x="200" y="285" on="0"/>
        <pt x="303" y="288" on="1"/>
        <pt x="303" y="352" on="1"/>
        <pt x="303" y="384" on="0"/>
        <pt x="255" y="422" on="0"/>
        <pt x="215" y="422" on="1"/>
        <pt x="167" y="422" on="0"/>
        <pt x="146" y="409" on="1"/>
        <pt x="130" y="356" on="1"/>
        <pt x="48" y="371" on="1"/>
        <pt x="65" y="423" on="0"/>
        <pt x="112" y="452" on="1"/>
        <pt x="154" y="479" on="0"/>
        <pt x="209" y="479" on="1"/>
        <pt x="292" y="479" on="0"/>
        <pt x="366" y="402" on="0"/>
        <pt x="366" y="337" on="1"/>
        <pt x="366" y="79" on="1"/>
        <pt x="366" y="50" on="0"/>
        <pt x="389" y="50" on="1"/>
        <pt x="398" y="50" on="0"/>
        <pt x="410" y="55" on="1"/>
        <pt x="421" y="17" on="1"/>
        <pt x="400" y="-4" on="0"/>
        <pt x="366" y="-4" on="1"/>
        <pt x="320" y="-4" on="0"/>
      </contour>
      <contour>
        <pt x="128" y="184" on="1"/>
        <pt x="107" y="164" on="0"/>
        <pt x="107" y="96" on="0"/>
        <pt x="155" y="53" on="0"/>
        <pt x="192" y="53" on="1"/>
        <pt x="267" y="53" on="0"/>
        <pt x="303" y="108" on="1"/>
        <pt x="303" y="232" on="1"/>
        <pt x="178" y="232" on="0"/>
      </contour>
    </TTGlyph>
    <TTGlyph name="asciicircum" xMin="52" yMin="577" xMax="300" yMax="724">
      <contour>
        <pt x="52" y="582" on="1"/>
        <pt x="169" y="724" on="1"/>
        <pt x="184" y="724" on="1"/>
        <pt x="300" y="584" on="1"/>
        <pt x="297" y="577" on="1"/>
        <pt x="242" y="577" on="1"/>
        <pt x="176" y="646" on="1"/>
        <pt x="110" y="577" on="1"/>
        <pt x="56" y="577" on="1"/>
      </contour>
    </TTGlyph>
    <TTGlyph name="asciitilde" xMin="31" yMin="554" xMax="359" yMax="663">
      <contour>
        <pt x="359" y="601" on="1"/>
        <pt x="314" y="563" on="0"/>
        <pt x="265" y="563" on="1"/>
        <pt x="246" y="563" on="0"/>
        <pt x="214" y="575" on="0"/>
        <pt x="182" y="588" on="0"/>
        <pt x="150" y="600" on="0"/>
        <pt x="111" y="600" on="0"/>
        <pt x="81" y="572" on="0"/>
        <pt x="74" y="554" on="1"/>
        <pt x="31" y="580" on="1"/>
        <pt x="43" y="621" on="0"/>
        <pt x="104" y="663" on="0"/>
        <pt x="156" y="663" on="0"/>
        <pt x="193" y="650" on="0"/>
        <pt x="209" y="642" on="1"/>
        <pt x="251" y="621" on="0"/>
        <pt x="266" y="621" on="1"/>
        <pt x="322" y="663" on="1"/>
      </contour>
    </TTGlyph>
    <TTGlyph name="asterisk" xMin="41" yMin="425" xMax="291" yMax="691">
      <contour>
        <pt x="188" y="691" on="1"/>
        <pt x="196" y="681" on="1"/>
        <pt x="176" y="576" on="1"/>
        <pt x="260" y="649" on="1"/>
        <pt x="290" y="611" on="1"/>
        <pt x="286" y="600" on="1"/>
        <pt x="187" y="558" on="1"/>
        <pt x="291" y="519" on="1"/>
        <pt x="272" y="476" on="1"/>
        <pt x="259" y="472" on="1"/>
        <pt x="175" y="541" on="1"/>
        <pt x="192" y="429" on="1"/>
        <pt x="145" y="425" on="1"/>
        <pt x="136" y="435" on="1"/>
        <pt x="155" y="539" on="1"/>
        <pt x="72" y="467" on="1"/>
        <pt x="44" y="505" on="1"/>
        <pt x="46" y="517" on="1"/>
        <pt x="146" y="558" on="1"/>
        <pt x="41" y="597" on="1"/>
        <pt x="61" y="640" on="1"/>
        <pt x="72" y="644" on="1"/>
        <pt x="156" y="575" on="1"/>
        <pt x="140" y="687" on="1"/>
      </contour>
      <contour>
        <pt x="159" y="558" on="1"/>
        <pt x="163" y="552" on="1"/>
        <pt x="170" y="552" on="1"/>
        <pt x="173" y="558" on="1"/>
        <pt x="169" y="564" on="1"/>
        <pt x="163" y="564" on="1"/>
      </contour>
    </TTGlyph>
    <TTGlyph name="at" xMin="42" yMin="-160" xMax="755" yMax="575">
      <contour>
        <pt x="498" y="28" on="1"/>
        <pt x="460" y="-4" on="0"/>
        <pt x="397" y="-4" on="1"/>
        <pt x="317" y="-4" on="0"/>
        <pt x="267" y="50" on="1"/>
        <pt x="214" y="106" on="0"/>
        <pt x="214" y="202" on="1"/>
        <pt x="214" y="315" on="0"/>
        <pt x="282" y="368" on="1"/>
        <pt x="332" y="408" on="0"/>
        <pt x="400" y="408" on="1"/>
        <pt x="445" y="408" on="0"/>
        <pt x="485" y="389" on="1"/>
        <pt x="528" y="409" on="1"/>
        <pt x="550" y="403" on="1"/>
        <pt x="550" y="85" on="1"/>
        <pt x="550" y="59" on="0"/>
        <pt x="582" y="59" on="1"/>
        <pt x="623" y="59" on="0"/>
        <pt x="656" y="115" on="1"/>
        <pt x="687" y="169" on="0"/>
        <pt x="687" y="294" on="0"/>
        <pt x="649" y="397" on="0"/>
        <pt x="614" y="434" on="1"/>
        <pt x="540" y="512" on="0"/>
        <pt x="417" y="512" on="1"/>
        <pt x="285" y="512" on="0"/>
        <pt x="197" y="426" on="1"/>
        <pt x="110" y="340" on="0"/>
        <pt x="110" y="215" on="1"/>
        <pt x="110" y="154" on="0"/>
        <pt x="155" y="41" on="0"/>
        <pt x="234" y="-45" on="0"/>
        <pt x="340" y="-97" on="0"/>
        <pt x="471" y="-97" on="0"/>
        <pt x="525" y="-75" on="1"/>
        <pt x="538" y="-79" on="1"/>
        <pt x="521" y="-143" on="1"/>
        <pt x="462" y="-160" on="0"/>
        <pt x="323" y="-160" on="0"/>
        <pt x="192" y="-98" on="0"/>
        <pt x="96" y="6" on="0"/>
        <pt x="42" y="143" on="0"/>
        <pt x="42" y="293" on="0"/>
        <pt x="103" y="424" on="0"/>
        <pt x="207" y="520" on="0"/>
        <pt x="344" y="575" on="0"/>
        <pt x="419" y="575" on="1"/>
        <pt x="568" y="575" on="0"/>
        <pt x="662" y="478" on="1"/>
        <pt x="755" y="384" on="0"/>
        <pt x="755" y="230" on="1"/>
        <pt x="755" y="141" on="0"/>
        <pt x="710" y="72" on="1"/>
        <pt x="660" y="-4" on="0"/>
        <pt x="579" y="-4" on="1"/>
        <pt x="522" y="-4" on="0"/>
      </contour>
      <contour>
        <pt x="482" y="325" on="1"/>
        <pt x="447" y="345" on="0"/>
        <pt x="405" y="345" on="1"/>
        <pt x="329" y="345" on="0"/>
        <pt x="295" y="278" on="1"/>
        <pt x="281" y="251" on="0"/>
        <pt x="281" y="160" on="0"/>
        <pt x="305" y="103" on="0"/>
        <pt x="324" y="87" on="1"/>
        <pt x="356" y="59" on="0"/>
        <pt x="447" y="59" on="0"/>
        <pt x="482" y="84" on="1"/>
      </contour>
    </TTGlyph>
    <TTGlyph name="atilde" xMin="41" yMin="-4" xMax="421" yMax="663">
      <contour>
        <pt x="173" y="600" on="1"/>
        <pt x="132" y="596" on="0"/>
        <pt x="115" y="554" on="1"/>
        <pt x="72" y="580" on="1"/>
        <pt x="73" y="597" on="1"/>
        <pt x="87" y="621" on="0"/>
        <pt x="130" y="663" on="0"/>
        <pt x="166" y="663" on="1"/>
        <pt x="188" y="663" on="0"/>
        <pt x="236" y="640" on="0"/>
        <pt x="263" y="626" on="0"/>
        <pt x="275" y="622" on="1"/>
        <pt x="328" y="663" on="1"/>
        <pt x="365" y="601" on="1"/>
        <pt x="345" y="584" on="0"/>
        <pt x="309" y="563" on="0"/>
        <pt x="264" y="563" on="0"/>
        <pt x="236" y="575" on="0"/>
        <pt x="211" y="588" on="0"/>
        <pt x="187" y="600" on="0"/>
      </contour>
      <contour>
        <pt x="308" y="40" on="1"/>
        <pt x="260" y="-4" on="0"/>
        <pt x="190" y="-4" on="1"/>
        <pt x="128" y="-4" on="0"/>
        <pt x="86" y="31" on="1"/>
        <pt x="41" y="68" on="0"/>
        <pt x="41" y="179" on="0"/>
        <pt x="96" y="241" on="0"/>
        <pt x="136" y="258" on="1"/>
        <pt x="200" y="285" on="0"/>
        <pt x="303" y="288" on="1"/>
        <pt x="303" y="352" on="1"/>
        <pt x="303" y="384" on="0"/>
        <pt x="255" y="422" on="0"/>
        <pt x="215" y="422" on="1"/>
        <pt x="167" y="422" on="0"/>
        <pt x="146" y="409" on="1"/>
        <pt x="130" y="356" on="1"/>
        <pt x="48" y="371" on="1"/>
        <pt x="65" y="423" on="0"/>
        <pt x="112" y="452" on="1"/>
        <pt x="154" y="479" on="0"/>
        <pt x="209" y="479" on="1"/>
        <pt x="292" y="479" on="0"/>
        <pt x="366" y="402" on="0"/>
        <pt x="366" y="337" on="1"/>
        <pt x="366" y="79" on="1"/>
        <pt x="366" y="50" on="0"/>
        <pt x="389" y="50" on="1"/>
        <pt x="398" y="50" on="0"/>
        <pt x="410" y="55" on="1"/>
        <pt x="421" y="17" on="1"/>
        <pt x="400" y="-4" on="0"/>
        <pt x="366" y="-4" on="1"/>
        <pt x="320" y="-4" on="0"/>
      </contour>
      <contour>
        <pt x="128" y="184" on="1"/>
        <pt x="107" y="164" on="0"/>
        <pt x="107" y="96" on="0"/>
        <pt x="155" y="53" on="0"/>
        <pt x="192" y="53" on="1"/>
        <pt x="267" y="53" on="0"/>
        <pt x="303" y="108" on="1"/>
        <pt x="303" y="232" on="1"/>
        <pt x="178" y="232" on="0"/>
      </contour>
    </TTGlyph>
    <TTGlyph name="b" xMin="6" yMin="-4" xMax="442" yMax="727">
      <contour>
        <pt x="127" y="22" on="1"/>
        <pt x="96" y="0" on="0"/>
        <pt x="91" y="0" on="1"/>
        <pt x="75" y="0" on="1"/>
        <pt x="75" y="661" on="1"/>
        <pt x="14" y="657" on="1"/>
        <pt x="6" y="709" on="1"/>
        <pt x="111" y="727" on="1"/>
        <pt x="138" y="697" on="1"/>
        <pt x="138" y="442" on="1"/>
        <pt x="183" y="479" on="0"/>
        <pt x="297" y="479" on="0"/>
        <pt x="370" y="440" on="0"/>
        <pt x="394" y="408" on="1"/>
        <pt x="442" y="342" on="0"/>
        <pt x="442" y="242" on="1"/>
        <pt x="442" y="140" on="0"/>
        <pt x="392" y="72" on="1"/>
        <pt x="336" y="-4" on="0"/>
        <pt x="235" y="-4" on="1"/>
        <pt x="172" y="-4" on="0"/>
      </contour>
      <contour>
        <pt x="138" y="85" on="1"/>
        <pt x="178" y="53" on="0"/>
        <pt x="273" y="53" on="0"/>
        <pt x="328" y="85" on="0"/>
        <pt x="345" y="112" on="1"/>
        <pt x="376" y="160" on="0"/>
        <pt x="376" y="237" on="1"/>
        <pt x="376" y="359" on="0"/>
        <pt x="305" y="405" on="1"/>
        <pt x="279" y="422" on="0"/>
        <pt x="213" y="422" on="0"/>
        <pt x="152" y="394" on="0"/>
        <pt x="138" y="371" on="1"/>
      </contour>
    </TTGlyph>
    <TTGlyph name="backslash" xMin="23" yMin="0" xMax="429" yMax="691">
      <contour>
        <pt x="23" y="681" on="1"/>
        <pt x="24" y="691" on="1"/>
        <pt x="90" y="691" on="1"/>
        <pt x="429" y="13" on="1"/>
        <pt x="426" y="0" on="1"/>
        <pt x="365" y="0" on="1"/>
      </contour>
    </TTGlyph>
    <TTGlyph name="bar" xMin="82" yMin="-166" xMax="139" yMax="666">
      <contour>
        <pt x="139" y="666" on="1"/>
        <pt x="139" y="-166" on="1"/>
        <pt x="82" y="-166" on="1"/>
        <pt x="82" y="666" on="1"/>
      </contour>
    </TTGlyph>
    <TTGlyph name="braceleft" xMin="14" yMin="-161" xMax="309" yMax="699">
      <contour>
        <pt x="125" y="27" on="1"/>
        <pt x="126" y="106" on="1"/>
        <pt x="126" y="131" on="1"/>
        <pt x="126" y="182" on="0"/>
        <pt x="65" y="232" on="0"/>
        <pt x="14" y="232" on="1"/>
        <pt x="14" y="316" on="1"/>
        <pt x="59" y="316" on="0"/>
        <pt x="92" y="342" on="1"/>
        <pt x="126" y="370" on="0"/>
        <pt x="126" y="417" on="1"/>
        <pt x="126" y="440" on="1"/>
        <pt x="125" y="512" on="1"/>
        <pt x="125" y="540" on="1"/>
        <pt x="125" y="699" on="0"/>
        <pt x="248" y="699" on="1"/>
        <pt x="267" y="699" on="0"/>
        <pt x="309" y="694" on="1"/>
        <pt x="288" y="617" on="1"/>
        <pt x="231" y="634" on="1"/>
        <pt x="222" y="632" on="1"/>
        <pt x="191" y="619" on="0"/>
        <pt x="191" y="527" on="1"/>
        <pt x="193" y="426" on="1"/>
        <pt x="193" y="320" on="0"/>
        <pt x="130" y="290" on="1"/>
        <pt x="111" y="280" on="0"/>
        <pt x="78" y="276" on="1"/>
        <pt x="78" y="272" on="1"/>
        <pt x="137" y="265" on="0"/>
        <pt x="193" y="197" on="0"/>
        <pt x="193" y="118" on="1"/>
        <pt x="191" y="21" on="1"/>
        <pt x="191" y="-80" on="0"/>
        <pt x="222" y="-93" on="1"/>
        <pt x="231" y="-96" on="1"/>
        <pt x="288" y="-79" on="1"/>
        <pt x="309" y="-155" on="1"/>
        <pt x="275" y="-161" on="0"/>
        <pt x="211" y="-161" on="0"/>
        <pt x="164" y="-135" on="0"/>
        <pt x="150" y="-113" on="1"/>
        <pt x="125" y="-74" on="0"/>
        <pt x="125" y="-1" on="1"/>
      </contour>
    </TTGlyph>
    <TTGlyph name="braceright" xMin="0" yMin="-161" xMax="296" yMax="699">
      <contour>
        <pt x="184" y="512" on="1"/>
        <pt x="183" y="440" on="1"/>
        <pt x="183" y="417" on="1"/>
        <pt x="183" y="370" on="0"/>
        <pt x="218" y="342" on="1"/>
        <pt x="250" y="316" on="0"/>
        <pt x="296" y="316" on="1"/>
        <pt x="296" y="232" on="1"/>
        <pt x="244" y="232" on="0"/>
        <pt x="183" y="182" on="0"/>
        <pt x="183" y="131" on="1"/>
        <pt x="183" y="106" on="1"/>
        <pt x="184" y="27" on="1"/>
        <pt x="184" y="-1" on="1"/>
        <pt x="184" y="-161" on="0"/>
        <pt x="61" y="-161" on="1"/>
        <pt x="34" y="-161" on="0"/>
        <pt x="0" y="-155" on="1"/>
        <pt x="21" y="-79" on="1"/>
        <pt x="78" y="-96" on="1"/>
        <pt x="88" y="-93" on="1"/>
        <pt x="107" y="-85" on="0"/>
        <pt x="118" y="-20" on="0"/>
        <pt x="118" y="21" on="1"/>
        <pt x="116" y="118" on="1"/>
        <pt x="116" y="197" on="0"/>
        <pt x="144" y="231" on="1"/>
        <pt x="172" y="265" on="0"/>
        <pt x="231" y="272" on="1"/>
        <pt x="231" y="276" on="1"/>
        <pt x="170" y="284" on="0"/>
        <pt x="144" y="316" on="1"/>
        <pt x="116" y="353" on="0"/>
        <pt x="116" y="426" on="1"/>
        <pt x="118" y="527" on="1"/>
        <pt x="118" y="564" on="0"/>
        <pt x="107" y="624" on="0"/>
        <pt x="88" y="632" on="1"/>
        <pt x="78" y="634" on="1"/>
        <pt x="21" y="617" on="1"/>
        <pt x="0" y="694" on="1"/>
        <pt x="42" y="699" on="0"/>
        <pt x="61" y="699" on="1"/>
        <pt x="184" y="699" on="0"/>
        <pt x="184" y="540" on="1"/>
      </contour>
    </TTGlyph>
    <TTGlyph name="bracketleft" xMin="81" yMin="-179" xMax="300" yMax="669">
      <contour>
        <pt x="88" y="669" on="1"/>
        <pt x="294" y="669" on="1"/>
        <pt x="300" y="669" on="0"/>
        <pt x="300" y="661" on="1"/>
        <pt x="300" y="607" on="1"/>
        <pt x="149" y="607" on="1"/>
        <pt x="149" y="-117" on="1"/>
        <pt x="300" y="-117" on="1"/>
        <pt x="300" y="-171" on="1"/>
        <pt x="300" y="-179" on="0"/>
        <pt x="294" y="-179" on="1"/>
        <pt x="94" y="-179" on="1"/>
        <pt x="81" y="-163" on="1"/>
        <pt x="81" y="655" on="1"/>
      </contour>
    </TTGlyph>
    <TTGlyph name="bracketright" xMin="6" yMin="-179" xMax="225" yMax="669">
      <contour>
        <pt x="225" y="655" on="1"/>
        <pt x="225" y="-163" on="1"/>
        <pt x="212" y="-179" on="1"/>
        <pt x="12" y="-179" on="1"/>
        <pt x="6" y="-179" on="0"/>
        <pt x="6" y="-171" on="1"/>
        <pt x="6" y="-117" on="1"/>
        <pt x="157" y="-117" on="1"/>
        <pt x="157" y="607" on="1"/>
        <pt x="6" y="607" on="1"/>
        <pt x="6" y="661" on="1"/>
        <pt x="6" y="669" on="0"/>
        <pt x="12" y="669" on="1"/>
        <pt x="218" y="669" on="1"/>
      </contour>
    </TTGlyph>
    <TTGlyph name="brokenbar" xMin="84" yMin="-173" xMax="147" yMax="670">
      <contour>
        <pt x="84" y="290" on="1"/>
        <pt x="84" y="670" on="1"/>
        <pt x="147" y="670" on="1"/>
        <pt x="147" y="290" on="1"/>
      </contour>
      <contour>
        <pt x="84" y="-173" on="1"/>
        <pt x="84" y="201" on="1"/>
        <pt x="147" y="201" on="1"/>
        <pt x="147" y="-173" on="1"/>
      </contour>
    </TTGlyph>
    <TTGlyph name="bullet" xMin="49" yMin="306" xMax="204" yMax="461">
      <contour>
        <pt x="49" y="383" on="1"/>
        <pt x="49" y="415" on="0"/>
        <pt x="94" y="461" on="0"/>
        <pt x="126" y="461" on="1"/>
        <pt x="158" y="461" on="0"/>
        <pt x="204" y="415" on="0"/>
        <pt x="204" y="383" on="1"/>
        <pt x="204" y="351" on="0"/>
        <pt x="158" y="306" on="0"/>
        <pt x="126" y="306" on="1"/>
        <pt x="94" y="306" on="0"/>
        <pt x="49" y="351" on="0"/>
      </contour>
    </TTGlyph>
    <TTGlyph name="c" xMin="43" yMin="-4" xMax="383" yMax="479">
      <contour>
        <pt x="377" y="31" on="1"/>
        <pt x="332" y="-4" on="0"/>
        <pt x="248" y="-4" on="1"/>
        <pt x="147" y="-4" on="0"/>
        <pt x="92" y="68" on="1"/>
        <pt x="43" y="133" on="0"/>
        <pt x="43" y="233" on="1"/>
        <pt x="43" y="400" on="0"/>
        <pt x="155" y="458" on="1"/>
        <pt x="194" y="479" on="0"/>
        <pt x="244" y="479" on="1"/>
        <pt x="333" y="479" on="0"/>
        <pt x="383" y="442" on="1"/>
        <pt x="339" y="373" on="1"/>
        <pt x="280" y="420" on="1"/>
        <pt x="272" y="422" on="0"/>
        <pt x="261" y="422" on="1"/>
        <pt x="244" y="422" on="1"/>
        <pt x="170" y="422" on="0"/>
        <pt x="136" y="361" on="1"/>
        <pt x="109" y="312" on="0"/>
        <pt x="109" y="232" on="1"/>
        <pt x="109" y="110" on="0"/>
        <pt x="186" y="68" on="1"/>
        <pt x="214" y="53" on="0"/>
        <pt x="314" y="53" on="0"/>
        <pt x="360" y="80" on="1"/>
      </contour>
    </TTGlyph>
    <TTGlyph name="ccedilla" xMin="43" yMin="-196" xMax="383" yMax="479">
      <contour>
        <pt x="186" y="68" on="1"/>
        <pt x="214" y="53" on="0"/>
        <pt x="314" y="53" on="0"/>
        <pt x="360" y="80" on="1"/>
        <pt x="377" y="31" on="1"/>
        <pt x="338" y="1" on="0"/>
        <pt x="276" y="-3" on="1"/>
        <pt x="266" y="-32" on="1"/>
        <pt x="296" y="-34" on="0"/>
        <pt x="312" y="-49" on="1"/>
        <pt x="343" y="-75" on="0"/>
        <pt x="343" y="-148" on="0"/>
        <pt x="292" y="-196" on="0"/>
        <pt x="241" y="-196" on="1"/>
        <pt x="214" y="-196" on="0"/>
        <pt x="175" y="-183" on="0"/>
        <pt x="157" y="-176" on="1"/>
        <pt x="188" y="-116" on="1"/>
        <pt x="243" y="-150" on="1"/>
        <pt x="263" y="-150" on="0"/>
        <pt x="289" y="-130" on="0"/>
        <pt x="289" y="-99" on="0"/>
        <pt x="260" y="-73" on="0"/>
        <pt x="224" y="-73" on="1"/>
        <pt x="218" y="-73" on="1"/>
        <pt x="205" y="-60" on="1"/>
        <pt x="225" y="-3" on="1"/>
        <pt x="136" y="4" on="0"/>
        <pt x="86" y="75" on="1"/>
        <pt x="43" y="137" on="0"/>
        <pt x="43" y="233" on="1"/>
        <pt x="43" y="400" on="0"/>
        <pt x="155" y="458" on="1"/>
        <pt x="194" y="479" on="0"/>
        <pt x="244" y="479" on="1"/>
        <pt x="333" y="479" on="0"/>
        <pt x="383" y="442" on="1"/>
        <pt x="339" y="373" on="1"/>
        <pt x="280" y="420" on="1"/>
        <pt x="272" y="422" on="0"/>
        <pt x="261" y="422" on="1"/>
        <pt x="244" y="422" on="1"/>
        <pt x="170" y="422" on="0"/>
        <pt x="136" y="361" on="1"/>
        <pt x="109" y="312" on="0"/>
        <pt x="109" y="232" on="1"/>
        <pt x="109" y="110" on="0"/>
      </contour>
    </TTGlyph>
    <TTGlyph name="cedilla" xMin="72" yMin="-273" xMax="326" yMax="15">
      <contour>
        <pt x="155" y="-106" on="1"/>
        <pt x="137" y="-87" on="1"/>
        <pt x="175" y="15" on="1"/>
        <pt x="243" y="15" on="1"/>
        <pt x="221" y="-49" on="1"/>
        <pt x="289" y="-56" on="0"/>
        <pt x="316" y="-112" on="1"/>
        <pt x="326" y="-132" on="0"/>
        <pt x="326" y="-158" on="1"/>
        <pt x="326" y="-209" on="0"/>
        <pt x="257" y="-273" on="0"/>
        <pt x="187" y="-273" on="1"/>
        <pt x="150" y="-273" on="0"/>
        <pt x="97" y="-255" on="0"/>
        <pt x="72" y="-246" on="1"/>
        <pt x="115" y="-164" on="1"/>
        <pt x="189" y="-210" on="1"/>
        <pt x="216" y="-210" on="0"/>
        <pt x="252" y="-183" on="0"/>
        <pt x="252" y="-141" on="0"/>
        <pt x="213" y="-106" on="0"/>
        <pt x="164" y="-106" on="1"/>
      </contour>
    </TTGlyph>
    <TTGlyph name="cent" xMin="32" yMin="-158" xMax="377" yMax="609">
      <contour>
        <pt x="371" y="31" on="1"/>
        <pt x="332" y="1" on="0"/>
        <pt x="270" y="-3" on="1"/>
        <pt x="270" y="-158" on="1"/>
        <pt x="212" y="-158" on="1"/>
        <pt x="212" y="-2" on="1"/>
        <pt x="123" y="10" on="0"/>
        <pt x="76" y="78" on="1"/>
        <pt x="32" y="142" on="0"/>
        <pt x="32" y="233" on="1"/>
        <pt x="32" y="382" on="0"/>
        <pt x="132" y="448" on="1"/>
        <pt x="165" y="471" on="0"/>
        <pt x="212" y="477" on="1"/>
        <pt x="212" y="609" on="1"/>
        <pt x="270" y="609" on="1"/>
        <pt x="270" y="478" on="1"/>
        <pt x="336" y="471" on="0"/>
        <pt x="377" y="442" on="1"/>
        <pt x="333" y="373" on="1"/>
        <pt x="274" y="420" on="1"/>
        <pt x="270" y="421" on="1"/>
        <pt x="270" y="53" on="1"/>
        <pt x="316" y="57" on="0"/>
        <pt x="354" y="80" on="1"/>
      </contour>
      <contour>
        <pt x="98" y="233" on="1"/>
        <pt x="98" y="203" on="0"/>
        <pt x="110" y="146" on="0"/>
        <pt x="124" y="122" on="1"/>
        <pt x="153" y="70" on="0"/>
        <pt x="212" y="57" on="1"/>
        <pt x="212" y="420" on="1"/>
        <pt x="153" y="409" on="0"/>
        <pt x="122" y="351" on="1"/>
        <pt x="98" y="304" on="0"/>
      </contour>
    </TTGlyph>
    <TTGlyph name="colon" xMin="63" yMin="177" xMax="167" yMax="491">
      <contour>
        <pt x="94" y="177" on="0"/>
        <pt x="63" y="207" on="0"/>
        <pt x="63" y="250" on="0"/>
        <pt x="94" y="281" on="0"/>
        <pt x="137" y="281" on="0"/>
        <pt x="167" y="250" on="0"/>
        <pt x="167" y="207" on="0"/>
        <pt x="137" y="177" on="0"/>
      </contour>
      <contour>
        <pt x="94" y="387" on="0"/>
        <pt x="63" y="417" on="0"/>
        <pt x="63" y="460" on="0"/>
        <pt x="94" y="491" on="0"/>
        <pt x="137" y="491" on="0"/>
        <pt x="167" y="460" on="0"/>
        <pt x="167" y="417" on="0"/>
        <pt x="137" y="387" on="0"/>
      </contour>
    </TTGlyph>
    <TTGlyph name="comma" xMin="33" yMin="-113" xMax="140" yMax="128">
      <contour>
        <pt x="131" y="128" on="1"/>
        <pt x="140" y="92" on="0"/>
        <pt x="140" y="38" on="0"/>
        <pt x="129" y="-12" on="0"/>
        <pt x="119" y="-35" on="1"/>
        <pt x="96" y="-88" on="0"/>
        <pt x="69" y="-113" on="1"/>
        <pt x="33" y="-95" on="1"/>
        <pt x="33" y="-81" on="1"/>
        <pt x="76" y="-1" on="1"/>
        <pt x="53" y="115" on="1"/>
      </contour>
    </TTGlyph>
    <TTGlyph name="copyright" xMin="41" yMin="49" xMax="687" yMax="695">
      <contour>
        <pt x="478" y="198" on="1"/>
        <pt x="430" y="168" on="0"/>
        <pt x="324" y="168" on="0"/>
        <pt x="253" y="196" on="0"/>
        <pt x="227" y="222" on="1"/>
        <pt x="171" y="278" on="0"/>
        <pt x="171" y="365" on="1"/>
        <pt x="171" y="458" on="0"/>
        <pt x="228" y="516" on="1"/>
        <pt x="282" y="572" on="0"/>
        <pt x="370" y="572" on="1"/>
        <pt x="424" y="572" on="0"/>
        <pt x="450" y="565" on="1"/>
        <pt x="460" y="456" on="1"/>
        <pt x="420" y="456" on="1"/>
        <pt x="407" y="512" on="1"/>
        <pt x="397" y="514" on="0"/>
        <pt x="339" y="514" on="0"/>
        <pt x="289" y="496" on="0"/>
        <pt x="270" y="478" on="1"/>
        <pt x="230" y="437" on="0"/>
        <pt x="230" y="303" on="0"/>
        <pt x="304" y="226" on="0"/>
        <pt x="370" y="226" on="1"/>
        <pt x="394" y="226" on="0"/>
        <pt x="418" y="232" on="1"/>
        <pt x="454" y="242" on="0"/>
        <pt x="463" y="251" on="1"/>
      </contour>
      <contour>
        <pt x="41" y="372" on="1"/>
        <pt x="41" y="507" on="0"/>
        <pt x="132" y="600" on="1"/>
        <pt x="225" y="695" on="0"/>
        <pt x="364" y="695" on="1"/>
        <pt x="434" y="695" on="0"/>
        <pt x="553" y="644" on="0"/>
        <pt x="596" y="600" on="1"/>
        <pt x="687" y="507" on="0"/>
        <pt x="687" y="372" on="1"/>
        <pt x="687" y="237" on="0"/>
        <pt x="596" y="144" on="1"/>
        <pt x="553" y="100" on="0"/>
        <pt x="434" y="49" on="0"/>
        <pt x="293" y="49" on="0"/>
        <pt x="175" y="100" on="0"/>
        <pt x="132" y="144" on="1"/>
        <pt x="41" y="237" on="0"/>
      </contour>
      <contour>
        <pt x="99" y="372" on="1"/>
        <pt x="99" y="257" on="0"/>
        <pt x="249" y="107" on="0"/>
        <pt x="364" y="107" on="1"/>
        <pt x="479" y="107" on="0"/>
        <pt x="629" y="257" on="0"/>
        <pt x="629" y="372" on="1"/>
        <pt x="629" y="487" on="0"/>
        <pt x="479" y="637" on="0"/>
        <pt x="364" y="637" on="1"/>
        <pt x="249" y="637" on="0"/>
        <pt x="99" y="487" on="0"/>
      </contour>
    </TTGlyph>
    <TTGlyph name="currency" xMin="89" yMin="-214" xMax="168" yMax="800">
      <contour>
        <pt x="168" y="800" on="1"/>
        <pt x="168" y="356" on="1"/>
        <pt x="89" y="356" on="1"/>
        <pt x="89" y="800" on="1"/>
      </contour>
      <contour>
        <pt x="89" y="-214" on="1"/>
        <pt x="89" y="265" on="1"/>
        <pt x="168" y="265" on="1"/>
        <pt x="168" y="-214" on="1"/>
      </contour>
    </TTGlyph>
    <TTGlyph name="currency." xMin="47" yMin="117" xMax="507" yMax="576">
      <contour>
        <pt x="106" y="222" on="1"/>
        <pt x="67" y="275" on="0"/>
        <pt x="67" y="346" on="1"/>
        <pt x="67" y="417" on="0"/>
        <pt x="106" y="470" on="1"/>
        <pt x="47" y="530" on="1"/>
        <pt x="93" y="576" on="1"/>
        <pt x="152" y="517" on="1"/>
        <pt x="205" y="558" on="0"/>
        <pt x="347" y="558" on="0"/>
        <pt x="402" y="518" on="1"/>
        <pt x="461" y="576" on="1"/>
        <pt x="507" y="530" on="1"/>
        <pt x="448" y="471" on="1"/>
        <pt x="489" y="418" on="0"/>
        <pt x="489" y="346" on="1"/>
        <pt x="489" y="274" on="0"/>
        <pt x="448" y="221" on="1"/>
        <pt x="507" y="163" on="1"/>
        <pt x="461" y="117" on="1"/>
        <pt x="402" y="175" on="1"/>
        <pt x="350" y="135" on="0"/>
        <pt x="205" y="135" on="0"/>
        <pt x="152" y="176" on="1"/>
        <pt x="93" y="117" on="1"/>
        <pt x="47" y="163" on="1"/>
      </contour>
      <contour>
        <pt x="135" y="346" on="1"/>
        <pt x="135" y="314" on="0"/>
        <pt x="156" y="260" on="0"/>
        <pt x="175" y="240" on="1"/>
        <pt x="216" y="198" on="0"/>
        <pt x="340" y="198" on="0"/>
        <pt x="381" y="240" on="1"/>
        <pt x="421" y="282" on="0"/>
        <pt x="421" y="346" on="1"/>
        <pt x="421" y="409" on="0"/>
        <pt x="381" y="452" on="1"/>
        <pt x="341" y="496" on="0"/>
        <pt x="215" y="496" on="0"/>
        <pt x="175" y="452" on="1"/>
        <pt x="135" y="409" on="0"/>
      </contour>
    </TTGlyph>
    <TTGlyph name="d" xMin="42" yMin="-5" xMax="464" yMax="727">
      <contour>
        <pt x="249" y="479" on="1"/>
        <pt x="301" y="479" on="0"/>
        <pt x="346" y="459" on="1"/>
        <pt x="346" y="661" on="1"/>
        <pt x="285" y="657" on="1"/>
        <pt x="277" y="709" on="1"/>
        <pt x="382" y="727" on="1"/>
        <pt x="409" y="697" on="1"/>
        <pt x="409" y="79" on="1"/>
        <pt x="409" y="50" on="0"/>
        <pt x="432" y="50" on="1"/>
        <pt x="440" y="50" on="0"/>
        <pt x="453" y="55" on="1"/>
        <pt x="464" y="15" on="1"/>
        <pt x="445" y="-4" on="0"/>
        <pt x="365" y="-4" on="0"/>
        <pt x="352" y="37" on="1"/>
        <pt x="307" y="-4" on="0"/>
        <pt x="189" y="-4" on="0"/>
        <pt x="115" y="38" on="0"/>
        <pt x="90" y="72" on="1"/>
        <pt x="42" y="138" on="0"/>
        <pt x="42" y="235" on="1"/>
        <pt x="42" y="340" on="0"/>
        <pt x="94" y="407" on="1"/>
        <pt x="149" y="479" on="0"/>
      </contour>
      <contour>
        <pt x="346" y="387" on="1"/>
        <pt x="315" y="422" on="0"/>
        <pt x="254" y="422" on="1"/>
        <pt x="180" y="422" on="0"/>
        <pt x="140" y="364" on="1"/>
        <pt x="108" y="316" on="0"/>
        <pt x="108" y="239" on="1"/>
        <pt x="108" y="117" on="0"/>
        <pt x="182" y="70" on="1"/>
        <pt x="208" y="53" on="0"/>
        <pt x="242" y="53" on="1"/>
        <pt x="313" y="53" on="0"/>
        <pt x="346" y="104" on="1"/>
      </contour>
    </TTGlyph>
    <TTGlyph name="degree" xMin="38" yMin="525" xMax="226" yMax="734">
      <contour>
        <pt x="38" y="630" on="1"/>
        <pt x="38" y="675" on="0"/>
        <pt x="84" y="734" on="0"/>
        <pt x="132" y="734" on="1"/>
        <pt x="180" y="734" on="0"/>
        <pt x="226" y="675" on="0"/>
        <pt x="226" y="630" on="1"/>
        <pt x="226" y="585" on="0"/>
        <pt x="180" y="525" on="0"/>
        <pt x="132" y="525" on="1"/>
        <pt x="84" y="525" on="0"/>
        <pt x="38" y="585" on="0"/>
      </contour>
      <contour>
        <pt x="111" y="687" on="0"/>
        <pt x="91" y="649" on="0"/>
        <pt x="91" y="609" on="0"/>
        <pt x="111" y="572" on="0"/>
        <pt x="132" y="572" on="1"/>
        <pt x="153" y="572" on="0"/>
        <pt x="174" y="609" on="0"/>
        <pt x="174" y="649" on="0"/>
        <pt x="153" y="687" on="0"/>
        <pt x="132" y="687" on="1"/>
      </contour>
    </TTGlyph>
    <TTGlyph name="dieresis" xMin="52" yMin="478" xMax="303" yMax="577">
      <contour>
        <pt x="80" y="478" on="0"/>
        <pt x="52" y="507" on="0"/>
        <pt x="52" y="548" on="0"/>
        <pt x="80" y="577" on="0"/>
        <pt x="121" y="577" on="0"/>
        <pt x="151" y="548" on="0"/>
        <pt x="151" y="507" on="0"/>
        <pt x="121" y="478" on="0"/>
      </contour>
      <contour>
        <pt x="234" y="478" on="0"/>
        <pt x="204" y="507" on="0"/>
        <pt x="204" y="548" on="0"/>
        <pt x="234" y="577" on="0"/>
        <pt x="275" y="577" on="0"/>
        <pt x="303" y="548" on="0"/>
        <pt x="303" y="507" on="0"/>
        <pt x="275" y="478" on="0"/>
      </contour>
    </TTGlyph>
    <TTGlyph name="divide" xMin="56" yMin="130" xMax="358" yMax="524">
      <contour>
        <pt x="56" y="360" on="1"/>
        <pt x="358" y="360" on="1"/>
        <pt x="358" y="297" on="1"/>
        <pt x="56" y="297" on="1"/>
      </contour>
      <contour>
        <pt x="188" y="130" on="0"/>
        <pt x="157" y="160" on="0"/>
        <pt x="157" y="203" on="0"/>
        <pt x="188" y="234" on="0"/>
        <pt x="231" y="234" on="0"/>
        <pt x="261" y="203" on="0"/>
        <pt x="261" y="160" on="0"/>
        <pt x="231" y="130" on="0"/>
      </contour>
      <contour>
        <pt x="188" y="420" on="0"/>
        <pt x="157" y="450" on="0"/>
        <pt x="157" y="493" on="0"/>
        <pt x="188" y="524" on="0"/>
        <pt x="231" y="524" on="0"/>
        <pt x="261" y="493" on="0"/>
        <pt x="261" y="450" on="0"/>
        <pt x="231" y="420" on="0"/>
      </contour>
    </TTGlyph>
    <TTGlyph name="dollar" xMin="45" yMin="-108" xMax="437" yMax="770">
      <contour>
        <pt x="214" y="-108" on="1"/>
        <pt x="214" y="-4" on="1"/>
        <pt x="121" y="-2" on="0"/>
        <pt x="56" y="29" on="1"/>
        <pt x="45" y="183" on="1"/>
        <pt x="103" y="183" on="1"/>
        <pt x="130" y="84" on="1"/>
        <pt x="168" y="66" on="0"/>
        <pt x="214" y="64" on="1"/>
        <pt x="214" y="334" on="1"/>
        <pt x="130" y="372" on="0"/>
        <pt x="73" y="423" on="0"/>
        <pt x="45" y="480" on="0"/>
        <pt x="45" y="555" on="0"/>
        <pt x="72" y="613" on="0"/>
        <pt x="95" y="634" on="1"/>
        <pt x="141" y="678" on="0"/>
        <pt x="214" y="688" on="1"/>
        <pt x="214" y="770" on="1"/>
        <pt x="272" y="770" on="1"/>
        <pt x="272" y="690" on="1"/>
        <pt x="328" y="687" on="0"/>
        <pt x="402" y="659" on="1"/>
        <pt x="415" y="505" on="1"/>
        <pt x="360" y="505" on="1"/>
        <pt x="318" y="611" on="1"/>
        <pt x="295" y="620" on="0"/>
        <pt x="272" y="623" on="1"/>
        <pt x="272" y="386" on="1"/>
        <pt x="287" y="380" on="1"/>
        <pt x="409" y="323" on="0"/>
        <pt x="430" y="240" on="1"/>
        <pt x="437" y="215" on="0"/>
        <pt x="437" y="150" on="0"/>
        <pt x="411" y="86" on="0"/>
        <pt x="389" y="62" on="1"/>
        <pt x="346" y="15" on="0"/>
        <pt x="272" y="0" on="1"/>
        <pt x="272" y="-108" on="1"/>
      </contour>
      <contour>
        <pt x="310" y="80" on="0"/>
        <pt x="366" y="134" on="0"/>
        <pt x="366" y="219" on="0"/>
        <pt x="331" y="278" on="0"/>
        <pt x="280" y="304" on="1"/>
        <pt x="274" y="306" on="0"/>
        <pt x="272" y="308" on="1"/>
        <pt x="272" y="70" on="1"/>
      </contour>
      <contour>
        <pt x="124" y="565" on="1"/>
        <pt x="116" y="549" on="0"/>
        <pt x="116" y="505" on="0"/>
        <pt x="132" y="469" on="0"/>
        <pt x="146" y="456" on="1"/>
        <pt x="170" y="431" on="0"/>
        <pt x="214" y="411" on="1"/>
        <pt x="214" y="622" on="1"/>
        <pt x="147" y="611" on="0"/>
      </contour>
    </TTGlyph>
    <TTGlyph name="e" xMin="42" yMin="-4" xMax="401" yMax="479">
      <contour>
        <pt x="398" y="34" on="1"/>
        <pt x="346" y="-4" on="0"/>
        <pt x="259" y="-4" on="1"/>
        <pt x="154" y="-4" on="0"/>
        <pt x="96" y="65" on="1"/>
        <pt x="42" y="129" on="0"/>
        <pt x="42" y="232" on="1"/>
        <pt x="42" y="338" on="0"/>
        <pt x="97" y="406" on="1"/>
        <pt x="155" y="479" on="0"/>
        <pt x="252" y="479" on="1"/>
        <pt x="315" y="479" on="0"/>
        <pt x="357" y="444" on="1"/>
        <pt x="401" y="408" on="0"/>
        <pt x="401" y="294" on="0"/>
        <pt x="346" y="230" on="0"/>
        <pt x="303" y="213" on="1"/>
        <pt x="232" y="185" on="0"/>
        <pt x="111" y="185" on="1"/>
        <pt x="121" y="127" on="0"/>
        <pt x="194" y="52" on="0"/>
        <pt x="332" y="52" on="0"/>
        <pt x="381" y="88" on="1"/>
      </contour>
      <contour>
        <pt x="125" y="244" on="1"/>
        <pt x="214" y="244" on="0"/>
        <pt x="290" y="269" on="0"/>
        <pt x="335" y="310" on="0"/>
        <pt x="335" y="348" on="1"/>
        <pt x="335" y="385" on="0"/>
        <pt x="308" y="405" on="1"/>
        <pt x="285" y="422" on="0"/>
        <pt x="216" y="422" on="0"/>
        <pt x="164" y="393" on="0"/>
        <pt x="146" y="368" on="1"/>
        <pt x="110" y="317" on="0"/>
        <pt x="108" y="244" on="1"/>
      </contour>
    </TTGlyph>
    <TTGlyph name="eacute" xMin="42" yMin="-4" xMax="401" yMax="725">
      <contour>
        <pt x="398" y="34" on="1"/>
        <pt x="346" y="-4" on="0"/>
        <pt x="259" y="-4" on="1"/>
        <pt x="154" y="-4" on="0"/>
        <pt x="96" y="65" on="1"/>
        <pt x="42" y="129" on="0"/>
        <pt x="42" y="232" on="1"/>
        <pt x="42" y="338" on="0"/>
        <pt x="97" y="406" on="1"/>
        <pt x="155" y="479" on="0"/>
        <pt x="252" y="479" on="1"/>
        <pt x="315" y="479" on="0"/>
        <pt x="357" y="444" on="1"/>
        <pt x="401" y="408" on="0"/>
        <pt x="401" y="294" on="0"/>
        <pt x="346" y="230" on="0"/>
        <pt x="303" y="213" on="1"/>
        <pt x="232" y="185" on="0"/>
        <pt x="111" y="185" on="1"/>
        <pt x="121" y="127" on="0"/>
        <pt x="194" y="52" on="0"/>
        <pt x="332" y="52" on="0"/>
        <pt x="381" y="88" on="1"/>
      </contour>
      <contour>
        <pt x="125" y="244" on="1"/>
        <pt x="214" y="244" on="0"/>
        <pt x="290" y="269" on="0"/>
        <pt x="335" y="310" on="0"/>
        <pt x="335" y="348" on="1"/>
        <pt x="335" y="385" on="0"/>
        <pt x="308" y="405" on="1"/>
        <pt x="285" y="422" on="0"/>
        <pt x="216" y="422" on="0"/>
        <pt x="164" y="393" on="0"/>
        <pt x="146" y="368" on="1"/>
        <pt x="110" y="317" on="0"/>
        <pt x="108" y="244" on="1"/>
      </contour>
      <contour>
        <pt x="177" y="586" on="1"/>
        <pt x="281" y="725" on="1"/>
        <pt x="308" y="725" on="1"/>
        <pt x="352" y="673" on="1"/>
        <pt x="212" y="553" on="1"/>
      </contour>
    </TTGlyph>
    <TTGlyph name="ecircumflex" xMin="42" yMin="-4" xMax="401" yMax="691">
      <contour>
        <pt x="120" y="548" on="1"/>
        <pt x="236" y="691" on="1"/>
        <pt x="252" y="691" on="1"/>
        <pt x="368" y="550" on="1"/>
        <pt x="365" y="544" on="1"/>
        <pt x="310" y="544" on="1"/>
        <pt x="244" y="602" on="1"/>
        <pt x="178" y="544" on="1"/>
        <pt x="124" y="544" on="1"/>
      </contour>
      <contour>
        <pt x="398" y="34" on="1"/>
        <pt x="346" y="-4" on="0"/>
        <pt x="259" y="-4" on="1"/>
        <pt x="154" y="-4" on="0"/>
        <pt x="96" y="65" on="1"/>
        <pt x="42" y="129" on="0"/>
        <pt x="42" y="232" on="1"/>
        <pt x="42" y="338" on="0"/>
        <pt x="97" y="406" on="1"/>
        <pt x="155" y="479" on="0"/>
        <pt x="252" y="479" on="1"/>
        <pt x="315" y="479" on="0"/>
        <pt x="357" y="444" on="1"/>
        <pt x="401" y="408" on="0"/>
        <pt x="401" y="294" on="0"/>
        <pt x="346" y="230" on="0"/>
        <pt x="303" y="213" on="1"/>
        <pt x="232" y="185" on="0"/>
        <pt x="111" y="185" on="1"/>
        <pt x="121" y="127" on="0"/>
        <pt x="194" y="52" on="0"/>
        <pt x="332" y="52" on="0"/>
        <pt x="381" y="88" on="1"/>
      </contour>
      <contour>
        <pt x="125" y="244" on="1"/>
        <pt x="214" y="244" on="0"/>
        <pt x="290" y="269" on="0"/>
        <pt x="335" y="310" on="0"/>
        <pt x="335" y="348" on="1"/>
        <pt x="335" y="385" on="0"/>
        <pt x="308" y="405" on="1"/>
        <pt x="285" y="422" on="0"/>
        <pt x="216" y="422" on="0"/>
        <pt x="164" y="393" on="0"/>
        <pt x="146" y="368" on="1"/>
        <pt x="110" y="317" on="0"/>
        <pt x="108" y="244" on="1"/>
      </contour>
    </TTGlyph>
    <TTGlyph name="edieresis" xMin="42" yMin="-4" xMax="401" yMax="668">
      <contour>
        <pt x="150" y="570" on="0"/>
        <pt x="122" y="600" on="0"/>
        <pt x="122" y="639" on="0"/>
        <pt x="150" y="668" on="0"/>
        <pt x="190" y="668" on="0"/>
        <pt x="219" y="639" on="0"/>
        <pt x="219" y="600" on="0"/>
        <pt x="190" y="570" on="0"/>
      </contour>
      <contour>
        <pt x="289" y="570" on="0"/>
        <pt x="262" y="600" on="0"/>
        <pt x="262" y="639" on="0"/>
        <pt x="289" y="668" on="0"/>
        <pt x="329" y="668" on="0"/>
        <pt x="357" y="639" on="0"/>
        <pt x="357" y="600" on="0"/>
        <pt x="329" y="570" on="0"/>
      </contour>
      <contour>
        <pt x="398" y="34" on="1"/>
        <pt x="346" y="-4" on="0"/>
        <pt x="259" y="-4" on="1"/>
        <pt x="154" y="-4" on="0"/>
        <pt x="96" y="65" on="1"/>
        <pt x="42" y="129" on="0"/>
        <pt x="42" y="232" on="1"/>
        <pt x="42" y="338" on="0"/>
        <pt x="97" y="406" on="1"/>
        <pt x="155" y="479" on="0"/>
        <pt x="252" y="479" on="1"/>
        <pt x="315" y="479" on="0"/>
        <pt x="357" y="444" on="1"/>
        <pt x="401" y="408" on="0"/>
        <pt x="401" y="294" on="0"/>
        <pt x="346" y="230" on="0"/>
        <pt x="303" y="213" on="1"/>
        <pt x="232" y="185" on="0"/>
        <pt x="111" y="185" on="1"/>
        <pt x="121" y="127" on="0"/>
        <pt x="194" y="52" on="0"/>
        <pt x="332" y="52" on="0"/>
        <pt x="381" y="88" on="1"/>
      </contour>
      <contour>
        <pt x="125" y="244" on="1"/>
        <pt x="214" y="244" on="0"/>
        <pt x="290" y="269" on="0"/>
        <pt x="335" y="310" on="0"/>
        <pt x="335" y="348" on="1"/>
        <pt x="335" y="385" on="0"/>
        <pt x="308" y="405" on="1"/>
        <pt x="285" y="422" on="0"/>
        <pt x="216" y="422" on="0"/>
        <pt x="164" y="393" on="0"/>
        <pt x="146" y="368" on="1"/>
        <pt x="110" y="317" on="0"/>
        <pt x="108" y="244" on="1"/>
      </contour>
    </TTGlyph>
    <TTGlyph name="egrave" xMin="42" yMin="-4" xMax="401" yMax="726">
      <contour>
        <pt x="398" y="34" on="1"/>
        <pt x="346" y="-4" on="0"/>
        <pt x="259" y="-4" on="1"/>
        <pt x="154" y="-4" on="0"/>
        <pt x="96" y="65" on="1"/>
        <pt x="42" y="129" on="0"/>
        <pt x="42" y="232" on="1"/>
        <pt x="42" y="338" on="0"/>
        <pt x="97" y="406" on="1"/>
        <pt x="155" y="479" on="0"/>
        <pt x="252" y="479" on="1"/>
        <pt x="315" y="479" on="0"/>
        <pt x="357" y="444" on="1"/>
        <pt x="401" y="408" on="0"/>
        <pt x="401" y="294" on="0"/>
        <pt x="346" y="230" on="0"/>
        <pt x="303" y="213" on="1"/>
        <pt x="232" y="185" on="0"/>
        <pt x="111" y="185" on="1"/>
        <pt x="121" y="127" on="0"/>
        <pt x="194" y="52" on="0"/>
        <pt x="332" y="52" on="0"/>
        <pt x="381" y="88" on="1"/>
      </contour>
      <contour>
        <pt x="125" y="244" on="1"/>
        <pt x="214" y="244" on="0"/>
        <pt x="290" y="269" on="0"/>
        <pt x="335" y="310" on="0"/>
        <pt x="335" y="348" on="1"/>
        <pt x="335" y="385" on="0"/>
        <pt x="308" y="405" on="1"/>
        <pt x="285" y="422" on="0"/>
        <pt x="216" y="422" on="0"/>
        <pt x="164" y="393" on="0"/>
        <pt x="146" y="368" on="1"/>
        <pt x="110" y="317" on="0"/>
        <pt x="108" y="244" on="1"/>
      </contour>
      <contour>
        <pt x="269" y="553" on="1"/>
        <pt x="129" y="673" on="1"/>
        <pt x="173" y="726" on="1"/>
        <pt x="199" y="726" on="1"/>
        <pt x="303" y="586" on="1"/>
      </contour>
    </TTGlyph>
    <TTGlyph name="eight" xMin="47" yMin="-4" xMax="466" yMax="692">
      <contour>
        <pt x="174" y="692" on="0"/>
        <pt x="336" y="692" on="0"/>
        <pt x="430" y="609" on="0"/>
        <pt x="430" y="533" on="1"/>
        <pt x="430" y="486" on="0"/>
        <pt x="372" y="413" on="0"/>
        <pt x="321" y="373" on="1"/>
        <pt x="438" y="303" on="0"/>
        <pt x="459" y="228" on="1"/>
        <pt x="466" y="202" on="0"/>
        <pt x="466" y="140" on="0"/>
        <pt x="440" y="78" on="0"/>
        <pt x="414" y="52" on="1"/>
        <pt x="355" y="-4" on="0"/>
        <pt x="254" y="-4" on="1"/>
        <pt x="153" y="-4" on="0"/>
        <pt x="96" y="52" on="1"/>
        <pt x="47" y="102" on="0"/>
        <pt x="47" y="172" on="1"/>
        <pt x="47" y="265" on="0"/>
        <pt x="138" y="334" on="1"/>
        <pt x="163" y="353" on="0"/>
        <pt x="188" y="369" on="1"/>
        <pt x="143" y="400" on="0"/>
        <pt x="80" y="477" on="0"/>
        <pt x="80" y="602" on="0"/>
      </contour>
      <contour>
        <pt x="139" y="250" on="0"/>
        <pt x="115" y="203" on="0"/>
        <pt x="115" y="145" on="0"/>
        <pt x="138" y="103" on="0"/>
        <pt x="157" y="88" on="1"/>
        <pt x="196" y="59" on="0"/>
        <pt x="254" y="59" on="1"/>
        <pt x="314" y="59" on="0"/>
        <pt x="354" y="88" on="1"/>
        <pt x="397" y="121" on="0"/>
        <pt x="397" y="173" on="1"/>
        <pt x="397" y="247" on="0"/>
        <pt x="298" y="302" on="1"/>
        <pt x="248" y="330" on="0"/>
        <pt x="243" y="335" on="1"/>
        <pt x="222" y="320" on="0"/>
        <pt x="177" y="288" on="0"/>
      </contour>
      <contour>
        <pt x="346" y="485" on="0"/>
        <pt x="362" y="520" on="0"/>
        <pt x="362" y="564" on="0"/>
        <pt x="342" y="598" on="0"/>
        <pt x="326" y="608" on="1"/>
        <pt x="295" y="629" on="0"/>
        <pt x="254" y="629" on="1"/>
        <pt x="219" y="629" on="0"/>
        <pt x="171" y="600" on="0"/>
        <pt x="148" y="567" on="0"/>
        <pt x="148" y="518" on="0"/>
        <pt x="164" y="481" on="0"/>
        <pt x="179" y="465" on="1"/>
        <pt x="198" y="445" on="0"/>
        <pt x="265" y="405" on="1"/>
        <pt x="315" y="447" on="0"/>
      </contour>
    </TTGlyph>
    <TTGlyph name="emdash" xMin="61" yMin="301" xMax="662" yMax="363">
      <contour>
        <pt x="61" y="363" on="1"/>
        <pt x="662" y="363" on="1"/>
        <pt x="662" y="301" on="1"/>
        <pt x="61" y="301" on="1"/>
      </contour>
    </TTGlyph>
    <TTGlyph name="endash" xMin="61" yMin="301" xMax="432" yMax="363">
      <contour>
        <pt x="61" y="363" on="1"/>
        <pt x="432" y="363" on="1"/>
        <pt x="432" y="301" on="1"/>
        <pt x="61" y="301" on="1"/>
      </contour>
    </TTGlyph>
    <TTGlyph name="equal" xMin="68" yMin="247" xMax="370" yMax="434">
      <contour>
        <pt x="68" y="310" on="1"/>
        <pt x="370" y="310" on="1"/>
        <pt x="370" y="247" on="1"/>
        <pt x="68" y="247" on="1"/>
      </contour>
      <contour>
        <pt x="68" y="434" on="1"/>
        <pt x="370" y="434" on="1"/>
        <pt x="370" y="371" on="1"/>
        <pt x="68" y="371" on="1"/>
      </contour>
    </TTGlyph>
    <TTGlyph name="eth" xMin="43" yMin="-4" xMax="483" yMax="728">
      <contour>
        <pt x="370" y="574" on="1"/>
        <pt x="459" y="451" on="0"/>
        <pt x="459" y="298" on="1"/>
        <pt x="459" y="99" on="0"/>
        <pt x="357" y="25" on="1"/>
        <pt x="317" y="-4" on="0"/>
        <pt x="200" y="-4" on="0"/>
        <pt x="122" y="33" on="0"/>
        <pt x="96" y="65" on="1"/>
        <pt x="43" y="128" on="0"/>
        <pt x="43" y="231" on="1"/>
        <pt x="43" y="330" on="0"/>
        <pt x="96" y="394" on="1"/>
        <pt x="150" y="458" on="0"/>
        <pt x="237" y="458" on="1"/>
        <pt x="324" y="458" on="0"/>
        <pt x="378" y="411" on="1"/>
        <pt x="358" y="485" on="0"/>
        <pt x="314" y="544" on="1"/>
        <pt x="197" y="482" on="1"/>
        <pt x="169" y="528" on="1"/>
        <pt x="275" y="589" on="1"/>
        <pt x="226" y="638" on="0"/>
        <pt x="159" y="675" on="1"/>
        <pt x="188" y="728" on="1"/>
        <pt x="267" y="690" on="0"/>
        <pt x="331" y="622" on="1"/>
        <pt x="450" y="692" on="1"/>
        <pt x="483" y="633" on="1"/>
      </contour>
      <contour>
        <pt x="237" y="401" on="1"/>
        <pt x="209" y="401" on="0"/>
        <pt x="161" y="375" on="0"/>
        <pt x="144" y="352" on="1"/>
        <pt x="111" y="305" on="0"/>
        <pt x="111" y="230" on="1"/>
        <pt x="111" y="140" on="0"/>
        <pt x="156" y="92" on="1"/>
        <pt x="192" y="53" on="0"/>
        <pt x="293" y="53" on="0"/>
        <pt x="347" y="95" on="0"/>
        <pt x="362" y="128" on="1"/>
        <pt x="388" y="183" on="0"/>
        <pt x="390" y="275" on="1"/>
        <pt x="384" y="334" on="0"/>
        <pt x="337" y="370" on="1"/>
        <pt x="296" y="401" on="0"/>
      </contour>
    </TTGlyph>
    <TTGlyph name="exclam" xMin="72" yMin="-3" xMax="180" yMax="691">
      <contour>
        <pt x="95" y="228" on="1"/>
        <pt x="77" y="679" on="1"/>
        <pt x="159" y="691" on="1"/>
        <pt x="180" y="653" on="1"/>
        <pt x="153" y="228" on="1"/>
      </contour>
      <contour>
        <pt x="102" y="-3" on="0"/>
        <pt x="72" y="27" on="0"/>
        <pt x="72" y="70" on="0"/>
        <pt x="102" y="101" on="0"/>
        <pt x="145" y="101" on="0"/>
        <pt x="176" y="70" on="0"/>
        <pt x="176" y="27" on="0"/>
        <pt x="145" y="-3" on="0"/>
      </contour>
    </TTGlyph>
    <TTGlyph name="exclamdown" xMin="65" yMin="-203" xMax="173" yMax="491">
      <contour>
        <pt x="146" y="260" on="1"/>
        <pt x="173" y="-165" on="1"/>
        <pt x="152" y="-203" on="1"/>
        <pt x="70" y="-191" on="1"/>
        <pt x="88" y="260" on="1"/>
      </contour>
      <contour>
        <pt x="95" y="387" on="0"/>
        <pt x="65" y="418" on="0"/>
        <pt x="65" y="461" on="0"/>
        <pt x="95" y="491" on="0"/>
        <pt x="138" y="491" on="0"/>
        <pt x="169" y="461" on="0"/>
        <pt x="169" y="418" on="0"/>
        <pt x="138" y="387" on="0"/>
      </contour>
    </TTGlyph>
    <TTGlyph name="f" xMin="24" yMin="0" xMax="335" yMax="727">
      <contour>
        <pt x="230" y="670" on="1"/>
        <pt x="212" y="671" on="1"/>
        <pt x="171" y="671" on="0"/>
        <pt x="166" y="631" on="1"/>
        <pt x="164" y="620" on="0"/>
        <pt x="164" y="608" on="1"/>
        <pt x="164" y="479" on="1"/>
        <pt x="274" y="479" on="1"/>
        <pt x="279" y="479" on="0"/>
        <pt x="279" y="473" on="1"/>
        <pt x="279" y="422" on="1"/>
        <pt x="164" y="422" on="1"/>
        <pt x="164" y="61" on="1"/>
        <pt x="274" y="45" on="1"/>
        <pt x="274" y="0" on="1"/>
        <pt x="50" y="0" on="1"/>
        <pt x="42" y="44" on="1"/>
        <pt x="101" y="58" on="1"/>
        <pt x="101" y="422" on="1"/>
        <pt x="38" y="422" on="1"/>
        <pt x="24" y="468" on="1"/>
        <pt x="31" y="479" on="1"/>
        <pt x="101" y="479" on="1"/>
        <pt x="101" y="596" on="1"/>
        <pt x="101" y="654" on="0"/>
        <pt x="158" y="727" on="0"/>
        <pt x="223" y="727" on="1"/>
        <pt x="273" y="727" on="0"/>
        <pt x="335" y="690" on="1"/>
        <pt x="286" y="622" on="1"/>
      </contour>
    </TTGlyph>
    <TTGlyph name="five" xMin="29" yMin="-4" xMax="456" yMax="690">
      <contour>
        <pt x="172" y="390" on="1"/>
        <pt x="133" y="390" on="0"/>
        <pt x="80" y="382" on="1"/>
        <pt x="80" y="657" on="1"/>
        <pt x="111" y="690" on="1"/>
        <pt x="442" y="690" on="1"/>
        <pt x="442" y="623" on="1"/>
        <pt x="143" y="623" on="1"/>
        <pt x="143" y="451" on="1"/>
        <pt x="159" y="453" on="0"/>
        <pt x="174" y="453" on="1"/>
        <pt x="203" y="453" on="1"/>
        <pt x="318" y="453" on="0"/>
        <pt x="386" y="393" on="1"/>
        <pt x="456" y="331" on="0"/>
        <pt x="456" y="231" on="1"/>
        <pt x="456" y="126" on="0"/>
        <pt x="387" y="60" on="1"/>
        <pt x="319" y="-4" on="0"/>
        <pt x="214" y="-4" on="1"/>
        <pt x="103" y="-4" on="0"/>
        <pt x="29" y="55" on="1"/>
        <pt x="65" y="112" on="1"/>
        <pt x="94" y="86" on="0"/>
        <pt x="175" y="59" on="0"/>
        <pt x="251" y="59" on="0"/>
        <pt x="313" y="84" on="0"/>
        <pt x="336" y="106" on="1"/>
        <pt x="384" y="155" on="0"/>
        <pt x="384" y="226" on="1"/>
        <pt x="384" y="318" on="0"/>
        <pt x="317" y="358" on="1"/>
        <pt x="264" y="390" on="0"/>
      </contour>
    </TTGlyph>
    <TTGlyph name="four" xMin="8" yMin="2" xMax="467" yMax="691">
      <contour>
        <pt x="382" y="73" on="1"/>
        <pt x="444" y="59" on="0"/>
        <pt x="462" y="59" on="1"/>
        <pt x="462" y="2" on="1"/>
        <pt x="162" y="2" on="1"/>
        <pt x="162" y="56" on="1"/>
        <pt x="314" y="72" on="1"/>
        <pt x="314" y="200" on="1"/>
        <pt x="39" y="200" on="1"/>
        <pt x="8" y="264" on="1"/>
        <pt x="314" y="691" on="1"/>
        <pt x="382" y="691" on="1"/>
        <pt x="382" y="268" on="1"/>
        <pt x="467" y="268" on="1"/>
        <pt x="467" y="200" on="1"/>
        <pt x="382" y="200" on="1"/>
      </contour>
      <contour>
        <pt x="314" y="268" on="1"/>
        <pt x="314" y="592" on="1"/>
        <pt x="85" y="268" on="1"/>
      </contour>
    </TTGlyph>
    <TTGlyph name="g" xMin="22" yMin="-265" xMax="466" yMax="483">
      <contour>
        <pt x="118" y="159" on="1"/>
        <pt x="47" y="208" on="0"/>
        <pt x="47" y="303" on="1"/>
        <pt x="47" y="382" on="0"/>
        <pt x="97" y="430" on="1"/>
        <pt x="148" y="479" on="0"/>
        <pt x="299" y="479" on="0"/>
        <pt x="346" y="438" on="1"/>
        <pt x="437" y="483" on="1"/>
        <pt x="456" y="480" on="1"/>
        <pt x="466" y="412" on="1"/>
        <pt x="379" y="401" on="1"/>
        <pt x="406" y="359" on="0"/>
        <pt x="406" y="265" on="0"/>
        <pt x="379" y="200" on="0"/>
        <pt x="355" y="177" on="1"/>
        <pt x="304" y="128" on="0"/>
        <pt x="226" y="128" on="1"/>
        <pt x="198" y="128" on="0"/>
        <pt x="174" y="134" on="1"/>
        <pt x="153" y="103" on="1"/>
        <pt x="156" y="82" on="1"/>
        <pt x="177" y="76" on="0"/>
        <pt x="213" y="66" on="0"/>
        <pt x="231" y="61" on="1"/>
        <pt x="261" y="54" on="1"/>
        <pt x="337" y="34" on="0"/>
        <pt x="395" y="-8" on="0"/>
        <pt x="421" y="-58" on="0"/>
        <pt x="421" y="-137" on="0"/>
        <pt x="386" y="-201" on="0"/>
        <pt x="358" y="-222" on="1"/>
        <pt x="301" y="-265" on="0"/>
        <pt x="217" y="-265" on="1"/>
        <pt x="137" y="-265" on="0"/>
        <pt x="82" y="-224" on="1"/>
        <pt x="22" y="-180" on="0"/>
        <pt x="22" y="-105" on="1"/>
        <pt x="22" y="-36" on="0"/>
        <pt x="81" y="10" on="1"/>
        <pt x="97" y="23" on="0"/>
        <pt x="114" y="31" on="1"/>
        <pt x="81" y="53" on="0"/>
        <pt x="81" y="119" on="0"/>
      </contour>
      <contour>
        <pt x="141" y="-7" on="0"/>
        <pt x="85" y="-62" on="0"/>
        <pt x="85" y="-129" on="0"/>
        <pt x="112" y="-166" on="0"/>
        <pt x="132" y="-178" on="1"/>
        <pt x="172" y="-202" on="0"/>
        <pt x="247" y="-202" on="0"/>
        <pt x="298" y="-188" on="0"/>
        <pt x="318" y="-176" on="1"/>
        <pt x="364" y="-148" on="0"/>
        <pt x="364" y="-102" on="1"/>
        <pt x="364" y="-52" on="0"/>
        <pt x="302" y="-27" on="1"/>
        <pt x="275" y="-16" on="0"/>
        <pt x="209" y="-2" on="0"/>
        <pt x="178" y="6" on="1"/>
      </contour>
      <contour>
        <pt x="226" y="422" on="1"/>
        <pt x="172" y="422" on="0"/>
        <pt x="113" y="355" on="0"/>
        <pt x="113" y="304" on="1"/>
        <pt x="113" y="253" on="0"/>
        <pt x="172" y="185" on="0"/>
        <pt x="226" y="185" on="1"/>
        <pt x="280" y="185" on="0"/>
        <pt x="340" y="253" on="0"/>
        <pt x="340" y="304" on="1"/>
        <pt x="340" y="355" on="0"/>
        <pt x="280" y="422" on="0"/>
      </contour>
    </TTGlyph>
    <TTGlyph name="germandbls" xMin="35" yMin="-4" xMax="483" yMax="727">
      <contour>
        <pt x="232" y="670" on="1"/>
        <pt x="150" y="670" on="0"/>
        <pt x="150" y="559" on="1"/>
        <pt x="150" y="0" on="1"/>
        <pt x="35" y="0" on="1"/>
        <pt x="35" y="44" on="1"/>
        <pt x="87" y="55" on="1"/>
        <pt x="87" y="558" on="1"/>
        <pt x="87" y="641" on="0"/>
        <pt x="128" y="686" on="1"/>
        <pt x="167" y="727" on="0"/>
        <pt x="297" y="727" on="0"/>
        <pt x="380" y="653" on="0"/>
        <pt x="380" y="585" on="1"/>
        <pt x="380" y="526" on="0"/>
        <pt x="330" y="468" on="1"/>
        <pt x="312" y="447" on="0"/>
        <pt x="281" y="416" on="0"/>
        <pt x="281" y="397" on="0"/>
        <pt x="285" y="382" on="0"/>
        <pt x="291" y="375" on="1"/>
        <pt x="303" y="360" on="0"/>
        <pt x="380" y="326" on="0"/>
        <pt x="435" y="291" on="0"/>
        <pt x="452" y="270" on="1"/>
        <pt x="483" y="232" on="0"/>
        <pt x="483" y="166" on="1"/>
        <pt x="483" y="89" on="0"/>
        <pt x="421" y="40" on="1"/>
        <pt x="366" y="-4" on="0"/>
        <pt x="302" y="-4" on="1"/>
        <pt x="256" y="-4" on="0"/>
        <pt x="190" y="20" on="1"/>
        <pt x="214" y="87" on="1"/>
        <pt x="302" y="53" on="1"/>
        <pt x="357" y="53" on="0"/>
        <pt x="417" y="119" on="0"/>
        <pt x="417" y="211" on="0"/>
        <pt x="366" y="266" on="0"/>
        <pt x="270" y="315" on="0"/>
        <pt x="223" y="362" on="0"/>
        <pt x="223" y="426" on="0"/>
        <pt x="251" y="467" on="0"/>
        <pt x="286" y="506" on="0"/>
        <pt x="314" y="552" on="0"/>
        <pt x="314" y="602" on="0"/>
        <pt x="303" y="632" on="0"/>
        <pt x="292" y="644" on="1"/>
        <pt x="270" y="670" on="0"/>
      </contour>
    </TTGlyph>
    <TTGlyph name="grave" xMin="55" yMin="553" xMax="229" yMax="726">
      <contour>
        <pt x="195" y="553" on="1"/>
        <pt x="55" y="673" on="1"/>
        <pt x="99" y="726" on="1"/>
        <pt x="125" y="726" on="1"/>
        <pt x="229" y="586" on="1"/>
      </contour>
    </TTGlyph>
    <TTGlyph name="greater" xMin="75" yMin="124" xMax="372" yMax="553">
      <contour>
        <pt x="75" y="553" on="1"/>
        <pt x="372" y="348" on="1"/>
        <pt x="372" y="332" on="1"/>
        <pt x="75" y="124" on="1"/>
        <pt x="75" y="195" on="1"/>
        <pt x="281" y="339" on="1"/>
        <pt x="75" y="484" on="1"/>
      </contour>
    </TTGlyph>
    <TTGlyph name="guillemotleft" xMin="10" yMin="123" xMax="408" yMax="553">
      <contour>
        <pt x="264" y="512" on="1"/>
        <pt x="91" y="338" on="1"/>
        <pt x="264" y="164" on="1"/>
        <pt x="223" y="123" on="1"/>
        <pt x="10" y="337" on="1"/>
        <pt x="223" y="553" on="1"/>
      </contour>
      <contour>
        <pt x="408" y="491" on="1"/>
        <pt x="256" y="338" on="1"/>
        <pt x="408" y="185" on="1"/>
        <pt x="367" y="144" on="1"/>
        <pt x="175" y="337" on="1"/>
        <pt x="367" y="532" on="1"/>
      </contour>
    </TTGlyph>
    <TTGlyph name="guillemotright" xMin="46" yMin="123" xMax="444" yMax="553">
      <contour>
        <pt x="190" y="164" on="1"/>
        <pt x="363" y="338" on="1"/>
        <pt x="190" y="512" on="1"/>
        <pt x="231" y="553" on="1"/>
        <pt x="444" y="339" on="1"/>
        <pt x="231" y="123" on="1"/>
      </contour>
      <contour>
        <pt x="46" y="185" on="1"/>
        <pt x="198" y="338" on="1"/>
        <pt x="46" y="491" on="1"/>
        <pt x="87" y="532" on="1"/>
        <pt x="279" y="339" on="1"/>
        <pt x="87" y="144" on="1"/>
      </contour>
    </TTGlyph>
    <TTGlyph name="guilsinglleft" xMin="14" yMin="70" xMax="292" yMax="530">
      <contour>
        <pt x="14" y="314" on="1"/>
        <pt x="287" y="530" on="1"/>
        <pt x="292" y="528" on="1"/>
        <pt x="292" y="458" on="1"/>
        <pt x="94" y="301" on="1"/>
        <pt x="292" y="145" on="1"/>
        <pt x="292" y="73" on="1"/>
        <pt x="286" y="70" on="1"/>
        <pt x="14" y="288" on="1"/>
      </contour>
    </TTGlyph>
    <TTGlyph name="guilsinglright" xMin="59" yMin="70" xMax="337" yMax="530">
      <contour>
        <pt x="337" y="288" on="1"/>
        <pt x="65" y="70" on="1"/>
        <pt x="59" y="73" on="1"/>
        <pt x="59" y="145" on="1"/>
        <pt x="257" y="301" on="1"/>
        <pt x="59" y="458" on="1"/>
        <pt x="59" y="528" on="1"/>
        <pt x="64" y="530" on="1"/>
        <pt x="337" y="314" on="1"/>
      </contour>
    </TTGlyph>
    <TTGlyph name="h" xMin="24" yMin="0" xMax="475" yMax="727">
      <contour>
        <pt x="266" y="422" on="1"/>
        <pt x="200" y="422" on="0"/>
        <pt x="151" y="379" on="1"/>
        <pt x="151" y="58" on="1"/>
        <pt x="207" y="45" on="1"/>
        <pt x="207" y="0" on="1"/>
        <pt x="35" y="0" on="1"/>
        <pt x="30" y="44" on="1"/>
        <pt x="88" y="58" on="1"/>
        <pt x="88" y="661" on="1"/>
        <pt x="33" y="661" on="1"/>
        <pt x="24" y="710" on="1"/>
        <pt x="122" y="727" on="1"/>
        <pt x="151" y="697" on="1"/>
        <pt x="151" y="441" on="1"/>
        <pt x="206" y="479" on="0"/>
        <pt x="340" y="479" on="0"/>
        <pt x="414" y="406" on="0"/>
        <pt x="414" y="334" on="1"/>
        <pt x="414" y="58" on="1"/>
        <pt x="475" y="44" on="1"/>
        <pt x="475" y="0" on="1"/>
        <pt x="295" y="0" on="1"/>
        <pt x="291" y="44" on="1"/>
        <pt x="351" y="58" on="1"/>
        <pt x="351" y="327" on="1"/>
        <pt x="351" y="422" on="0"/>
      </contour>
    </TTGlyph>
    <TTGlyph name="hyphen" xMin="63" yMin="251" xMax="314" yMax="314">
      <contour>
        <pt x="63" y="251" on="1"/>
        <pt x="63" y="306" on="1"/>
        <pt x="71" y="314" on="1"/>
        <pt x="308" y="314" on="1"/>
        <pt x="314" y="314" on="0"/>
        <pt x="314" y="307" on="1"/>
        <pt x="314" y="251" on="1"/>
      </contour>
    </TTGlyph>
    <TTGlyph name="i" xMin="34" yMin="0" xMax="221" yMax="724">
      <contour>
        <pt x="160" y="451" on="1"/>
        <pt x="160" y="59" on="1"/>
        <pt x="221" y="44" on="1"/>
        <pt x="221" y="0" on="1"/>
        <pt x="46" y="0" on="1"/>
        <pt x="37" y="43" on="1"/>
        <pt x="97" y="58" on="1"/>
        <pt x="97" y="416" on="1"/>
        <pt x="43" y="412" on="1"/>
        <pt x="34" y="463" on="1"/>
        <pt x="133" y="481" on="1"/>
      </contour>
      <contour>
        <pt x="59" y="671" on="1"/>
        <pt x="59" y="693" on="0"/>
        <pt x="89" y="724" on="0"/>
        <pt x="111" y="724" on="1"/>
        <pt x="133" y="724" on="0"/>
        <pt x="164" y="693" on="0"/>
        <pt x="164" y="671" on="1"/>
        <pt x="164" y="649" on="0"/>
        <pt x="133" y="619" on="0"/>
        <pt x="111" y="619" on="1"/>
        <pt x="89" y="619" on="0"/>
        <pt x="59" y="649" on="0"/>
      </contour>
    </TTGlyph>
    <TTGlyph name="iacute" xMin="34" yMin="0" xMax="221" yMax="724">
      <contour>
        <pt x="160" y="451" on="1"/>
        <pt x="160" y="59" on="1"/>
        <pt x="221" y="44" on="1"/>
        <pt x="221" y="0" on="1"/>
        <pt x="46" y="0" on="1"/>
        <pt x="37" y="43" on="1"/>
        <pt x="97" y="58" on="1"/>
        <pt x="97" y="416" on="1"/>
        <pt x="43" y="412" on="1"/>
        <pt x="34" y="463" on="1"/>
        <pt x="133" y="481" on="1"/>
      </contour>
      <contour>
        <pt x="39" y="585" on="1"/>
        <pt x="143" y="724" on="1"/>
        <pt x="170" y="724" on="1"/>
        <pt x="214" y="672" on="1"/>
        <pt x="74" y="552" on="1"/>
      </contour>
    </TTGlyph>
    <TTGlyph name="icircumflex" xMin="-11" yMin="0" xMax="237" yMax="691">
      <contour>
        <pt x="-11" y="548" on="1"/>
        <pt x="105" y="691" on="1"/>
        <pt x="121" y="691" on="1"/>
        <pt x="237" y="550" on="1"/>
        <pt x="233" y="544" on="1"/>
        <pt x="179" y="544" on="1"/>
        <pt x="113" y="602" on="1"/>
        <pt x="46" y="544" on="1"/>
        <pt x="-7" y="544" on="1"/>
      </contour>
      <contour>
        <pt x="160" y="451" on="1"/>
        <pt x="160" y="59" on="1"/>
        <pt x="221" y="44" on="1"/>
        <pt x="221" y="0" on="1"/>
        <pt x="46" y="0" on="1"/>
        <pt x="37" y="43" on="1"/>
        <pt x="97" y="58" on="1"/>
        <pt x="97" y="416" on="1"/>
        <pt x="43" y="412" on="1"/>
        <pt x="34" y="463" on="1"/>
        <pt x="133" y="481" on="1"/>
      </contour>
    </TTGlyph>
    <TTGlyph name="idieresis" xMin="3" yMin="0" xMax="227" yMax="668">
      <contour>
        <pt x="31" y="570" on="0"/>
        <pt x="3" y="600" on="0"/>
        <pt x="3" y="639" on="0"/>
        <pt x="31" y="668" on="0"/>
        <pt x="71" y="668" on="0"/>
        <pt x="99" y="639" on="0"/>
        <pt x="99" y="600" on="0"/>
        <pt x="71" y="570" on="0"/>
      </contour>
      <contour>
        <pt x="159" y="570" on="0"/>
        <pt x="132" y="600" on="0"/>
        <pt x="132" y="639" on="0"/>
        <pt x="159" y="668" on="0"/>
        <pt x="199" y="668" on="0"/>
        <pt x="227" y="639" on="0"/>
        <pt x="227" y="600" on="0"/>
        <pt x="199" y="570" on="0"/>
      </contour>
      <contour>
        <pt x="160" y="451" on="1"/>
        <pt x="160" y="59" on="1"/>
        <pt x="221" y="44" on="1"/>
        <pt x="221" y="0" on="1"/>
        <pt x="46" y="0" on="1"/>
        <pt x="37" y="43" on="1"/>
        <pt x="97" y="58" on="1"/>
        <pt x="97" y="416" on="1"/>
        <pt x="43" y="412" on="1"/>
        <pt x="34" y="463" on="1"/>
        <pt x="133" y="481" on="1"/>
      </contour>
    </TTGlyph>
    <TTGlyph name="igrave" xMin="34" yMin="0" xMax="221" yMax="727">
      <contour>
        <pt x="160" y="451" on="1"/>
        <pt x="160" y="59" on="1"/>
        <pt x="221" y="44" on="1"/>
        <pt x="221" y="0" on="1"/>
        <pt x="46" y="0" on="1"/>
        <pt x="37" y="43" on="1"/>
        <pt x="97" y="58" on="1"/>
        <pt x="97" y="416" on="1"/>
        <pt x="43" y="412" on="1"/>
        <pt x="34" y="463" on="1"/>
        <pt x="133" y="481" on="1"/>
      </contour>
      <contour>
        <pt x="174" y="554" on="1"/>
        <pt x="34" y="674" on="1"/>
        <pt x="78" y="727" on="1"/>
        <pt x="104" y="727" on="1"/>
        <pt x="208" y="587" on="1"/>
      </contour>
    </TTGlyph>
    <TTGlyph name="j" xMin="-26" yMin="-273" xMax="158" yMax="724">
      <contour>
        <pt x="53" y="671" on="1"/>
        <pt x="53" y="693" on="0"/>
        <pt x="83" y="724" on="0"/>
        <pt x="105" y="724" on="1"/>
        <pt x="127" y="724" on="0"/>
        <pt x="158" y="693" on="0"/>
        <pt x="158" y="671" on="1"/>
        <pt x="158" y="649" on="0"/>
        <pt x="127" y="619" on="0"/>
        <pt x="105" y="619" on="1"/>
        <pt x="83" y="619" on="0"/>
        <pt x="53" y="649" on="0"/>
      </contour>
      <contour>
        <pt x="7" y="-190" on="1"/>
        <pt x="34" y="-217" on="0"/>
        <pt x="82" y="-217" on="0"/>
        <pt x="92" y="-181" on="0"/>
        <pt x="92" y="-156" on="1"/>
        <pt x="92" y="416" on="1"/>
        <pt x="23" y="411" on="1"/>
        <pt x="15" y="462" on="1"/>
        <pt x="128" y="481" on="1"/>
        <pt x="155" y="451" on="1"/>
        <pt x="155" y="-166" on="1"/>
        <pt x="155" y="-213" on="0"/>
        <pt x="140" y="-234" on="1"/>
        <pt x="111" y="-273" on="0"/>
        <pt x="59" y="-273" on="1"/>
        <pt x="9" y="-273" on="0"/>
        <pt x="-26" y="-238" on="1"/>
      </contour>
    </TTGlyph>
    <TTGlyph name="k" xMin="24" yMin="0" xMax="437" yMax="727">
      <contour>
        <pt x="151" y="697" on="1"/>
        <pt x="151" y="271" on="1"/>
        <pt x="327" y="434" on="1"/>
        <pt x="286" y="434" on="1"/>
        <pt x="278" y="481" on="1"/>
        <pt x="416" y="481" on="1"/>
        <pt x="430" y="454" on="1"/>
        <pt x="262" y="297" on="1"/>
        <pt x="385" y="55" on="1"/>
        <pt x="437" y="44" on="1"/>
        <pt x="437" y="0" on="1"/>
        <pt x="338" y="0" on="1"/>
        <pt x="210" y="250" on="1"/>
        <pt x="151" y="194" on="1"/>
        <pt x="151" y="58" on="1"/>
        <pt x="207" y="45" on="1"/>
        <pt x="207" y="0" on="1"/>
        <pt x="35" y="0" on="1"/>
        <pt x="30" y="44" on="1"/>
        <pt x="88" y="58" on="1"/>
        <pt x="88" y="661" on="1"/>
        <pt x="33" y="661" on="1"/>
        <pt x="24" y="710" on="1"/>
        <pt x="124" y="727" on="1"/>
      </contour>
    </TTGlyph>
    <TTGlyph name="l" xMin="25" yMin="0" xMax="213" yMax="727">
      <contour>
        <pt x="152" y="697" on="1"/>
        <pt x="152" y="57" on="1"/>
        <pt x="213" y="44" on="1"/>
        <pt x="213" y="0" on="1"/>
        <pt x="30" y="0" on="1"/>
        <pt x="25" y="44" on="1"/>
        <pt x="89" y="58" on="1"/>
        <pt x="89" y="661" on="1"/>
        <pt x="34" y="661" on="1"/>
        <pt x="25" y="710" on="1"/>
        <pt x="123" y="727" on="1"/>
      </contour>
    </TTGlyph>
    <TTGlyph name="less" xMin="29" yMin="124" xMax="326" yMax="553">
      <contour>
        <pt x="326" y="484" on="1"/>
        <pt x="120" y="339" on="1"/>
        <pt x="326" y="195" on="1"/>
        <pt x="326" y="124" on="1"/>
        <pt x="29" y="332" on="1"/>
        <pt x="29" y="348" on="1"/>
        <pt x="326" y="553" on="1"/>
      </contour>
    </TTGlyph>
    <TTGlyph name="logicalnot" xMin="53" yMin="260" xMax="528" yMax="480">
      <contour>
        <pt x="465" y="417" on="1"/>
        <pt x="53" y="417" on="1"/>
        <pt x="53" y="471" on="1"/>
        <pt x="60" y="480" on="1"/>
        <pt x="519" y="480" on="1"/>
        <pt x="528" y="472" on="1"/>
        <pt x="528" y="267" on="1"/>
        <pt x="528" y="260" on="0"/>
        <pt x="520" y="260" on="1"/>
        <pt x="465" y="260" on="1"/>
      </contour>
    </TTGlyph>
    <TTGlyph name="m" xMin="32" yMin="0" xMax="744" yMax="481">
      <contour>
        <pt x="395" y="429" on="1"/>
        <pt x="459" y="479" on="0"/>
        <pt x="533" y="479" on="1"/>
        <pt x="683" y="479" on="0"/>
        <pt x="683" y="334" on="1"/>
        <pt x="683" y="58" on="1"/>
        <pt x="744" y="44" on="1"/>
        <pt x="744" y="0" on="1"/>
        <pt x="564" y="0" on="1"/>
        <pt x="560" y="44" on="1"/>
        <pt x="620" y="58" on="1"/>
        <pt x="620" y="327" on="1"/>
        <pt x="620" y="422" on="0"/>
        <pt x="535" y="422" on="1"/>
        <pt x="512" y="422" on="0"/>
        <pt x="450" y="406" on="0"/>
        <pt x="418" y="372" on="1"/>
        <pt x="421" y="354" on="0"/>
        <pt x="421" y="334" on="1"/>
        <pt x="421" y="58" on="1"/>
        <pt x="482" y="44" on="1"/>
        <pt x="482" y="0" on="1"/>
        <pt x="302" y="0" on="1"/>
        <pt x="298" y="44" on="1"/>
        <pt x="358" y="58" on="1"/>
        <pt x="358" y="327" on="1"/>
        <pt x="358" y="422" on="0"/>
        <pt x="273" y="422" on="1"/>
        <pt x="206" y="422" on="0"/>
        <pt x="158" y="380" on="1"/>
        <pt x="158" y="59" on="1"/>
        <pt x="219" y="44" on="1"/>
        <pt x="219" y="0" on="1"/>
        <pt x="46" y="0" on="1"/>
        <pt x="40" y="43" on="1"/>
        <pt x="95" y="58" on="1"/>
        <pt x="95" y="420" on="1"/>
        <pt x="41" y="416" on="1"/>
        <pt x="32" y="463" on="1"/>
        <pt x="133" y="481" on="1"/>
        <pt x="155" y="440" on="1"/>
        <pt x="183" y="459" on="0"/>
        <pt x="251" y="479" on="0"/>
        <pt x="278" y="479" on="1"/>
        <pt x="358" y="479" on="0"/>
      </contour>
    </TTGlyph>
    <TTGlyph name="macron" xMin="57" yMin="630" xMax="308" yMax="693">
      <contour>
        <pt x="57" y="630" on="1"/>
        <pt x="57" y="684" on="1"/>
        <pt x="64" y="693" on="1"/>
        <pt x="301" y="693" on="1"/>
        <pt x="308" y="693" on="0"/>
        <pt x="308" y="685" on="1"/>
        <pt x="308" y="630" on="1"/>
      </contour>
    </TTGlyph>
    <TTGlyph name="mu" xMin="31" yMin="-274" xMax="468" yMax="482">
      <contour>
        <pt x="156" y="-4" on="1"/>
        <pt x="157" y="-58" on="1"/>
        <pt x="157" y="-274" on="1"/>
        <pt x="94" y="-274" on="1"/>
        <pt x="94" y="415" on="1"/>
        <pt x="40" y="415" on="1"/>
        <pt x="31" y="463" on="1"/>
        <pt x="130" y="481" on="1"/>
        <pt x="157" y="449" on="1"/>
        <pt x="157" y="146" on="1"/>
        <pt x="157" y="89" on="0"/>
        <pt x="200" y="67" on="1"/>
        <pt x="226" y="54" on="0"/>
        <pt x="285" y="54" on="0"/>
        <pt x="342" y="78" on="0"/>
        <pt x="356" y="100" on="1"/>
        <pt x="356" y="415" on="1"/>
        <pt x="302" y="415" on="1"/>
        <pt x="295" y="463" on="1"/>
        <pt x="395" y="482" on="1"/>
        <pt x="419" y="453" on="1"/>
        <pt x="419" y="73" on="1"/>
        <pt x="419" y="51" on="0"/>
        <pt x="442" y="51" on="1"/>
        <pt x="460" y="54" on="1"/>
        <pt x="468" y="19" on="1"/>
        <pt x="448" y="-4" on="0"/>
        <pt x="371" y="-4" on="0"/>
        <pt x="360" y="36" on="1"/>
        <pt x="316" y="-4" on="0"/>
        <pt x="197" y="-4" on="0"/>
        <pt x="157" y="25" on="1"/>
        <pt x="156" y="18" on="0"/>
        <pt x="156" y="11" on="1"/>
      </contour>
    </TTGlyph>
    <TTGlyph name="multiply" xMin="54" yMin="136" xMax="459" yMax="542">
      <contour>
        <pt x="54" y="186" on="1"/>
        <pt x="212" y="340" on="1"/>
        <pt x="59" y="498" on="1"/>
        <pt x="103" y="542" on="1"/>
        <pt x="257" y="383" on="1"/>
        <pt x="415" y="537" on="1"/>
        <pt x="459" y="492" on="1"/>
        <pt x="301" y="338" on="1"/>
        <pt x="454" y="181" on="1"/>
        <pt x="410" y="136" on="1"/>
        <pt x="256" y="295" on="1"/>
        <pt x="98" y="142" on="1"/>
      </contour>
    </TTGlyph>
    <TTGlyph name="n" xMin="32" yMin="0" xMax="482" yMax="481">
      <contour>
        <pt x="273" y="422" on="1"/>
        <pt x="206" y="422" on="0"/>
        <pt x="158" y="380" on="1"/>
        <pt x="158" y="59" on="1"/>
        <pt x="219" y="44" on="1"/>
        <pt x="219" y="0" on="1"/>
        <pt x="46" y="0" on="1"/>
        <pt x="40" y="43" on="1"/>
        <pt x="95" y="58" on="1"/>
        <pt x="95" y="420" on="1"/>
        <pt x="41" y="416" on="1"/>
        <pt x="32" y="463" on="1"/>
        <pt x="133" y="481" on="1"/>
        <pt x="155" y="440" on="1"/>
        <pt x="211" y="479" on="0"/>
        <pt x="347" y="479" on="0"/>
        <pt x="421" y="406" on="0"/>
        <pt x="421" y="334" on="1"/>
        <pt x="421" y="58" on="1"/>
        <pt x="482" y="44" on="1"/>
        <pt x="482" y="0" on="1"/>
        <pt x="302" y="0" on="1"/>
        <pt x="298" y="44" on="1"/>
        <pt x="358" y="58" on="1"/>
        <pt x="358" y="327" on="1"/>
        <pt x="358" y="422" on="0"/>
      </contour>
    </TTGlyph>
    <TTGlyph name="nine" xMin="46" yMin="-4" xMax="480" yMax="691">
      <contour>
        <pt x="380" y="294" on="0"/>
        <pt x="297" y="257" on="0"/>
        <pt x="204" y="257" on="0"/>
        <pt x="129" y="293" on="0"/>
        <pt x="104" y="323" on="1"/>
        <pt x="51" y="385" on="0"/>
        <pt x="51" y="473" on="1"/>
        <pt x="51" y="558" on="0"/>
        <pt x="98" y="618" on="1"/>
        <pt x="155" y="691" on="0"/>
        <pt x="256" y="691" on="1"/>
        <pt x="460" y="691" on="0"/>
        <pt x="478" y="406" on="1"/>
        <pt x="480" y="365" on="0"/>
        <pt x="480" y="251" on="0"/>
        <pt x="445" y="128" on="0"/>
        <pt x="413" y="85" on="1"/>
        <pt x="347" y="-4" on="0"/>
        <pt x="240" y="-4" on="1"/>
        <pt x="126" y="-4" on="0"/>
        <pt x="46" y="64" on="1"/>
        <pt x="89" y="124" on="1"/>
        <pt x="130" y="83" on="0"/>
        <pt x="192" y="65" on="1"/>
        <pt x="212" y="59" on="0"/>
        <pt x="264" y="59" on="0"/>
        <pt x="325" y="84" on="0"/>
        <pt x="350" y="115" on="1"/>
        <pt x="403" y="183" on="0"/>
        <pt x="407" y="329" on="1"/>
      </contour>
      <contour>
        <pt x="316" y="614" on="1"/>
        <pt x="291" y="628" on="0"/>
        <pt x="231" y="628" on="0"/>
        <pt x="182" y="607" on="0"/>
        <pt x="164" y="588" on="1"/>
        <pt x="124" y="546" on="0"/>
        <pt x="124" y="478" on="1"/>
        <pt x="124" y="413" on="0"/>
        <pt x="158" y="368" on="1"/>
        <pt x="193" y="321" on="0"/>
        <pt x="259" y="321" on="1"/>
        <pt x="307" y="321" on="0"/>
        <pt x="348" y="355" on="1"/>
        <pt x="391" y="390" on="0"/>
        <pt x="401" y="444" on="1"/>
        <pt x="385" y="576" on="0"/>
      </contour>
    </TTGlyph>
    <TTGlyph name="ntilde" xMin="32" yMin="0" xMax="482" yMax="663">
      <contour>
        <pt x="216" y="600" on="1"/>
        <pt x="175" y="596" on="0"/>
        <pt x="158" y="554" on="1"/>
        <pt x="115" y="580" on="1"/>
        <pt x="116" y="597" on="1"/>
        <pt x="130" y="621" on="0"/>
        <pt x="173" y="663" on="0"/>
        <pt x="209" y="663" on="1"/>
        <pt x="231" y="663" on="0"/>
        <pt x="279" y="640" on="0"/>
        <pt x="306" y="626" on="0"/>
        <pt x="318" y="622" on="1"/>
        <pt x="371" y="663" on="1"/>
        <pt x="408" y="601" on="1"/>
        <pt x="388" y="584" on="0"/>
        <pt x="352" y="563" on="0"/>
        <pt x="307" y="563" on="0"/>
        <pt x="279" y="575" on="0"/>
        <pt x="254" y="588" on="0"/>
        <pt x="230" y="600" on="0"/>
      </contour>
      <contour>
        <pt x="273" y="422" on="1"/>
        <pt x="206" y="422" on="0"/>
        <pt x="158" y="380" on="1"/>
        <pt x="158" y="59" on="1"/>
        <pt x="219" y="44" on="1"/>
        <pt x="219" y="0" on="1"/>
        <pt x="46" y="0" on="1"/>
        <pt x="40" y="43" on="1"/>
        <pt x="95" y="58" on="1"/>
        <pt x="95" y="420" on="1"/>
        <pt x="41" y="416" on="1"/>
        <pt x="32" y="463" on="1"/>
        <pt x="133" y="481" on="1"/>
        <pt x="155" y="440" on="1"/>
        <pt x="211" y="479" on="0"/>
        <pt x="347" y="479" on="0"/>
        <pt x="421" y="406" on="0"/>
        <pt x="421" y="334" on="1"/>
        <pt x="421" y="58" on="1"/>
        <pt x="482" y="44" on="1"/>
        <pt x="482" y="0" on="1"/>
        <pt x="302" y="0" on="1"/>
        <pt x="298" y="44" on="1"/>
        <pt x="358" y="58" on="1"/>
        <pt x="358" y="327" on="1"/>
        <pt x="358" y="422" on="0"/>
      </contour>
    </TTGlyph>
    <TTGlyph name="numbersign" xMin="30" yMin="48" xMax="560" yMax="670">
      <contour>
        <pt x="37" y="251" on="1"/>
        <pt x="30" y="291" on="1"/>
        <pt x="37" y="303" on="1"/>
        <pt x="173" y="303" on="1"/>
        <pt x="210" y="423" on="1"/>
        <pt x="92" y="423" on="1"/>
        <pt x="85" y="463" on="1"/>
        <pt x="92" y="476" on="1"/>
        <pt x="227" y="476" on="1"/>
        <pt x="288" y="670" on="1"/>
        <pt x="339" y="670" on="1"/>
        <pt x="347" y="656" on="1"/>
        <pt x="290" y="476" on="1"/>
        <pt x="379" y="476" on="1"/>
        <pt x="440" y="670" on="1"/>
        <pt x="489" y="670" on="1"/>
        <pt x="497" y="656" on="1"/>
        <pt x="441" y="476" on="1"/>
        <pt x="554" y="476" on="1"/>
        <pt x="560" y="476" on="0"/>
        <pt x="560" y="469" on="1"/>
        <pt x="560" y="423" on="1"/>
        <pt x="424" y="423" on="1"/>
        <pt x="387" y="303" on="1"/>
        <pt x="509" y="303" on="1"/>
        <pt x="515" y="303" on="0"/>
        <pt x="515" y="296" on="1"/>
        <pt x="515" y="251" on="1"/>
        <pt x="371" y="251" on="1"/>
        <pt x="308" y="48" on="1"/>
        <pt x="259" y="48" on="1"/>
        <pt x="250" y="61" on="1"/>
        <pt x="309" y="251" on="1"/>
        <pt x="219" y="251" on="1"/>
        <pt x="155" y="48" on="1"/>
        <pt x="106" y="48" on="1"/>
        <pt x="97" y="61" on="1"/>
        <pt x="156" y="251" on="1"/>
      </contour>
      <contour>
        <pt x="235" y="303" on="1"/>
        <pt x="325" y="303" on="1"/>
        <pt x="363" y="423" on="1"/>
        <pt x="273" y="423" on="1"/>
      </contour>
    </TTGlyph>
    <TTGlyph name="o" xMin="42" yMin="-4" xMax="447" yMax="481">
      <contour>
        <pt x="42" y="241" on="1"/>
        <pt x="42" y="288" on="0"/>
        <pt x="68" y="376" on="0"/>
        <pt x="94" y="409" on="1"/>
        <pt x="149" y="481" on="0"/>
        <pt x="244" y="481" on="1"/>
        <pt x="345" y="481" on="0"/>
        <pt x="398" y="407" on="1"/>
        <pt x="447" y="340" on="0"/>
        <pt x="447" y="240" on="1"/>
        <pt x="447" y="140" on="0"/>
        <pt x="398" y="72" on="1"/>
        <pt x="345" y="-4" on="0"/>
        <pt x="244" y="-4" on="1"/>
        <pt x="147" y="-4" on="0"/>
        <pt x="91" y="72" on="1"/>
        <pt x="42" y="139" on="0"/>
      </contour>
      <contour>
        <pt x="122" y="325" on="0"/>
        <pt x="108" y="256" on="0"/>
        <pt x="108" y="196" on="0"/>
        <pt x="123" y="134" on="0"/>
        <pt x="140" y="110" on="1"/>
        <pt x="177" y="54" on="0"/>
        <pt x="244" y="54" on="1"/>
        <pt x="315" y="54" on="0"/>
        <pt x="351" y="112" on="1"/>
        <pt x="381" y="161" on="0"/>
        <pt x="381" y="235" on="1"/>
        <pt x="381" y="356" on="0"/>
        <pt x="308" y="406" on="1"/>
        <pt x="282" y="423" on="0"/>
        <pt x="205" y="423" on="0"/>
        <pt x="153" y="383" on="0"/>
      </contour>
    </TTGlyph>
    <TTGlyph name="oacute" xMin="42" yMin="-4" xMax="447" yMax="725">
      <contour>
        <pt x="42" y="241" on="1"/>
        <pt x="42" y="288" on="0"/>
        <pt x="68" y="376" on="0"/>
        <pt x="94" y="409" on="1"/>
        <pt x="149" y="481" on="0"/>
        <pt x="244" y="481" on="1"/>
        <pt x="345" y="481" on="0"/>
        <pt x="398" y="407" on="1"/>
        <pt x="447" y="340" on="0"/>
        <pt x="447" y="240" on="1"/>
        <pt x="447" y="140" on="0"/>
        <pt x="398" y="72" on="1"/>
        <pt x="345" y="-4" on="0"/>
        <pt x="244" y="-4" on="1"/>
        <pt x="147" y="-4" on="0"/>
        <pt x="91" y="72" on="1"/>
        <pt x="42" y="139" on="0"/>
      </contour>
      <contour>
        <pt x="122" y="325" on="0"/>
        <pt x="108" y="256" on="0"/>
        <pt x="108" y="196" on="0"/>
        <pt x="123" y="134" on="0"/>
        <pt x="140" y="110" on="1"/>
        <pt x="177" y="54" on="0"/>
        <pt x="244" y="54" on="1"/>
        <pt x="315" y="54" on="0"/>
        <pt x="351" y="112" on="1"/>
        <pt x="381" y="161" on="0"/>
        <pt x="381" y="235" on="1"/>
        <pt x="381" y="356" on="0"/>
        <pt x="308" y="406" on="1"/>
        <pt x="282" y="423" on="0"/>
        <pt x="205" y="423" on="0"/>
        <pt x="153" y="383" on="0"/>
      </contour>
      <contour>
        <pt x="170" y="586" on="1"/>
        <pt x="274" y="725" on="1"/>
        <pt x="301" y="725" on="1"/>
        <pt x="345" y="673" on="1"/>
        <pt x="205" y="553" on="1"/>
      </contour>
    </TTGlyph>
    <TTGlyph name="ocircumflex" xMin="42" yMin="-4" xMax="447" yMax="691">
      <contour>
        <pt x="122" y="548" on="1"/>
        <pt x="238" y="691" on="1"/>
        <pt x="254" y="691" on="1"/>
        <pt x="369" y="550" on="1"/>
        <pt x="366" y="544" on="1"/>
        <pt x="312" y="544" on="1"/>
        <pt x="245" y="602" on="1"/>
        <pt x="179" y="544" on="1"/>
        <pt x="126" y="544" on="1"/>
      </contour>
      <contour>
        <pt x="42" y="241" on="1"/>
        <pt x="42" y="288" on="0"/>
        <pt x="68" y="376" on="0"/>
        <pt x="94" y="409" on="1"/>
        <pt x="149" y="481" on="0"/>
        <pt x="244" y="481" on="1"/>
        <pt x="345" y="481" on="0"/>
        <pt x="398" y="407" on="1"/>
        <pt x="447" y="340" on="0"/>
        <pt x="447" y="240" on="1"/>
        <pt x="447" y="140" on="0"/>
        <pt x="398" y="72" on="1"/>
        <pt x="345" y="-4" on="0"/>
        <pt x="244" y="-4" on="1"/>
        <pt x="147" y="-4" on="0"/>
        <pt x="91" y="72" on="1"/>
        <pt x="42" y="139" on="0"/>
      </contour>
      <contour>
        <pt x="122" y="325" on="0"/>
        <pt x="108" y="256" on="0"/>
        <pt x="108" y="196" on="0"/>
        <pt x="123" y="134" on="0"/>
        <pt x="140" y="110" on="1"/>
        <pt x="177" y="54" on="0"/>
        <pt x="244" y="54" on="1"/>
        <pt x="315" y="54" on="0"/>
        <pt x="351" y="112" on="1"/>
        <pt x="381" y="161" on="0"/>
        <pt x="381" y="235" on="1"/>
        <pt x="381" y="356" on="0"/>
        <pt x="308" y="406" on="1"/>
        <pt x="282" y="423" on="0"/>
        <pt x="205" y="423" on="0"/>
        <pt x="153" y="383" on="0"/>
      </contour>
    </TTGlyph>
    <TTGlyph name="odieresis" xMin="42" yMin="-4" xMax="447" yMax="668">
      <contour>
        <pt x="160" y="570" on="0"/>
        <pt x="132" y="600" on="0"/>
        <pt x="132" y="639" on="0"/>
        <pt x="160" y="668" on="0"/>
        <pt x="200" y="668" on="0"/>
        <pt x="229" y="639" on="0"/>
        <pt x="229" y="600" on="0"/>
        <pt x="200" y="570" on="0"/>
      </contour>
      <contour>
        <pt x="299" y="570" on="0"/>
        <pt x="272" y="600" on="0"/>
        <pt x="272" y="639" on="0"/>
        <pt x="299" y="668" on="0"/>
        <pt x="339" y="668" on="0"/>
        <pt x="367" y="639" on="0"/>
        <pt x="367" y="600" on="0"/>
        <pt x="339" y="570" on="0"/>
      </contour>
      <contour>
        <pt x="42" y="241" on="1"/>
        <pt x="42" y="288" on="0"/>
        <pt x="68" y="376" on="0"/>
        <pt x="94" y="409" on="1"/>
        <pt x="149" y="481" on="0"/>
        <pt x="244" y="481" on="1"/>
        <pt x="345" y="481" on="0"/>
        <pt x="398" y="407" on="1"/>
        <pt x="447" y="340" on="0"/>
        <pt x="447" y="240" on="1"/>
        <pt x="447" y="140" on="0"/>
        <pt x="398" y="72" on="1"/>
        <pt x="345" y="-4" on="0"/>
        <pt x="244" y="-4" on="1"/>
        <pt x="147" y="-4" on="0"/>
        <pt x="91" y="72" on="1"/>
        <pt x="42" y="139" on="0"/>
      </contour>
      <contour>
        <pt x="122" y="325" on="0"/>
        <pt x="108" y="256" on="0"/>
        <pt x="108" y="196" on="0"/>
        <pt x="123" y="134" on="0"/>
        <pt x="140" y="110" on="1"/>
        <pt x="177" y="54" on="0"/>
        <pt x="244" y="54" on="1"/>
        <pt x="315" y="54" on="0"/>
        <pt x="351" y="112" on="1"/>
        <pt x="381" y="161" on="0"/>
        <pt x="381" y="235" on="1"/>
        <pt x="381" y="356" on="0"/>
        <pt x="308" y="406" on="1"/>
        <pt x="282" y="423" on="0"/>
        <pt x="205" y="423" on="0"/>
        <pt x="153" y="383" on="0"/>
      </contour>
    </TTGlyph>
    <TTGlyph name="oe" xMin="42" yMin="-4" xMax="740" yMax="481">
      <contour>
        <pt x="414" y="96" on="1"/>
        <pt x="361" y="-4" on="0"/>
        <pt x="244" y="-4" on="1"/>
        <pt x="147" y="-4" on="0"/>
        <pt x="91" y="72" on="1"/>
        <pt x="42" y="139" on="0"/>
        <pt x="42" y="240" on="1"/>
        <pt x="42" y="342" on="0"/>
        <pt x="94" y="409" on="1"/>
        <pt x="149" y="481" on="0"/>
        <pt x="244" y="481" on="1"/>
        <pt x="310" y="481" on="0"/>
        <pt x="395" y="422" on="0"/>
        <pt x="418" y="375" on="1"/>
        <pt x="446" y="423" on="0"/>
        <pt x="536" y="480" on="0"/>
        <pt x="591" y="480" on="1"/>
        <pt x="654" y="480" on="0"/>
        <pt x="696" y="446" on="1"/>
        <pt x="740" y="409" on="0"/>
        <pt x="740" y="295" on="0"/>
        <pt x="688" y="231" on="0"/>
        <pt x="646" y="214" on="1"/>
        <pt x="578" y="186" on="0"/>
        <pt x="450" y="186" on="1"/>
        <pt x="460" y="128" on="0"/>
        <pt x="533" y="53" on="0"/>
        <pt x="671" y="53" on="0"/>
        <pt x="720" y="89" on="1"/>
        <pt x="737" y="35" on="1"/>
        <pt x="685" y="-3" on="0"/>
        <pt x="598" y="-3" on="1"/>
        <pt x="471" y="-3" on="0"/>
      </contour>
      <contour>
        <pt x="122" y="325" on="0"/>
        <pt x="108" y="256" on="0"/>
        <pt x="108" y="196" on="0"/>
        <pt x="123" y="134" on="0"/>
        <pt x="140" y="110" on="1"/>
        <pt x="177" y="54" on="0"/>
        <pt x="244" y="54" on="1"/>
        <pt x="313" y="54" on="0"/>
        <pt x="349" y="110" on="1"/>
        <pt x="379" y="155" on="0"/>
        <pt x="381" y="228" on="1"/>
        <pt x="381" y="235" on="1"/>
        <pt x="381" y="356" on="0"/>
        <pt x="308" y="406" on="1"/>
        <pt x="282" y="423" on="0"/>
        <pt x="205" y="423" on="0"/>
        <pt x="153" y="383" on="0"/>
      </contour>
      <contour>
        <pt x="464" y="245" on="1"/>
        <pt x="553" y="245" on="0"/>
        <pt x="629" y="270" on="0"/>
        <pt x="674" y="311" on="0"/>
        <pt x="674" y="349" on="1"/>
        <pt x="674" y="386" on="0"/>
        <pt x="647" y="406" on="1"/>
        <pt x="624" y="423" on="0"/>
        <pt x="555" y="423" on="0"/>
        <pt x="503" y="394" on="0"/>
        <pt x="486" y="370" on="1"/>
        <pt x="449" y="318" on="0"/>
        <pt x="447" y="245" on="1"/>
      </contour>
    </TTGlyph>
    <TTGlyph name="ograve" xMin="42" yMin="-4" xMax="447" yMax="726">
      <contour>
        <pt x="42" y="241" on="1"/>
        <pt x="42" y="288" on="0"/>
        <pt x="68" y="376" on="0"/>
        <pt x="94" y="409" on="1"/>
        <pt x="149" y="481" on="0"/>
        <pt x="244" y="481" on="1"/>
        <pt x="345" y="481" on="0"/>
        <pt x="398" y="407" on="1"/>
        <pt x="447" y="340" on="0"/>
        <pt x="447" y="240" on="1"/>
        <pt x="447" y="140" on="0"/>
        <pt x="398" y="72" on="1"/>
        <pt x="345" y="-4" on="0"/>
        <pt x="244" y="-4" on="1"/>
        <pt x="147" y="-4" on="0"/>
        <pt x="91" y="72" on="1"/>
        <pt x="42" y="139" on="0"/>
      </contour>
      <contour>
        <pt x="122" y="325" on="0"/>
        <pt x="108" y="256" on="0"/>
        <pt x="108" y="196" on="0"/>
        <pt x="123" y="134" on="0"/>
        <pt x="140" y="110" on="1"/>
        <pt x="177" y="54" on="0"/>
        <pt x="244" y="54" on="1"/>
        <pt x="315" y="54" on="0"/>
        <pt x="351" y="112" on="1"/>
        <pt x="381" y="161" on="0"/>
        <pt x="381" y="235" on="1"/>
        <pt x="381" y="356" on="0"/>
        <pt x="308" y="406" on="1"/>
        <pt x="282" y="423" on="0"/>
        <pt x="205" y="423" on="0"/>
        <pt x="153" y="383" on="0"/>
      </contour>
      <contour>
        <pt x="317" y="553" on="1"/>
        <pt x="177" y="673" on="1"/>
        <pt x="221" y="726" on="1"/>
        <pt x="247" y="726" on="1"/>
        <pt x="351" y="586" on="1"/>
      </contour>
    </TTGlyph>
    <TTGlyph name="one" xMin="34" yMin="0" xMax="308" yMax="692">
      <contour>
        <pt x="41" y="49" on="1"/>
        <pt x="146" y="68" on="1"/>
        <pt x="146" y="601" on="1"/>
        <pt x="43" y="581" on="1"/>
        <pt x="34" y="638" on="1"/>
        <pt x="192" y="692" on="1"/>
        <pt x="214" y="682" on="1"/>
        <pt x="214" y="68" on="1"/>
        <pt x="308" y="55" on="1"/>
        <pt x="308" y="0" on="1"/>
        <pt x="48" y="0" on="1"/>
      </contour>
    </TTGlyph>
    <TTGlyph name="onehalf" xMin="35" yMin="-21" xMax="590" yMax="693">
      <contour>
        <pt x="344" y="0" on="1"/>
        <pt x="339" y="31" on="1"/>
        <pt x="346" y="39" on="0"/>
        <pt x="380" y="69" on="0"/>
        <pt x="422" y="109" on="0"/>
        <pt x="467" y="155" on="0"/>
        <pt x="486" y="178" on="1"/>
        <pt x="529" y="232" on="0"/>
        <pt x="529" y="269" on="1"/>
        <pt x="529" y="309" on="0"/>
        <pt x="502" y="326" on="1"/>
        <pt x="485" y="337" on="0"/>
        <pt x="466" y="337" on="1"/>
        <pt x="439" y="337" on="0"/>
        <pt x="416" y="327" on="1"/>
        <pt x="387" y="267" on="1"/>
        <pt x="333" y="301" on="1"/>
        <pt x="351" y="332" on="0"/>
        <pt x="418" y="379" on="0"/>
        <pt x="513" y="379" on="0"/>
        <pt x="581" y="325" on="0"/>
        <pt x="581" y="269" on="1"/>
        <pt x="581" y="187" on="0"/>
        <pt x="462" y="80" on="1"/>
        <pt x="436" y="56" on="0"/>
        <pt x="422" y="42" on="1"/>
        <pt x="533" y="42" on="1"/>
        <pt x="552" y="93" on="1"/>
        <pt x="590" y="93" on="1"/>
        <pt x="578" y="0" on="1"/>
      </contour>
      <contour>
        <pt x="50" y="350" on="1"/>
        <pt x="93" y="357" on="1"/>
        <pt x="93" y="635" on="1"/>
        <pt x="43" y="629" on="1"/>
        <pt x="35" y="664" on="1"/>
        <pt x="138" y="693" on="1"/>
        <pt x="147" y="688" on="1"/>
        <pt x="147" y="360" on="1"/>
        <pt x="182" y="352" on="1"/>
        <pt x="182" y="315" on="1"/>
        <pt x="53" y="315" on="1"/>
      </contour>
      <contour>
        <pt x="125" y="-21" on="1"/>
        <pt x="77" y="-21" on="1"/>
        <pt x="74" y="-8" on="1"/>
        <pt x="423" y="691" on="1"/>
        <pt x="475" y="691" on="1"/>
        <pt x="474" y="677" on="1"/>
      </contour>
    </TTGlyph>
    <TTGlyph name="onequarter" xMin="36" yMin="-21" xMax="566" yMax="693">
      <contour>
        <pt x="380" y="37" on="1"/>
        <pt x="464" y="48" on="1"/>
        <pt x="464" y="117" on="1"/>
        <pt x="317" y="117" on="1"/>
        <pt x="317" y="181" on="1"/>
        <pt x="464" y="376" on="1"/>
        <pt x="517" y="376" on="1"/>
        <pt x="517" y="164" on="1"/>
        <pt x="566" y="164" on="1"/>
        <pt x="566" y="117" on="1"/>
        <pt x="517" y="117" on="1"/>
        <pt x="517" y="47" on="1"/>
        <pt x="553" y="41" on="1"/>
        <pt x="553" y="0" on="1"/>
        <pt x="382" y="0" on="1"/>
      </contour>
      <contour>
        <pt x="127" y="-21" on="1"/>
        <pt x="79" y="-21" on="1"/>
        <pt x="76" y="-8" on="1"/>
        <pt x="425" y="691" on="1"/>
        <pt x="477" y="691" on="1"/>
        <pt x="476" y="677" on="1"/>
      </contour>
      <contour>
        <pt x="51" y="350" on="1"/>
        <pt x="94" y="357" on="1"/>
        <pt x="94" y="635" on="1"/>
        <pt x="44" y="629" on="1"/>
        <pt x="36" y="664" on="1"/>
        <pt x="139" y="693" on="1"/>
        <pt x="148" y="688" on="1"/>
        <pt x="148" y="360" on="1"/>
        <pt x="183" y="352" on="1"/>
        <pt x="183" y="315" on="1"/>
        <pt x="54" y="315" on="1"/>
      </contour>
      <contour>
        <pt x="464" y="164" on="1"/>
        <pt x="464" y="300" on="1"/>
        <pt x="361" y="164" on="1"/>
      </contour>
    </TTGlyph>
    <TTGlyph name="onesuperior" xMin="41" yMin="434" xMax="178" yMax="693">
      <contour>
        <pt x="51" y="468" on="1"/>
        <pt x="89" y="476" on="1"/>
        <pt x="89" y="635" on="1"/>
        <pt x="50" y="629" on="1"/>
        <pt x="41" y="664" on="1"/>
        <pt x="134" y="693" on="1"/>
        <pt x="143" y="688" on="1"/>
        <pt x="143" y="479" on="1"/>
        <pt x="178" y="470" on="1"/>
        <pt x="178" y="434" on="1"/>
        <pt x="54" y="434" on="1"/>
      </contour>
    </TTGlyph>
    <TTGlyph name="ordfeminine" xMin="43" yMin="433" xMax="260" yMax="691">
      <contour>
        <pt x="43" y="504" on="1"/>
        <pt x="43" y="583" on="0"/>
        <pt x="177" y="589" on="1"/>
        <pt x="177" y="611" on="1"/>
        <pt x="177" y="635" on="0"/>
        <pt x="158" y="644" on="1"/>
        <pt x="150" y="649" on="0"/>
        <pt x="136" y="649" on="1"/>
        <pt x="122" y="649" on="0"/>
        <pt x="112" y="642" on="1"/>
        <pt x="105" y="613" on="1"/>
        <pt x="43" y="622" on="1"/>
        <pt x="51" y="672" on="0"/>
        <pt x="106" y="687" on="1"/>
        <pt x="120" y="691" on="0"/>
        <pt x="149" y="691" on="0"/>
        <pt x="183" y="683" on="0"/>
        <pt x="197" y="674" on="1"/>
        <pt x="230" y="653" on="0"/>
        <pt x="230" y="610" on="1"/>
        <pt x="230" y="491" on="1"/>
        <pt x="230" y="478" on="0"/>
        <pt x="238" y="478" on="1"/>
        <pt x="250" y="481" on="1"/>
        <pt x="260" y="450" on="1"/>
        <pt x="241" y="434" on="0"/>
        <pt x="195" y="434" on="0"/>
        <pt x="184" y="451" on="1"/>
        <pt x="161" y="433" on="0"/>
        <pt x="111" y="433" on="0"/>
        <pt x="82" y="442" on="0"/>
        <pt x="70" y="451" on="1"/>
        <pt x="43" y="471" on="0"/>
      </contour>
      <contour>
        <pt x="177" y="547" on="1"/>
        <pt x="99" y="547" on="0"/>
        <pt x="99" y="505" on="1"/>
        <pt x="99" y="498" on="0"/>
        <pt x="111" y="475" on="0"/>
        <pt x="131" y="475" on="1"/>
        <pt x="163" y="475" on="0"/>
        <pt x="176" y="501" on="1"/>
        <pt x="177" y="506" on="1"/>
      </contour>
    </TTGlyph>
    <TTGlyph name="ordmasculine" xMin="39" yMin="433" xMax="257" yMax="692">
      <contour>
        <pt x="39" y="563" on="1"/>
        <pt x="39" y="657" on="0"/>
        <pt x="106" y="684" on="1"/>
        <pt x="125" y="692" on="0"/>
        <pt x="147" y="692" on="1"/>
        <pt x="193" y="692" on="0"/>
        <pt x="257" y="629" on="0"/>
        <pt x="257" y="563" on="1"/>
        <pt x="257" y="497" on="0"/>
        <pt x="193" y="433" on="0"/>
        <pt x="102" y="433" on="0"/>
        <pt x="39" y="497" on="0"/>
      </contour>
      <contour>
        <pt x="122" y="640" on="0"/>
        <pt x="95" y="595" on="0"/>
        <pt x="95" y="526" on="0"/>
        <pt x="122" y="484" on="0"/>
        <pt x="174" y="484" on="0"/>
        <pt x="201" y="526" on="0"/>
        <pt x="201" y="595" on="0"/>
        <pt x="174" y="640" on="0"/>
      </contour>
    </TTGlyph>
    <TTGlyph name="oslash" xMin="42" yMin="-90" xMax="450" yMax="602">
      <contour>
        <pt x="119" y="442" on="0"/>
        <pt x="194" y="481" on="0"/>
        <pt x="287" y="481" on="0"/>
        <pt x="330" y="463" on="1"/>
        <pt x="399" y="602" on="1"/>
        <pt x="450" y="602" on="1"/>
        <pt x="449" y="587" on="1"/>
        <pt x="373" y="435" on="1"/>
        <pt x="411" y="401" on="0"/>
        <pt x="447" y="297" on="0"/>
        <pt x="447" y="193" on="0"/>
        <pt x="423" y="106" on="0"/>
        <pt x="398" y="72" on="1"/>
        <pt x="345" y="-4" on="0"/>
        <pt x="244" y="-4" on="1"/>
        <pt x="200" y="-4" on="0"/>
        <pt x="162" y="12" on="1"/>
        <pt x="111" y="-90" on="1"/>
        <pt x="63" y="-90" on="1"/>
        <pt x="60" y="-77" on="1"/>
        <pt x="119" y="41" on="1"/>
        <pt x="79" y="76" on="0"/>
        <pt x="42" y="182" on="0"/>
        <pt x="42" y="288" on="0"/>
        <pt x="68" y="376" on="0"/>
      </contour>
      <contour>
        <pt x="302" y="408" on="1"/>
        <pt x="276" y="423" on="0"/>
        <pt x="205" y="423" on="0"/>
        <pt x="153" y="383" on="0"/>
        <pt x="138" y="354" on="1"/>
        <pt x="108" y="299" on="0"/>
        <pt x="108" y="228" on="1"/>
        <pt x="108" y="149" on="0"/>
        <pt x="148" y="99" on="1"/>
      </contour>
      <contour>
        <pt x="189" y="66" on="1"/>
        <pt x="213" y="54" on="0"/>
        <pt x="282" y="54" on="0"/>
        <pt x="335" y="86" on="0"/>
        <pt x="351" y="112" on="1"/>
        <pt x="381" y="161" on="0"/>
        <pt x="381" y="235" on="1"/>
        <pt x="381" y="316" on="0"/>
        <pt x="342" y="373" on="1"/>
      </contour>
    </TTGlyph>
    <TTGlyph name="otilde" xMin="42" yMin="-4" xMax="447" yMax="663">
      <contour>
        <pt x="195" y="600" on="1"/>
        <pt x="154" y="596" on="0"/>
        <pt x="137" y="554" on="1"/>
        <pt x="94" y="580" on="1"/>
        <pt x="95" y="597" on="1"/>
        <pt x="109" y="621" on="0"/>
        <pt x="152" y="663" on="0"/>
        <pt x="188" y="663" on="1"/>
        <pt x="210" y="663" on="0"/>
        <pt x="258" y="640" on="0"/>
        <pt x="285" y="626" on="0"/>
        <pt x="297" y="622" on="1"/>
        <pt x="350" y="663" on="1"/>
        <pt x="387" y="601" on="1"/>
        <pt x="367" y="584" on="0"/>
        <pt x="331" y="563" on="0"/>
        <pt x="286" y="563" on="0"/>
        <pt x="258" y="575" on="0"/>
        <pt x="233" y="588" on="0"/>
        <pt x="209" y="600" on="0"/>
      </contour>
      <contour>
        <pt x="42" y="241" on="1"/>
        <pt x="42" y="288" on="0"/>
        <pt x="68" y="376" on="0"/>
        <pt x="94" y="409" on="1"/>
        <pt x="149" y="481" on="0"/>
        <pt x="244" y="481" on="1"/>
        <pt x="345" y="481" on="0"/>
        <pt x="398" y="407" on="1"/>
        <pt x="447" y="340" on="0"/>
        <pt x="447" y="240" on="1"/>
        <pt x="447" y="140" on="0"/>
        <pt x="398" y="72" on="1"/>
        <pt x="345" y="-4" on="0"/>
        <pt x="244" y="-4" on="1"/>
        <pt x="147" y="-4" on="0"/>
        <pt x="91" y="72" on="1"/>
        <pt x="42" y="139" on="0"/>
      </contour>
      <contour>
        <pt x="122" y="325" on="0"/>
        <pt x="108" y="256" on="0"/>
        <pt x="108" y="196" on="0"/>
        <pt x="123" y="134" on="0"/>
        <pt x="140" y="110" on="1"/>
        <pt x="177" y="54" on="0"/>
        <pt x="244" y="54" on="1"/>
        <pt x="315" y="54" on="0"/>
        <pt x="351" y="112" on="1"/>
        <pt x="381" y="161" on="0"/>
        <pt x="381" y="235" on="1"/>
        <pt x="381" y="356" on="0"/>
        <pt x="308" y="406" on="1"/>
        <pt x="282" y="423" on="0"/>
        <pt x="205" y="423" on="0"/>
        <pt x="153" y="383" on="0"/>
      </contour>
    </TTGlyph>
    <TTGlyph name="p" xMin="22" yMin="-273" xMax="458" yMax="481">
      <contour>
        <pt x="249" y="-4" on="1"/>
        <pt x="194" y="-4" on="0"/>
        <pt x="154" y="16" on="1"/>
        <pt x="154" y="-208" on="1"/>
        <pt x="275" y="-229" on="1"/>
        <pt x="275" y="-273" on="1"/>
        <pt x="41" y="-273" on="1"/>
        <pt x="32" y="-229" on="1"/>
        <pt x="91" y="-215" on="1"/>
        <pt x="91" y="416" on="1"/>
        <pt x="30" y="412" on="1"/>
        <pt x="22" y="463" on="1"/>
        <pt x="127" y="481" on="1"/>
        <pt x="154" y="445" on="1"/>
        <pt x="201" y="479" on="0"/>
        <pt x="313" y="479" on="0"/>
        <pt x="386" y="440" on="0"/>
        <pt x="410" y="408" on="1"/>
        <pt x="458" y="342" on="0"/>
        <pt x="458" y="242" on="1"/>
        <pt x="458" y="140" on="0"/>
        <pt x="408" y="72" on="1"/>
        <pt x="352" y="-4" on="0"/>
      </contour>
      <contour>
        <pt x="154" y="85" on="1"/>
        <pt x="194" y="53" on="0"/>
        <pt x="289" y="53" on="0"/>
        <pt x="344" y="85" on="0"/>
        <pt x="361" y="112" on="1"/>
        <pt x="392" y="160" on="0"/>
        <pt x="392" y="237" on="1"/>
        <pt x="392" y="359" on="0"/>
        <pt x="321" y="405" on="1"/>
        <pt x="295" y="422" on="0"/>
        <pt x="229" y="422" on="0"/>
        <pt x="168" y="394" on="0"/>
        <pt x="154" y="371" on="1"/>
      </contour>
    </TTGlyph>
    <TTGlyph name="paragraph" xMin="31" yMin="-8" xMax="462" yMax="691">
      <contour>
        <pt x="63" y="384" on="0"/>
        <pt x="31" y="457" on="0"/>
        <pt x="31" y="532" on="0"/>
        <pt x="54" y="600" on="0"/>
        <pt x="80" y="628" on="1"/>
        <pt x="138" y="691" on="0"/>
        <pt x="250" y="691" on="1"/>
        <pt x="462" y="691" on="1"/>
        <pt x="462" y="632" on="1"/>
        <pt x="420" y="632" on="1"/>
        <pt x="420" y="0" on="1"/>
        <pt x="363" y="0" on="1"/>
        <pt x="363" y="632" on="1"/>
        <pt x="331" y="632" on="1"/>
        <pt x="331" y="125" on="1"/>
        <pt x="331" y="84" on="0"/>
        <pt x="324" y="77" on="1"/>
        <pt x="290" y="39" on="0"/>
        <pt x="241" y="-8" on="1"/>
        <pt x="188" y="66" on="1"/>
        <pt x="263" y="109" on="1"/>
        <pt x="263" y="299" on="1"/>
        <pt x="157" y="301" on="0"/>
        <pt x="93" y="358" on="1"/>
      </contour>
    </TTGlyph>
    <TTGlyph name="parenleft" xMin="54" yMin="-162" xMax="224" yMax="742">
      <contour>
        <pt x="164" y="-162" on="1"/>
        <pt x="54" y="68" on="0"/>
        <pt x="54" y="290" on="1"/>
        <pt x="54" y="437" on="0"/>
        <pt x="92" y="572" on="1"/>
        <pt x="120" y="668" on="0"/>
        <pt x="164" y="742" on="1"/>
        <pt x="224" y="742" on="1"/>
        <pt x="160" y="622" on="0"/>
        <pt x="134" y="438" on="1"/>
        <pt x="125" y="369" on="0"/>
        <pt x="125" y="211" on="0"/>
        <pt x="147" y="72" on="0"/>
        <pt x="162" y="14" on="1"/>
        <pt x="181" y="-55" on="0"/>
        <pt x="224" y="-162" on="1"/>
      </contour>
    </TTGlyph>
    <TTGlyph name="parenright" xMin="35" yMin="-162" xMax="205" yMax="742">
      <contour>
        <pt x="205" y="290" on="1"/>
        <pt x="205" y="68" on="0"/>
        <pt x="95" y="-162" on="1"/>
        <pt x="35" y="-162" on="1"/>
        <pt x="78" y="-55" on="0"/>
        <pt x="95" y="8" on="1"/>
        <pt x="134" y="154" on="0"/>
        <pt x="134" y="291" on="1"/>
        <pt x="134" y="499" on="0"/>
        <pt x="68" y="667" on="1"/>
        <pt x="51" y="712" on="0"/>
        <pt x="35" y="742" on="1"/>
        <pt x="95" y="742" on="1"/>
        <pt x="166" y="622" on="0"/>
        <pt x="194" y="443" on="1"/>
        <pt x="205" y="372" on="0"/>
      </contour>
    </TTGlyph>
</ttFont>
